<svg width="25" height="25" viewBox="0 0 25 25" fill="none" xmlns="http://www.w3.org/2000/svg">
<path fill-rule="evenodd" clip-rule="evenodd" d="M22.1083 16.4114C22.6084 15.0503 22.8067 13.5968 22.6893 12.1514C22.3063 7.30506 18.3805 3.37858 13.5341 2.99627C12.0889 2.87878 10.6354 3.07693 9.27437 3.577C7.91335 4.07707 6.67733 4.8671 5.65198 5.89233C4.62663 6.91757 3.83646 8.15352 3.33624 9.51445C2.83601 10.8754 2.63768 12.3289 2.75501 13.7741C3.13671 18.6199 7.06318 22.5482 11.9102 22.9305C13.3555 23.048 14.809 22.8497 16.1701 22.3495C17.5312 21.8493 18.7672 21.0592 19.7926 20.0338C20.8179 19.0085 21.6081 17.7724 22.1083 16.4114ZM16.5951 10.8684C16.5951 11.7363 16.1862 12.1966 15.5905 12.6055C16.1472 12.8047 17.1989 13.5174 17.1804 14.7485C17.16 16.2474 15.7952 17.1754 14.2301 17.1754H14.1305V18.4986H12.7775V17.1704H11.8681V18.4962H10.4843V17.163H8.82075L9.08738 15.8397C9.08738 15.8397 9.3967 15.849 9.60456 15.8397C9.68709 15.8327 9.76417 15.7956 9.82115 15.7355C9.87818 15.6754 9.91116 15.5965 9.91388 15.5137V10.4799V10.4069C9.91388 10.2052 9.70725 9.91569 9.24885 9.91569H8.77312V8.74832C8.77312 8.74832 10.2368 8.74956 10.4805 8.74399V7.4362H11.8638V8.75018H12.7732L12.7701 7.43125H14.1311V8.75018C14.1311 8.75018 14.321 8.75327 14.3891 8.7607C15.2236 8.84298 16.5951 9.48945 16.5951 10.8684ZM11.8675 10.0079V12.0098V12.2653C11.8867 12.2688 13.0026 12.2657 13.1409 12.2653L13.1549 12.2653C13.5737 12.2448 13.8651 12.1304 14.0723 11.985C14.1534 11.9303 14.2251 11.8628 14.2845 11.7852C14.3591 11.6928 14.4169 11.5882 14.4553 11.4759C14.4985 11.347 14.5218 11.2122 14.5246 11.0762C14.5201 10.88 14.4565 10.6895 14.3421 10.53C14.1559 10.264 13.8107 10.0431 13.2539 10.0165C13.2382 10.0157 13.2236 10.0141 13.2091 10.0124C13.1892 10.0101 13.1694 10.0079 13.1469 10.0079H11.8675ZM14.746 15.3127C14.8269 15.2132 14.8897 15.1003 14.9316 14.9792L14.9292 14.9823C14.9766 14.844 15.0027 14.6992 15.0065 14.553C15.0018 14.3407 14.9331 14.1347 14.8091 13.9622C14.6093 13.6733 14.235 13.4345 13.6337 13.4054C13.6168 13.4046 13.6008 13.4028 13.5849 13.401C13.5636 13.3986 13.5423 13.3961 13.5187 13.3961C13.2549 13.3961 12.7893 13.395 12.4142 13.3941C12.1611 13.3935 11.9491 13.393 11.8681 13.393V15.8348C11.8872 15.8353 13.1533 15.8325 13.4602 15.8318L13.5267 15.8317C13.9777 15.81 14.2926 15.6863 14.5165 15.5286C14.6044 15.4697 14.6819 15.3967 14.746 15.3127Z" fill="#BDB9B9"/>
</svg>
