<svg width="158" height="53" viewBox="0 0 158 53" fill="none" xmlns="http://www.w3.org/2000/svg">
<g opacity="0.5">
<path d="M157.549 23.6724C157.528 23.8828 157.528 24.03 157.549 24.1142C157.57 24.1983 157.57 24.2614 157.549 24.3035C157.506 24.4508 157.432 24.556 157.326 24.6191C157.22 24.6612 157.124 24.7243 157.039 24.8084C156.827 24.7032 156.636 24.6822 156.466 24.7453C156.296 24.8084 156.126 24.861 155.956 24.9031C155.914 24.9031 155.84 24.9136 155.733 24.9347C155.649 24.9347 155.585 24.9347 155.542 24.9347C155.372 24.9347 155.213 24.9662 155.065 25.0293C154.916 25.0924 154.778 25.1345 154.651 25.1556C154.544 25.1766 154.449 25.1766 154.364 25.1556C154.279 25.1345 154.183 25.1556 154.077 25.2187C153.992 25.408 153.961 25.6184 153.982 25.8498C154.024 26.0602 154.024 26.2811 153.982 26.5125C153.939 26.8491 153.929 27.1226 153.95 27.333C153.992 27.5223 154.014 27.7011 154.014 27.8694C154.014 28.0588 154.003 28.2376 153.982 28.4059C153.982 28.5742 154.024 28.732 154.109 28.8792C154.045 29.0055 154.003 29.1633 153.982 29.3526C153.982 29.5209 153.982 29.6892 153.982 29.8575C153.939 30.152 153.939 30.4886 153.982 30.8673C154.024 31.246 154.045 31.5826 154.045 31.8771C154.024 32.0244 154.003 32.1611 153.982 32.2874C153.982 32.3926 153.971 32.5083 153.95 32.6345C153.907 32.8028 153.897 32.908 153.918 32.9501C153.939 32.9921 153.95 33.0342 153.95 33.0763C153.929 33.2867 153.918 33.5286 153.918 33.8021C153.939 34.0756 153.939 34.3596 153.918 34.6541C153.918 34.8435 153.907 34.9802 153.886 35.0644C153.865 35.1485 153.854 35.2221 153.854 35.2853C153.876 35.4536 153.897 35.6324 153.918 35.8217C153.961 36.0111 153.907 36.2004 153.759 36.3897C153.759 36.4529 153.769 36.516 153.791 36.5791C153.833 36.6212 153.865 36.6738 153.886 36.7369C153.844 36.9052 153.833 37.0314 153.854 37.1156C153.897 37.1997 153.918 37.2628 153.918 37.3049C153.876 37.5363 153.865 37.7362 153.886 37.9045C153.907 38.0517 153.929 38.199 153.95 38.3463C153.95 38.9984 153.812 39.4297 153.536 39.6401C153.26 39.598 152.984 39.5559 152.708 39.5139C152.453 39.4718 152.188 39.4718 151.912 39.5139C151.784 39.5349 151.657 39.5559 151.529 39.577C151.402 39.6191 151.253 39.6085 151.083 39.5454C150.977 39.5665 150.903 39.5875 150.861 39.6085C150.818 39.6506 150.754 39.6716 150.669 39.6716C150.585 39.6927 150.51 39.6716 150.446 39.6085C150.383 39.5454 150.308 39.5033 150.224 39.4823C150.181 39.2299 150.17 38.9143 150.192 38.5356C150.234 38.1569 150.245 37.7572 150.224 37.3365C150.224 37.2313 150.213 37.1471 150.192 37.084C150.17 36.9998 150.149 36.9052 150.128 36.8C150.107 36.6527 150.096 36.5055 150.096 36.3582C150.117 36.1899 150.117 36.0216 150.096 35.8533C150.096 35.7902 150.107 35.7271 150.128 35.6639C150.149 35.5798 150.16 35.5062 150.16 35.443C150.16 35.3589 150.139 35.3168 150.096 35.3168C150.075 35.2958 150.064 35.2222 150.064 35.0959C150.064 34.8224 150.086 34.57 150.128 34.3386C150.192 34.1071 150.245 33.8757 150.287 33.6443C150.245 33.3919 150.224 33.213 150.224 33.1078C150.224 32.9816 150.224 32.8764 150.224 32.7923C150.202 32.7081 150.17 32.6135 150.128 32.5083C150.086 32.4031 150.064 32.2979 150.064 32.1927C150.064 32.1086 150.064 32.0454 150.064 32.0034C150.086 31.9613 150.075 31.8877 150.032 31.7825C150.011 31.4248 150.011 31.1093 150.032 30.8358C150.075 30.5412 150.086 30.2572 150.064 29.9837C150.001 29.7523 149.969 29.5735 149.969 29.4473C149.969 29.3 149.958 29.1738 149.937 29.0686C149.916 28.9213 149.894 28.7635 149.873 28.5952C149.873 28.4269 149.884 28.2481 149.905 28.0588C149.905 27.9746 149.916 27.901 149.937 27.8379C149.958 27.7748 149.969 27.7011 149.969 27.617C149.969 27.5118 149.948 27.4171 149.905 27.333C149.884 27.2488 149.873 27.1541 149.873 27.049C149.873 26.8807 149.884 26.7018 149.905 26.5125C149.948 26.3232 149.969 26.1443 149.969 25.976C149.948 25.9129 149.926 25.8498 149.905 25.7867C149.884 25.7025 149.873 25.6289 149.873 25.5658C149.852 25.3554 149.863 25.1556 149.905 24.9662C149.969 24.7769 149.979 24.5875 149.937 24.3982C149.512 24.4823 149.173 24.5665 148.918 24.6506C148.833 24.6717 148.748 24.6927 148.663 24.7138C148.599 24.7138 148.514 24.7348 148.408 24.7769C148.238 24.8189 148.1 24.861 147.994 24.9031C147.888 24.9452 147.771 24.9136 147.644 24.8084C147.453 24.6401 147.336 24.5034 147.293 24.3982C147.272 24.2299 147.293 24.0931 147.357 23.988C147.442 23.8828 147.538 23.7776 147.644 23.6724C147.601 23.5882 147.601 23.5251 147.644 23.483C147.686 23.441 147.718 23.3673 147.739 23.2621C147.761 23.157 147.761 23.0518 147.739 22.9466C147.739 22.8204 147.761 22.6941 147.803 22.5679C147.846 22.4417 147.899 22.326 147.962 22.2208C148.026 22.1156 148.068 22.0104 148.09 21.9052C148.111 21.7579 148.1 21.6107 148.058 21.4634C148.015 21.3161 148.015 21.1689 148.058 21.0216C148.122 20.664 148.387 20.5272 148.854 20.6114C148.981 20.6535 149.098 20.685 149.204 20.7061C149.311 20.7271 149.385 20.7902 149.427 20.8954C149.618 20.8744 149.756 20.8954 149.841 20.9585C149.948 21.0216 150.086 21.0532 150.255 21.0532C150.404 20.8638 150.468 20.6114 150.446 20.2958C150.425 19.9802 150.425 19.6436 150.446 19.286C150.489 19.0967 150.5 18.9599 150.478 18.8758C150.457 18.7916 150.436 18.7075 150.415 18.6233C150.372 18.3077 150.383 18.0132 150.446 17.7397C150.468 17.6766 150.489 17.6135 150.51 17.5504C150.531 17.4662 150.542 17.3926 150.542 17.3295C150.542 17.1612 150.51 17.0139 150.446 16.8877C150.446 16.7615 150.425 16.6668 150.383 16.6037C150.362 16.5406 150.33 16.488 150.287 16.4459C150.266 16.4038 150.245 16.3723 150.224 16.3512C150.202 16.3091 150.202 16.246 150.224 16.1619C150.372 16.0146 150.478 15.9515 150.542 15.9725C150.606 15.9725 150.691 15.9725 150.797 15.9725C150.967 15.9305 151.105 15.8989 151.211 15.8779C151.338 15.8568 151.498 15.8674 151.689 15.9094C151.88 15.8674 152.028 15.8674 152.134 15.9094C152.241 15.9305 152.357 15.9515 152.485 15.9725C152.57 15.9515 152.644 15.9199 152.708 15.8779C152.771 15.8358 152.835 15.8042 152.899 15.7832C152.963 15.8253 153.048 15.8358 153.154 15.8148C153.26 15.7727 153.334 15.7937 153.377 15.8779C153.483 16.0251 153.557 16.1198 153.6 16.1619C153.642 16.1829 153.663 16.2145 153.663 16.2566C153.706 16.4249 153.706 16.6668 153.663 16.9824C153.642 17.2769 153.621 17.5399 153.6 17.7713C153.621 17.8765 153.631 17.9817 153.631 18.0868C153.631 18.171 153.631 18.2657 153.631 18.3709C153.631 18.434 153.621 18.5181 153.6 18.6233C153.578 18.7285 153.568 18.8021 153.568 18.8442C153.631 19.0335 153.653 19.1808 153.631 19.286C153.631 19.3702 153.642 19.4333 153.663 19.4753C153.684 19.6226 153.716 19.7594 153.759 19.8856C153.801 19.9908 153.748 20.117 153.6 20.2643C153.642 20.3905 153.653 20.5167 153.631 20.6429C153.61 20.7481 153.589 20.8744 153.568 21.0216C153.568 21.0847 153.568 21.1584 153.568 21.2425C153.589 21.3267 153.6 21.4003 153.6 21.4634C153.6 21.5686 153.578 21.6633 153.536 21.7474C153.493 21.8316 153.493 21.9262 153.536 22.0314C153.706 22.0525 153.854 22.0209 153.982 21.9368C154.109 21.8526 154.237 21.7895 154.364 21.7474C154.491 21.7053 154.619 21.6948 154.746 21.7159C154.895 21.7159 155.033 21.6633 155.16 21.5581C155.266 21.6422 155.383 21.6422 155.51 21.5581C155.638 21.4739 155.744 21.495 155.829 21.6212C155.935 21.495 156.116 21.4003 156.37 21.3372C156.625 21.2741 156.838 21.2741 157.007 21.3372C157.092 21.5055 157.156 21.6212 157.198 21.6843C157.241 21.7264 157.273 21.7685 157.294 21.8105C157.315 21.8526 157.315 21.9157 157.294 21.9999C157.273 22.063 157.273 22.1366 157.294 22.2208C157.336 22.3891 157.347 22.5048 157.326 22.5679C157.326 22.61 157.326 22.6521 157.326 22.6941C157.347 22.8414 157.379 22.9781 157.421 23.1044C157.464 23.2306 157.496 23.3463 157.517 23.4515L157.549 23.6724Z" fill="#FF4DAD"/>
<path d="M144.896 16.8561C144.938 16.8981 144.949 17.0454 144.927 17.2979C144.906 17.5503 144.874 17.7291 144.832 17.8343C144.811 17.8974 144.779 17.9605 144.736 18.0237C144.694 18.0657 144.651 18.1078 144.609 18.1499C144.566 18.4023 144.503 18.6022 144.418 18.7495C144.333 18.8967 144.269 19.023 144.227 19.1281C144.121 19.1702 144.014 19.2333 143.908 19.3175C143.823 19.3806 143.728 19.4332 143.622 19.4753C143.367 19.5594 143.155 19.6436 142.985 19.7277C142.815 19.7908 142.645 19.8224 142.475 19.8224C142.39 19.8224 142.316 19.8119 142.252 19.7908C142.188 19.7488 142.125 19.7172 142.061 19.6962C141.955 19.6751 141.849 19.6646 141.743 19.6646C141.636 19.6646 141.53 19.6541 141.424 19.633C141.318 19.4437 141.191 19.2754 141.042 19.1281C140.914 18.9598 140.819 18.76 140.755 18.5286C140.692 18.4444 140.596 18.3392 140.469 18.213C140.469 18.0447 140.437 17.8974 140.373 17.7712C140.309 17.6239 140.277 17.4662 140.277 17.2979C140.277 17.1716 140.32 17.0033 140.405 16.7929C140.426 16.6878 140.437 16.5826 140.437 16.4774C140.458 16.3722 140.479 16.2986 140.5 16.2565C140.649 16.0882 140.755 15.9935 140.819 15.9725C140.883 15.9304 140.936 15.8778 140.978 15.8147C141.063 15.6674 141.106 15.5728 141.106 15.5307C141.106 15.4886 141.116 15.4465 141.137 15.4044C141.201 15.3203 141.286 15.2467 141.392 15.1836C141.52 15.0994 141.636 15.0258 141.743 14.9627C141.849 14.8785 141.987 14.8469 142.157 14.868C142.326 14.868 142.528 14.8575 142.762 14.8364C142.847 15.0047 142.985 15.1204 143.176 15.1836C143.367 15.2467 143.515 15.3624 143.622 15.5307C143.791 15.5728 143.898 15.6043 143.94 15.6253C143.983 15.6253 144.025 15.6464 144.068 15.6885C144.428 15.9409 144.694 16.2775 144.864 16.6983L144.896 16.8561ZM144.991 22.3154C144.949 22.5258 144.906 22.7361 144.864 22.9465C144.843 23.1358 144.843 23.3567 144.864 23.6092C144.864 23.7144 144.874 23.8091 144.896 23.8932C144.938 23.9774 144.959 24.072 144.959 24.1772C144.959 24.3245 144.938 24.4823 144.896 24.6506C144.853 24.7978 144.832 24.9556 144.832 25.1239C144.832 25.2922 144.832 25.45 144.832 25.5973C144.832 25.7235 144.843 25.8708 144.864 26.0391C144.864 26.1232 144.874 26.1863 144.896 26.2284C144.917 26.2494 144.906 26.302 144.864 26.3862C144.736 26.6807 144.704 27.0594 144.768 27.5222C144.832 27.9851 144.864 28.3953 144.864 28.7529C144.843 28.9633 144.811 29.1737 144.768 29.3841C144.726 29.5945 144.694 29.8154 144.673 30.0468C144.63 30.5306 144.598 31.0145 144.577 31.4984C144.577 31.9612 144.556 32.424 144.513 32.8869C144.492 33.0131 144.482 33.1499 144.482 33.2971C144.503 33.4233 144.503 33.539 144.482 33.6442C144.46 33.9388 144.428 34.2228 144.386 34.4963C144.365 34.7698 144.333 35.0327 144.29 35.2852C144.269 35.4745 144.269 35.6639 144.29 35.8532C144.312 36.0215 144.322 36.2003 144.322 36.3897C144.322 36.4949 144.322 36.5895 144.322 36.6737C144.344 36.7578 144.354 36.8525 144.354 36.9577C144.375 37.0418 144.397 37.126 144.418 37.2101C144.439 37.2733 144.45 37.3574 144.45 37.4626C144.428 37.5468 144.418 37.6204 144.418 37.6835C144.418 37.7256 144.418 37.7677 144.418 37.8097C144.418 37.8518 144.428 37.8834 144.45 37.9044C144.407 38.0727 144.397 38.1884 144.418 38.2515C144.439 38.2936 144.45 38.3357 144.45 38.3777C144.428 38.4409 144.397 38.5145 144.354 38.5986C144.333 38.6618 144.322 38.7459 144.322 38.8511C144.322 39.0194 144.333 39.1877 144.354 39.356C144.397 39.5033 144.397 39.6611 144.354 39.8294C144.206 39.8925 144.068 39.9556 143.94 40.0187C143.813 40.1028 143.632 40.1134 143.399 40.0503C143.293 40.0082 143.229 39.924 143.208 39.7978C143.186 39.6716 143.133 39.5664 143.048 39.4822C142.878 39.4612 142.73 39.4296 142.602 39.3876C142.496 39.3455 142.39 39.2929 142.284 39.2298C142.199 39.2719 142.082 39.2824 141.934 39.2613C141.806 39.2193 141.668 39.1877 141.52 39.1667C141.35 39.1246 141.191 39.1036 141.042 39.1036C140.893 39.1036 140.776 39.0825 140.692 39.0404C140.564 38.8721 140.49 38.7249 140.469 38.5986C140.469 38.4514 140.426 38.3462 140.341 38.2831C140.426 38.0937 140.479 37.9254 140.5 37.7782C140.543 37.5678 140.543 37.3785 140.5 37.2101C140.458 37.0208 140.447 36.8209 140.469 36.6106C140.469 36.5475 140.49 36.4318 140.532 36.2634C140.554 36.1162 140.564 35.99 140.564 35.8848C140.564 35.7796 140.575 35.6744 140.596 35.5692C140.617 35.4009 140.638 35.3062 140.66 35.2852C140.681 35.2431 140.702 35.201 140.723 35.159C140.745 34.8013 140.755 34.4332 140.755 34.0545C140.776 33.6758 140.798 33.4023 140.819 33.234C140.819 33.1288 140.819 33.0552 140.819 33.0131C140.84 32.95 140.851 32.8658 140.851 32.7607C140.851 32.3399 140.861 31.9823 140.883 31.6877C140.925 31.3722 140.936 31.0461 140.914 30.7095C140.893 30.478 140.893 30.2677 140.914 30.0783C140.957 29.889 140.978 29.6996 140.978 29.5103C140.999 29.2789 140.989 29.079 140.946 28.9107C140.925 28.7214 140.968 28.532 141.074 28.3427C140.989 28.1323 140.957 27.922 140.978 27.7116C141.021 27.5012 141.042 27.3013 141.042 27.112C141.042 26.9437 141.042 26.7859 141.042 26.6386C141.042 26.4914 141.052 26.3336 141.074 26.1653C141.074 26.0601 141.063 25.9549 141.042 25.8497C141.021 25.7235 141.031 25.6078 141.074 25.5026C141.095 25.2712 141.106 25.1134 141.106 25.0293C141.127 24.9241 141.137 24.8504 141.137 24.8084C141.137 24.7242 141.116 24.6506 141.074 24.5875C141.052 24.5243 141.042 24.4612 141.042 24.3981C141.042 24.314 141.042 24.2403 141.042 24.1772C141.063 24.1141 141.063 24.051 141.042 23.9879C140.999 23.7354 140.968 23.5671 140.946 23.483C140.946 23.3778 140.957 23.2936 140.978 23.2305C140.957 23.1253 140.893 23.0622 140.787 23.0412C140.681 23.0201 140.607 22.9675 140.564 22.8834C140.522 22.7151 140.479 22.5363 140.437 22.3469C140.394 22.1366 140.447 21.9788 140.596 21.8736C140.702 21.8315 140.798 21.821 140.883 21.842C140.989 21.842 141.116 21.8525 141.265 21.8736C141.392 21.9157 141.477 21.9262 141.52 21.9051C141.562 21.8841 141.605 21.8841 141.647 21.9051C141.711 21.9262 141.774 21.9577 141.838 21.9998C141.923 22.0208 142.008 22.0419 142.093 22.0629C142.305 22.084 142.549 22.084 142.825 22.0629C143.101 22.0419 143.367 22.0208 143.622 21.9998C143.898 21.9577 144.142 21.9367 144.354 21.9367C144.566 21.9157 144.715 21.9367 144.8 21.9998C144.864 22.0419 144.896 22.105 144.896 22.1891C144.896 22.2523 144.927 22.2943 144.991 22.3154Z" fill="#FF4DAD"/>
<path d="M137.962 32.7295C137.962 32.8557 137.941 33.003 137.898 33.1713C137.877 33.3185 137.845 33.4763 137.803 33.6446C137.76 33.8129 137.718 33.9392 137.675 34.0233C137.654 34.0864 137.644 34.1601 137.644 34.2442C137.665 34.3284 137.665 34.3915 137.644 34.4335C137.601 34.5387 137.548 34.6439 137.484 34.7491C137.442 34.8543 137.399 34.9595 137.357 35.0647C137.315 35.1699 137.272 35.2856 137.23 35.4118C137.208 35.517 137.177 35.6117 137.134 35.6958C137.092 35.7589 137.028 35.8115 136.943 35.8536C136.879 35.8957 136.858 35.9693 136.879 36.0745C136.667 36.1587 136.497 36.2533 136.37 36.3585C136.264 36.4427 136.179 36.5268 136.115 36.611C136.051 36.6951 135.966 36.7793 135.86 36.8634C135.818 36.9055 135.754 36.9476 135.669 36.9896C135.584 37.0317 135.499 37.0738 135.414 37.1159C135.244 37.2211 135.117 37.3052 135.032 37.3683C134.968 37.4104 134.915 37.4525 134.873 37.4946C134.83 37.5156 134.767 37.5261 134.682 37.5261C134.618 37.5261 134.565 37.5471 134.522 37.5892C134.374 37.6944 134.215 37.7786 134.045 37.8417C133.896 37.8838 133.769 37.9574 133.663 38.0626C133.578 38.0836 133.503 38.0836 133.44 38.0626C133.376 38.0415 133.312 38.0415 133.248 38.0626C133.036 38.1257 132.898 38.1783 132.834 38.2204C132.792 38.2414 132.739 38.2624 132.675 38.2835C132.548 38.3255 132.442 38.3571 132.357 38.3781C132.293 38.3781 132.219 38.3992 132.134 38.4413C131.879 38.5254 131.667 38.5675 131.497 38.5675C131.327 38.5675 131.168 38.5885 131.019 38.6306C130.913 38.6727 130.828 38.6937 130.764 38.6937C130.722 38.6937 130.679 38.7042 130.637 38.7253C130.594 38.7253 130.531 38.7463 130.446 38.7884C130.382 38.8094 130.329 38.8305 130.287 38.8515C130.117 38.8094 129.968 38.7989 129.841 38.8199C129.734 38.8199 129.628 38.8199 129.522 38.8199C129.374 38.8199 129.204 38.8305 129.013 38.8515C128.821 38.8725 128.641 38.8936 128.471 38.9146C128.344 38.9146 128.206 38.9041 128.057 38.883C127.93 38.862 127.792 38.862 127.643 38.883C127.494 38.9041 127.325 38.9356 127.133 38.9777C126.964 39.0198 126.804 38.9672 126.656 38.8199C126.528 38.9041 126.39 38.9251 126.242 38.883C126.114 38.841 125.976 38.8305 125.828 38.8515C125.679 38.8725 125.541 38.9251 125.414 39.0093C125.307 39.0934 125.169 39.1145 125 39.0724C124.851 39.1986 124.734 39.2722 124.649 39.2933C124.564 39.2933 124.501 39.3038 124.458 39.3248C124.288 39.388 124.108 39.4616 123.917 39.5457C123.747 39.6299 123.545 39.5983 123.312 39.4511C123.163 39.5142 122.972 39.5247 122.738 39.4826C122.611 39.3564 122.473 39.1671 122.324 38.9146C122.324 38.7463 122.356 38.599 122.42 38.4728C122.484 38.3255 122.515 38.1783 122.515 38.031C122.515 37.9048 122.484 37.7891 122.42 37.6839C122.377 37.5787 122.346 37.463 122.324 37.3368C122.303 37.2316 122.292 37.1369 122.292 37.0528C122.314 36.9476 122.324 36.8424 122.324 36.7372C122.324 36.632 122.314 36.5373 122.292 36.4532C122.271 36.369 122.25 36.2744 122.229 36.1692C122.208 36.0009 122.197 35.8536 122.197 35.7274C122.197 35.5801 122.218 35.4223 122.261 35.254C122.282 35.1699 122.282 35.0647 122.261 34.9385C122.261 34.7912 122.303 34.6334 122.388 34.4651C122.367 34.402 122.346 34.3389 122.324 34.2758C122.303 34.1916 122.292 34.1075 122.292 34.0233C122.292 33.9181 122.303 33.8129 122.324 33.7077C122.367 33.6026 122.388 33.4974 122.388 33.3922C122.409 33.287 122.409 33.1713 122.388 33.0451C122.367 32.9188 122.356 32.7926 122.356 32.6664C122.377 32.5612 122.388 32.4665 122.388 32.3824C122.409 32.2772 122.42 32.1825 122.42 32.0984C122.441 32.0352 122.452 31.9616 122.452 31.8775C122.452 31.7933 122.484 31.7407 122.547 31.7197C122.505 31.6355 122.473 31.5724 122.452 31.5303C122.452 31.4672 122.452 31.3936 122.452 31.3094V30.8992C122.452 30.815 122.462 30.7414 122.484 30.6783C122.526 30.6152 122.558 30.5416 122.579 30.4574C122.579 30.4153 122.568 30.3627 122.547 30.2996C122.526 30.2365 122.515 30.1734 122.515 30.1103C122.558 29.942 122.568 29.8263 122.547 29.7632C122.526 29.679 122.526 29.6054 122.547 29.5423V28.7533C122.547 28.6692 122.558 28.585 122.579 28.5009C122.6 28.4167 122.611 28.3326 122.611 28.2484C122.611 28.1643 122.59 28.0801 122.547 27.996C122.526 27.9118 122.515 27.8277 122.515 27.7435C122.515 27.428 122.526 27.1019 122.547 26.7653C122.59 26.4287 122.558 26.1026 122.452 25.787C122.558 25.7029 122.59 25.6082 122.547 25.503C122.526 25.3978 122.515 25.2926 122.515 25.1874C122.537 25.1454 122.547 25.0822 122.547 24.9981C122.547 24.8929 122.547 24.7877 122.547 24.6825C122.505 24.4301 122.484 24.1461 122.484 23.8305C122.505 23.5149 122.537 23.1783 122.579 22.8207C122.622 22.6103 122.622 22.4735 122.579 22.4104C122.558 22.3473 122.547 22.2842 122.547 22.2211C122.526 22.158 122.515 22.0949 122.515 22.0318C122.537 21.9686 122.547 21.916 122.547 21.874C122.526 21.7057 122.494 21.5268 122.452 21.3375C122.43 21.1482 122.473 20.9378 122.579 20.7064C122.515 20.6643 122.484 20.6012 122.484 20.517C122.505 20.4329 122.505 20.3487 122.484 20.2646C122.462 20.1804 122.43 20.1068 122.388 20.0437C122.367 19.9806 122.346 19.9069 122.324 19.8228C122.367 19.5493 122.367 19.3179 122.324 19.1285C122.282 18.9392 122.314 18.7919 122.42 18.6867C122.377 18.5816 122.335 18.5079 122.292 18.4658C122.25 18.4238 122.229 18.3501 122.229 18.2449C122.25 18.1398 122.25 18.0135 122.229 17.8663C122.208 17.719 122.229 17.6138 122.292 17.5507C122.25 17.4665 122.197 17.3929 122.133 17.3298C122.07 17.2667 122.059 17.151 122.101 16.9827C122.059 16.8985 121.974 16.7828 121.847 16.6356C121.74 16.4883 121.762 16.3515 121.91 16.2253C121.995 16.1201 122.123 16.0465 122.292 16.0044C122.484 15.9623 122.675 15.9413 122.866 15.9413C123.057 15.9203 123.237 15.9097 123.407 15.9097C123.598 15.9097 123.747 15.8992 123.853 15.8782C124.023 15.8151 124.15 15.7625 124.235 15.7204C124.341 15.6573 124.511 15.6152 124.745 15.5942C124.83 15.5942 124.893 15.5942 124.936 15.5942C125 15.5731 125.074 15.5626 125.159 15.5626C125.223 15.5626 125.297 15.5731 125.382 15.5942C125.467 15.6152 125.53 15.6257 125.573 15.6257C125.637 15.6257 125.7 15.6152 125.764 15.5942C125.828 15.5521 125.881 15.5311 125.923 15.5311C126.029 15.5311 126.167 15.5521 126.337 15.5942H127.197C127.367 15.5942 127.473 15.5837 127.516 15.5626C127.558 15.5416 127.579 15.5416 127.579 15.5626C127.622 15.6257 127.696 15.6363 127.802 15.5942C127.908 15.5521 128.015 15.5311 128.121 15.5311C128.376 15.51 128.652 15.4995 128.949 15.4995C129.267 15.4995 129.565 15.5205 129.841 15.5626C130.138 15.6047 130.35 15.6468 130.478 15.6889C130.626 15.7099 130.775 15.7835 130.924 15.9097C131.348 15.9308 131.741 16.0255 132.102 16.1938C132.463 16.341 132.792 16.4988 133.089 16.6671C133.217 16.7513 133.302 16.8144 133.344 16.8565C133.408 16.8985 133.493 16.9722 133.599 17.0773C133.641 17.1194 133.684 17.172 133.726 17.2351C133.79 17.2982 133.843 17.3508 133.885 17.3929C133.928 17.435 133.949 17.4981 133.949 17.5823C133.97 17.6454 134.002 17.698 134.045 17.74C134.172 17.8663 134.236 17.9504 134.236 17.9925C134.257 18.0135 134.268 18.0346 134.268 18.0556C134.395 18.2239 134.469 18.3501 134.491 18.4343C134.533 18.5184 134.576 18.6131 134.618 18.7183C134.724 18.8235 134.809 18.9392 134.873 19.0654C134.936 19.1916 135.021 19.3074 135.128 19.4125C135.106 19.5388 135.106 19.6545 135.128 19.7597C135.149 19.8649 135.17 19.97 135.191 20.0752C135.234 20.1804 135.266 20.2751 135.287 20.3592C135.329 20.4224 135.372 20.496 135.414 20.5801C135.414 20.6433 135.414 20.7169 135.414 20.801C135.414 20.8642 135.425 20.9273 135.446 20.9904C135.51 21.348 135.489 21.6846 135.382 22.0002C135.34 22.0633 135.297 22.1264 135.255 22.1895C135.234 22.2316 135.202 22.2842 135.159 22.3473C135.117 22.4315 135.096 22.5156 135.096 22.5998C135.096 22.6839 135.074 22.7576 135.032 22.8207C134.99 22.9259 134.926 23.0416 134.841 23.1678C134.756 23.273 134.682 23.3782 134.618 23.4834C134.576 23.5465 134.533 23.6096 134.491 23.6727C134.469 23.7148 134.437 23.7674 134.395 23.8305C134.353 23.9146 134.289 24.0093 134.204 24.1145C134.14 24.1986 134.077 24.2828 134.013 24.367C133.949 24.4511 133.885 24.5353 133.822 24.6194C133.758 24.6825 133.673 24.7456 133.567 24.8087C133.397 24.935 133.291 25.0402 133.248 25.1243C133.206 25.1874 133.174 25.2295 133.153 25.2505C133.11 25.4399 133.132 25.5556 133.217 25.5977C133.302 25.6187 133.365 25.6397 133.408 25.6608C133.493 25.6818 133.567 25.6923 133.631 25.6923C133.716 25.6713 133.79 25.6818 133.854 25.7239C134.002 25.766 134.13 25.8396 134.236 25.9448C134.342 26.05 134.448 26.1446 134.554 26.2288C134.809 26.4602 135.011 26.639 135.159 26.7653C135.308 26.8915 135.467 27.0072 135.637 27.1124C135.765 27.3228 135.903 27.5016 136.051 27.6489C136.221 27.7961 136.348 27.9855 136.433 28.2169C136.561 28.3431 136.646 28.4588 136.688 28.564C136.731 28.6481 136.794 28.7218 136.879 28.7849C136.9 28.827 136.922 28.8796 136.943 28.9427C136.985 29.0058 137.028 29.0584 137.07 29.1005C137.177 29.2267 137.261 29.395 137.325 29.6054C137.41 29.7947 137.495 29.9841 137.58 30.1734C137.622 30.2786 137.644 30.3838 137.644 30.489C137.644 30.5941 137.665 30.7414 137.707 30.9308C137.75 31.1411 137.813 31.4146 137.898 31.7512C137.983 32.0878 138.005 32.4139 137.962 32.7295ZM131.21 21.7477C131.125 21.6215 131.093 21.4532 131.115 21.2428C131.136 21.0325 131.125 20.8326 131.083 20.6433C131.019 20.5381 130.987 20.4644 130.987 20.4224C131.008 20.3803 131.008 20.3382 130.987 20.2961C130.902 20.1699 130.849 20.0963 130.828 20.0752C130.828 20.0332 130.817 19.9806 130.796 19.9175C130.626 19.8333 130.499 19.7281 130.414 19.6019C130.329 19.4546 130.223 19.3284 130.095 19.2232C129.947 19.1811 129.862 19.1391 129.841 19.097C129.819 19.0549 129.788 19.0233 129.745 19.0023C129.512 18.9602 129.299 18.9392 129.108 18.9392C128.938 18.9182 128.768 18.8971 128.599 18.8761C128.429 18.855 128.259 18.834 128.089 18.813C127.919 18.7919 127.749 18.7919 127.579 18.813C127.367 18.855 127.218 18.8761 127.133 18.8761C127.07 18.855 127.017 18.8445 126.974 18.8445C126.698 18.9497 126.475 19.0023 126.305 19.0023C126.136 19.0023 125.966 19.0233 125.796 19.0654C125.753 19.2127 125.743 19.36 125.764 19.5072C125.806 19.6545 125.828 19.8123 125.828 19.9806C125.849 20.0647 125.849 20.1384 125.828 20.2015C125.828 20.2646 125.828 20.3382 125.828 20.4224C125.828 20.5276 125.838 20.6327 125.86 20.7379C125.902 20.8431 125.923 20.9483 125.923 21.0535C125.923 21.1587 125.913 21.2639 125.891 21.3691C125.87 21.4743 125.86 21.5794 125.86 21.6846C125.838 21.8109 125.838 21.9476 125.86 22.0949C125.881 22.2421 125.891 22.3473 125.891 22.4104C125.87 22.6419 125.87 22.8102 125.891 22.9153C125.934 22.9995 125.976 23.0942 126.019 23.1994C125.913 23.4728 125.902 23.7569 125.987 24.0514C126.072 24.3249 126.157 24.5773 126.242 24.8087C126.348 24.7877 126.454 24.7562 126.56 24.7141C126.688 24.672 126.804 24.6404 126.911 24.6194C127.08 24.5773 127.24 24.5668 127.388 24.5878C127.558 24.6089 127.728 24.5984 127.898 24.5563C128.025 24.5142 128.153 24.4616 128.28 24.3985C128.429 24.3354 128.588 24.3249 128.758 24.367C129.013 24.1776 129.331 24.0829 129.713 24.0829C129.756 23.9778 129.841 23.9041 129.968 23.862C130.095 23.82 130.212 23.7779 130.318 23.7358C130.361 23.6727 130.403 23.6201 130.446 23.578C130.509 23.5149 130.563 23.4518 130.605 23.3887C130.69 23.2625 130.754 23.1888 130.796 23.1678C130.86 23.1257 130.902 23.0836 130.924 23.0416C130.966 22.9785 130.977 22.9048 130.955 22.8207C130.955 22.7155 131.008 22.6313 131.115 22.5682C131.072 22.421 131.062 22.2842 131.083 22.158C131.125 22.0107 131.168 21.874 131.21 21.7477ZM133.44 31.4988C133.355 31.3936 133.28 31.2674 133.217 31.1201C133.174 30.9728 133.132 30.815 133.089 30.6467C133.047 30.5626 132.994 30.51 132.93 30.489C132.888 30.4679 132.845 30.4258 132.803 30.3627C132.718 30.1944 132.633 30.0787 132.548 30.0156C132.463 29.9525 132.399 29.8999 132.357 29.8578C132.251 29.7526 132.166 29.679 132.102 29.6369C132.038 29.5949 131.953 29.5423 131.847 29.4791C131.677 29.374 131.518 29.2898 131.369 29.2267C131.221 29.1425 131.083 29.0479 130.955 28.9427C130.594 28.8585 130.233 28.7954 129.872 28.7533C129.533 28.7113 129.204 28.6692 128.885 28.6271C128.461 28.6061 128.089 28.6481 127.77 28.7533C127.452 28.8375 127.059 28.869 126.592 28.848C126.55 28.9322 126.486 28.9953 126.401 29.0373C126.337 29.0584 126.284 29.111 126.242 29.1951C126.263 29.8473 126.231 30.4995 126.146 31.1517C126.061 31.8038 126.051 32.4139 126.114 32.9819C126.072 33.2975 126.061 33.5815 126.082 33.834C126.125 34.0654 126.136 34.2337 126.114 34.3389C126.093 34.5072 126.104 34.6544 126.146 34.7807C126.189 34.8859 126.21 34.9911 126.21 35.0962C126.21 35.1383 126.199 35.1909 126.178 35.254C126.157 35.3171 126.146 35.3803 126.146 35.4434C126.146 35.5275 126.136 35.6011 126.114 35.6643C126.114 35.7063 126.136 35.7695 126.178 35.8536C126.412 35.8536 126.635 35.822 126.847 35.7589C127.08 35.6748 127.325 35.6117 127.579 35.5696C127.749 35.5275 127.919 35.496 128.089 35.4749C128.259 35.4539 128.429 35.4328 128.599 35.4118C128.705 35.3908 128.779 35.3697 128.821 35.3487C128.885 35.3277 128.938 35.3171 128.981 35.3171C129.044 35.2961 129.108 35.2856 129.172 35.2856C129.236 35.2856 129.299 35.2751 129.363 35.254C129.788 35.1699 130.18 35.0857 130.541 35.0016C130.924 34.8964 131.295 34.7491 131.656 34.5598C131.741 34.5387 131.815 34.5282 131.879 34.5282C131.964 34.5072 132.059 34.4861 132.166 34.4651C132.272 34.3599 132.378 34.2442 132.484 34.118C132.611 33.9707 132.76 33.855 132.93 33.7709C132.972 33.7077 132.994 33.6341 132.994 33.55C132.994 33.4658 133.047 33.4132 133.153 33.3922C133.174 33.287 133.195 33.2028 133.217 33.1397C133.259 33.0766 133.302 33.0135 133.344 32.9504C133.408 32.6559 133.418 32.3824 133.376 32.1299C133.355 31.8775 133.376 31.6671 133.44 31.4988Z" fill="#FF4DAD"/>
<path d="M118.883 30.8047C118.862 31.0993 118.862 31.2991 118.883 31.4043C118.905 31.5095 118.883 31.6252 118.82 31.7514C118.777 31.8356 118.692 31.8987 118.565 31.9408C118.459 31.9828 118.384 32.046 118.342 32.1301C118.214 32.088 118.076 32.0775 117.928 32.0986C117.779 32.0986 117.652 32.1196 117.546 32.1617C117.397 32.0354 117.185 31.9828 116.909 32.0039C116.654 32.0249 116.442 31.9723 116.272 31.8461C116.144 31.9092 116.028 31.9408 115.921 31.9408C115.624 31.9828 115.306 31.9723 114.966 31.9092C114.647 31.8461 114.318 31.7935 113.979 31.7514C113.745 31.7304 113.501 31.7199 113.246 31.7199C112.991 31.7199 112.768 31.7199 112.577 31.7199C112.365 31.7619 112.195 31.783 112.068 31.783C111.898 31.7619 111.739 31.7199 111.59 31.6568C111.462 31.5936 111.314 31.5621 111.144 31.5621C111.017 31.5411 110.879 31.5516 110.73 31.5936C110.603 31.6147 110.475 31.6252 110.348 31.6252C110.22 31.6252 110.051 31.6042 109.838 31.5621C109.668 31.5831 109.552 31.5936 109.488 31.5936C109.424 31.5726 109.371 31.5621 109.329 31.5621C109.18 31.5621 109.031 31.5726 108.883 31.5936C108.755 31.6147 108.639 31.5621 108.532 31.4359C108.447 31.499 108.373 31.5411 108.309 31.5621C108.246 31.5831 108.129 31.5936 107.959 31.5936C107.853 31.5726 107.768 31.5621 107.704 31.5621C107.662 31.5411 107.619 31.5305 107.577 31.5305C107.428 31.5726 107.301 31.5831 107.195 31.5621C107.11 31.5411 107.025 31.5726 106.94 31.6568C106.897 31.6147 106.823 31.6042 106.717 31.6252C106.611 31.6252 106.537 31.6042 106.494 31.5621C106.218 31.52 105.995 31.52 105.825 31.5621C105.655 31.6042 105.475 31.6252 105.284 31.6252C105.114 31.6252 104.944 31.6042 104.774 31.5621C104.626 31.52 104.434 31.52 104.201 31.5621C104.095 31.7514 104.052 31.9934 104.074 32.2879C104.116 32.5614 104.201 32.7823 104.328 32.9506C104.35 33.0558 104.339 33.1399 104.296 33.203C104.275 33.2662 104.265 33.3503 104.265 33.4555C104.435 33.6869 104.573 33.8552 104.679 33.9604C104.806 34.0656 104.902 34.1708 104.965 34.276C105.071 34.4443 105.199 34.6021 105.348 34.7493C105.496 34.8966 105.634 35.0649 105.762 35.2542C105.804 35.3594 105.857 35.4436 105.921 35.5067C106.006 35.5698 106.08 35.6539 106.144 35.7591C106.314 35.8012 106.452 35.8643 106.558 35.9485C106.685 36.0326 106.834 36.1273 107.004 36.2325C107.237 36.3587 107.396 36.4744 107.481 36.5796C107.588 36.6638 107.715 36.7374 107.864 36.8005C107.97 36.8426 108.055 36.8636 108.118 36.8636C108.182 36.8426 108.246 36.8426 108.309 36.8636C108.416 36.9057 108.532 36.9793 108.66 37.0845C108.787 37.1897 108.925 37.2528 109.074 37.2739C109.307 37.2528 109.477 37.2528 109.583 37.2739C109.69 37.2739 109.785 37.2844 109.87 37.3054C110.146 37.3265 110.401 37.2633 110.634 37.1161C110.741 37.1161 110.826 37.1161 110.889 37.1161C110.953 37.1161 111.038 37.1056 111.144 37.0845C111.335 36.9583 111.473 36.8952 111.558 36.8952C111.664 36.8952 111.749 36.8741 111.813 36.8321C111.877 36.7689 111.93 36.7374 111.972 36.7374C112.036 36.7164 112.089 36.6953 112.131 36.6743C112.259 36.6322 112.365 36.5796 112.45 36.5165C112.556 36.4534 112.662 36.3797 112.768 36.2956C112.917 36.2114 113.055 36.1168 113.182 36.0116C113.395 35.8854 113.575 35.7065 113.724 35.4751C113.894 35.2437 114.074 35.0438 114.265 34.8755C114.286 34.6231 114.329 34.4127 114.393 34.2444C114.456 34.0761 114.541 33.9183 114.647 33.7711C114.647 33.5396 114.669 33.3608 114.711 33.2346C114.775 33.0873 114.849 32.9506 114.934 32.8244C115.04 32.8033 115.136 32.7823 115.221 32.7612C115.306 32.7402 115.412 32.7507 115.539 32.7928C115.603 32.8349 115.656 32.877 115.698 32.919C115.762 32.9401 115.847 32.9716 115.953 33.0137C116.017 33.0558 116.081 33.0873 116.144 33.1084C116.229 33.1084 116.346 33.1294 116.495 33.1715C116.643 33.2346 116.749 33.2662 116.813 33.2662C116.877 33.2662 116.941 33.2767 117.004 33.2977C117.174 33.3819 117.323 33.4134 117.45 33.3924C117.599 33.3713 117.726 33.3819 117.832 33.4239C118.066 33.5922 118.204 33.7185 118.246 33.8026C118.246 34.0551 118.172 34.2865 118.023 34.4969C117.917 34.7283 117.864 34.8755 117.864 34.9387C117.885 34.9807 117.885 35.0544 117.864 35.1596C117.843 35.2227 117.811 35.2753 117.769 35.3173C117.726 35.3594 117.694 35.4225 117.673 35.5067C117.631 35.6329 117.599 35.7591 117.577 35.8854C117.556 35.9905 117.514 36.1063 117.45 36.2325C117.28 36.4429 117.142 36.6006 117.036 36.7058C116.951 36.79 116.856 36.8531 116.749 36.8952C116.792 37.0004 116.771 37.0845 116.686 37.1476C116.601 37.1897 116.537 37.2318 116.495 37.2739C116.431 37.4211 116.335 37.5368 116.208 37.621C116.102 37.7051 115.974 37.7998 115.826 37.905C115.656 38.0523 115.475 38.1785 115.284 38.2837C115.115 38.3889 114.945 38.4941 114.775 38.5992C114.541 38.7886 114.382 38.9253 114.297 39.0095C114.212 39.0726 114.106 39.1252 113.979 39.1673C113.872 39.2093 113.787 39.2514 113.724 39.2935C113.681 39.3145 113.649 39.325 113.628 39.325C113.522 39.3671 113.405 39.3882 113.278 39.3882C113.15 39.3882 113.023 39.4092 112.896 39.4513C112.662 39.5354 112.46 39.588 112.291 39.6091C112.121 39.6511 111.951 39.6932 111.781 39.7353C111.675 39.7774 111.579 39.8089 111.494 39.83C111.409 39.851 111.282 39.851 111.112 39.83C110.9 39.7879 110.741 39.7984 110.634 39.8615C110.528 39.9246 110.422 39.9141 110.316 39.83C110.082 39.872 109.881 39.9141 109.711 39.9562C109.562 39.9983 109.424 40.0088 109.297 39.9877C109.233 39.9877 109.169 39.9772 109.106 39.9562C109.042 39.9351 108.978 39.9141 108.915 39.8931C108.511 39.83 108.182 39.7879 107.927 39.7668C107.694 39.7458 107.481 39.7037 107.29 39.6406C107.227 39.6196 107.163 39.6091 107.099 39.6091C107.035 39.6091 106.982 39.567 106.94 39.4828C106.728 39.5249 106.526 39.5039 106.335 39.4197C106.165 39.3145 106.027 39.2093 105.921 39.1041C105.857 39.1041 105.793 39.0936 105.73 39.0726C105.687 39.0516 105.634 39.0305 105.57 39.0095C105.422 38.9464 105.273 38.8833 105.125 38.8201C104.976 38.736 104.859 38.6098 104.774 38.4415C104.604 38.4415 104.477 38.3994 104.392 38.3152C104.328 38.2311 104.243 38.1469 104.137 38.0628C103.967 38.0628 103.808 38.0207 103.66 37.9366C103.532 37.8314 103.426 37.7157 103.341 37.5894C103.171 37.379 103.012 37.2107 102.863 37.0845C102.63 36.8531 102.449 36.6638 102.322 36.5165C102.194 36.3482 102.035 36.2325 101.844 36.1694C101.802 36.0431 101.738 35.938 101.653 35.8538C101.568 35.7697 101.483 35.675 101.398 35.5698C101.292 35.3594 101.218 35.2227 101.175 35.1596C101.133 35.0964 101.09 35.0438 101.048 35.0018C101.005 34.8335 100.963 34.6757 100.921 34.5284C100.899 34.3601 100.867 34.1918 100.825 34.0235C100.761 33.7921 100.729 33.6238 100.729 33.5186C100.729 33.4134 100.719 33.3082 100.698 33.203C100.676 33.1399 100.644 33.0768 100.602 33.0137C100.581 32.9506 100.56 32.8875 100.538 32.8244C100.517 32.7192 100.506 32.614 100.506 32.5088C100.528 32.4036 100.528 32.2879 100.506 32.1617C100.485 32.0565 100.464 31.9618 100.443 31.8777C100.422 31.7725 100.411 31.6673 100.411 31.5621C100.411 31.4148 100.422 31.2676 100.443 31.1203C100.464 30.952 100.475 30.7837 100.475 30.6154C100.475 30.5733 100.464 30.5207 100.443 30.4576C100.443 30.3735 100.443 30.3103 100.443 30.2683C100.464 30.1631 100.496 30.0579 100.538 29.9527C100.602 29.8265 100.644 29.7108 100.666 29.6056C100.623 29.4162 100.613 29.2795 100.634 29.1953C100.676 29.1112 100.676 29.0481 100.634 29.006C100.676 28.9639 100.708 28.9113 100.729 28.8482C100.751 28.7641 100.772 28.7009 100.793 28.6589C100.814 28.5958 100.825 28.5221 100.825 28.438C100.825 28.3538 100.846 28.2592 100.889 28.154C100.995 27.9857 101.059 27.891 101.08 27.87C101.122 27.8279 101.154 27.7963 101.175 27.7753C101.197 27.628 101.218 27.5333 101.239 27.4913C101.26 27.4282 101.292 27.3756 101.335 27.3335C101.441 27.1231 101.504 26.9969 101.526 26.9548C101.568 26.9127 101.6 26.8707 101.621 26.8286C101.642 26.6603 101.664 26.5656 101.685 26.5446C101.706 26.5235 101.727 26.492 101.749 26.4499C101.791 26.3237 101.812 26.2185 101.812 26.1343C101.834 26.0291 101.865 25.924 101.908 25.8188C101.95 25.7136 102.003 25.6084 102.067 25.5032C102.131 25.377 102.216 25.2718 102.322 25.1876C102.428 24.9352 102.524 24.7248 102.608 24.5565C102.693 24.3672 102.778 24.1883 102.863 24.02C103.054 23.8728 103.214 23.7045 103.341 23.5151C103.49 23.3258 103.66 23.1575 103.851 23.0102C103.893 22.9681 103.936 22.9471 103.978 22.9471C104.042 22.9261 104.116 22.8945 104.201 22.8524C104.434 22.6841 104.604 22.5579 104.711 22.4738C104.817 22.3686 104.944 22.2844 105.093 22.2213C105.22 22.1792 105.411 22.1582 105.666 22.1582C105.942 22.1371 106.133 22.053 106.239 21.9057C106.367 21.9057 106.494 21.8847 106.621 21.8426C106.749 21.7795 106.876 21.7164 107.004 21.6533C107.089 21.6112 107.184 21.5691 107.29 21.527C107.396 21.4639 107.545 21.4429 107.736 21.4639C107.885 21.485 108.023 21.4955 108.15 21.4955C108.299 21.4745 108.458 21.4429 108.628 21.4008C108.713 21.3798 108.808 21.3587 108.915 21.3377C109.021 21.3167 109.138 21.3062 109.265 21.3062C109.583 21.3482 109.828 21.3693 109.997 21.3693C110.189 21.3693 110.401 21.3798 110.634 21.4008C110.741 21.4008 110.847 21.3903 110.953 21.3693C111.08 21.3272 111.208 21.3062 111.335 21.3062C111.441 21.3272 111.537 21.3377 111.622 21.3377C111.728 21.3377 111.834 21.3482 111.94 21.3693C112.089 21.4113 112.174 21.4324 112.195 21.4324C112.237 21.4324 112.269 21.4324 112.291 21.4324C112.397 21.4534 112.482 21.4955 112.545 21.5586C112.63 21.6007 112.726 21.6428 112.832 21.6848C112.874 21.7269 112.928 21.7479 112.991 21.7479C113.076 21.7479 113.14 21.769 113.182 21.8111C113.267 21.8321 113.395 21.8847 113.565 21.9688C113.713 22.0109 113.851 22.053 113.979 22.0951C114.106 22.1371 114.191 22.2318 114.233 22.3791C114.467 22.4422 114.637 22.5263 114.743 22.6315C114.87 22.7367 114.987 22.8209 115.093 22.884C115.178 22.9471 115.263 23.0418 115.348 23.168C115.433 23.2732 115.529 23.3573 115.635 23.4205C115.656 23.4836 115.677 23.5362 115.698 23.5782C115.741 23.6203 115.773 23.6834 115.794 23.7676C115.964 23.8728 116.112 24.0095 116.24 24.1778C116.367 24.3251 116.548 24.4408 116.781 24.5249C116.845 24.6722 116.919 24.7984 117.004 24.9036C117.089 25.0088 117.142 25.1561 117.163 25.3454C117.206 25.4085 117.248 25.4822 117.291 25.5663C117.355 25.6294 117.418 25.7136 117.482 25.8188C117.503 25.8608 117.535 25.9134 117.577 25.9765C117.641 26.0397 117.684 26.1028 117.705 26.1659C117.811 26.3973 117.928 26.6182 118.055 26.8286C118.098 26.8917 118.151 26.9653 118.214 27.0495C118.299 27.1336 118.363 27.2283 118.406 27.3335C118.427 27.4176 118.437 27.5018 118.437 27.5859C118.437 27.6701 118.448 27.7542 118.469 27.8384C118.512 27.9436 118.544 28.0383 118.565 28.1224C118.586 28.1855 118.607 28.2381 118.629 28.2802C118.671 28.4485 118.682 28.6168 118.66 28.7851C118.639 28.9324 118.639 29.0901 118.66 29.2584C118.682 29.3847 118.692 29.5214 118.692 29.6687C118.713 29.7949 118.735 29.9211 118.756 30.0474C118.756 30.2157 118.767 30.3524 118.788 30.4576L118.883 30.8047ZM114.329 28.2802C114.371 28.2381 114.371 28.1645 114.329 28.0593C114.308 27.9541 114.255 27.8805 114.17 27.8384C114.127 27.6911 114.063 27.607 113.979 27.5859C113.915 27.5439 113.915 27.4808 113.979 27.3966C113.915 27.3335 113.83 27.2809 113.724 27.2388C113.618 27.1967 113.575 27.1126 113.596 26.9864C113.49 27.0074 113.416 26.9864 113.373 26.9233C113.352 26.8391 113.32 26.7865 113.278 26.7655C113.129 26.6603 113.034 26.5551 112.991 26.4499C112.949 26.3447 112.885 26.2606 112.8 26.1974C112.736 26.1554 112.662 26.1554 112.577 26.1974C112.514 26.2185 112.482 26.1659 112.482 26.0397C112.142 26.0607 111.877 26.0081 111.685 25.8819C111.516 25.7346 111.346 25.5768 111.176 25.4085C110.985 25.4506 110.772 25.4611 110.539 25.4401C110.305 25.419 110.082 25.419 109.87 25.4401C109.7 25.3349 109.541 25.2928 109.392 25.3139C109.265 25.3139 109.106 25.2823 108.915 25.2192C108.83 25.1981 108.777 25.1561 108.755 25.093C108.755 25.0088 108.702 24.9667 108.596 24.9667C108.447 25.0298 108.299 25.0298 108.15 24.9667C108.023 24.9036 107.874 24.8615 107.704 24.8405C107.534 24.9457 107.354 25.0193 107.163 25.0614C106.972 25.0824 106.781 25.1245 106.59 25.1876C106.483 25.2297 106.367 25.3349 106.239 25.5032C106.112 25.6505 106.016 25.7557 105.953 25.8188C105.804 25.9871 105.655 26.1554 105.507 26.3237C105.358 26.492 105.22 26.6603 105.093 26.8286C105.114 26.9548 105.103 27.06 105.061 27.1441C105.018 27.2073 105.008 27.2914 105.029 27.3966C104.88 27.5018 104.774 27.6701 104.711 27.9015C104.668 28.1119 104.626 28.3223 104.583 28.5326C104.732 28.5537 104.902 28.5537 105.093 28.5326C105.284 28.5116 105.486 28.4906 105.698 28.4695C105.762 28.4485 105.825 28.438 105.889 28.438C105.974 28.438 106.048 28.438 106.112 28.438C106.43 28.3749 106.706 28.3538 106.94 28.3749C107.174 28.3749 107.386 28.3643 107.577 28.3433C107.789 28.3433 107.991 28.3328 108.182 28.3117C108.394 28.2697 108.585 28.2907 108.755 28.3749C108.989 28.2697 109.254 28.2276 109.552 28.2486C109.87 28.2697 110.125 28.2907 110.316 28.3117C110.486 28.3117 110.581 28.3012 110.603 28.2802C110.624 28.2592 110.645 28.2592 110.666 28.2802C111.282 28.2381 111.887 28.2592 112.482 28.3433C113.097 28.4064 113.713 28.3854 114.329 28.2802Z" fill="white"/>
<path d="M100.694 40.2898C100.694 40.437 100.651 40.5632 100.566 40.6684C100.481 40.7736 100.418 40.8788 100.375 40.984C100.269 41.005 100.163 41.0156 100.057 41.0156C99.9506 41.0366 99.8445 41.0366 99.7383 41.0156C99.6534 41.0156 99.5684 40.9945 99.4835 40.9524C99.4198 40.9314 99.3455 40.8998 99.2606 40.8578C99.1544 40.8367 99.0588 40.8157 98.9739 40.7947C98.9102 40.7947 98.8465 40.7631 98.7828 40.7C98.6554 40.7631 98.5386 40.7841 98.4325 40.7631C98.3263 40.7421 98.2095 40.7526 98.0821 40.7947C98.0184 40.8367 97.9441 40.8683 97.8592 40.8893C97.7955 40.9104 97.7318 40.9419 97.6681 40.984C97.5619 41.005 97.4876 41.0366 97.4452 41.0787C97.4239 41.1207 97.3602 41.1418 97.2541 41.1418C96.9781 41.1418 96.7763 41.0576 96.6489 40.8893C96.5215 40.721 96.3305 40.6053 96.0757 40.5422C95.9695 40.416 95.8527 40.2898 95.7253 40.1635C95.5979 40.0583 95.4493 39.9531 95.2794 39.848C95.237 39.8059 95.2051 39.7533 95.1839 39.6902C95.1839 39.6271 95.1627 39.5745 95.1202 39.5324C94.8017 39.2379 94.5257 38.9854 94.2921 38.775C94.0586 38.5436 93.8356 38.3332 93.6233 38.1439C93.4747 37.9756 93.326 37.8178 93.1774 37.6705C93.05 37.5233 92.9226 37.3445 92.7952 37.1341C92.7315 37.071 92.6572 37.0184 92.5723 36.9763C92.5086 36.9342 92.498 36.8606 92.5404 36.7554C92.4343 36.7554 92.3493 36.7238 92.2856 36.6607C92.2432 36.5766 92.1795 36.5029 92.0945 36.4398C91.9884 36.3136 91.8928 36.2295 91.8079 36.1874C91.723 36.1243 91.6911 36.0401 91.7124 35.9349C91.4788 35.8508 91.2983 35.7245 91.1709 35.5562C91.0648 35.3669 90.9055 35.2196 90.6932 35.1144C90.672 35.0303 90.6401 34.9672 90.5976 34.9251C90.5764 34.883 90.5446 34.8094 90.5021 34.7042C90.3959 34.6832 90.311 34.6411 90.2473 34.578C90.2048 34.5149 90.1093 34.4728 89.9607 34.4518C89.9607 34.3466 89.9182 34.2729 89.8333 34.2309C89.7696 34.1888 89.7165 34.1467 89.674 34.1046C89.6316 34.0626 89.5785 34.01 89.5148 33.9468C89.4511 33.8837 89.3874 33.8417 89.3237 33.8206C89.2388 33.8837 89.2069 33.9679 89.2281 34.0731C89.2494 34.1783 89.26 34.2835 89.26 34.3886C89.2175 34.6621 89.2069 34.8725 89.2281 35.0198C89.2494 35.167 89.1963 35.2722 89.0689 35.3353C89.1114 35.6299 89.1432 35.956 89.1644 36.3136C89.2069 36.6712 89.2175 37.0604 89.1963 37.4812C89.1538 37.6705 89.1432 37.8178 89.1644 37.923C89.2069 38.0071 89.2281 38.0808 89.2281 38.1439C89.1857 38.3122 89.1751 38.4279 89.1963 38.491C89.2388 38.5541 89.26 38.5962 89.26 38.6172C89.26 38.7645 89.2706 38.8697 89.2918 38.9328C89.3343 38.9959 89.3555 39.038 89.3555 39.059C89.3555 39.2063 89.3662 39.322 89.3874 39.4062C89.4299 39.4693 89.4617 39.5324 89.4829 39.5955C89.4405 39.7007 89.3874 39.7743 89.3237 39.8164C89.26 39.8795 89.2069 39.9637 89.1644 40.0689C89.1644 40.1951 89.1963 40.2792 89.26 40.3213C89.3237 40.3634 89.3768 40.4055 89.4192 40.4475C89.5042 40.6789 89.5042 40.8788 89.4192 41.0471C89.3343 41.2365 89.2069 41.3837 89.037 41.4889C88.6761 41.4889 88.3895 41.4258 88.1771 41.2996C87.9648 41.1733 87.7312 41.0681 87.4765 40.984C87.1155 40.984 86.7864 40.984 86.4891 40.984C86.1919 40.984 85.8734 40.9524 85.5337 40.8893C85.4912 40.7841 85.4381 40.6895 85.3744 40.6053C85.3107 40.5422 85.3001 40.4265 85.3426 40.2582C85.3638 40.1951 85.3638 40.132 85.3426 40.0689C85.3426 40.0057 85.3426 39.9216 85.3426 39.8164C85.385 39.6691 85.385 39.5639 85.3426 39.5008C85.3213 39.4588 85.3107 39.4167 85.3107 39.3746C85.247 39.017 85.2364 38.7014 85.2789 38.4279C85.3213 38.1334 85.3638 37.8073 85.4063 37.4496C85.4275 37.2182 85.4275 37.0499 85.4063 36.9447C85.385 36.8185 85.3638 36.7028 85.3426 36.5976C85.3426 36.4924 85.3426 36.3872 85.3426 36.282C85.3638 36.1769 85.3744 36.0717 85.3744 35.9665C85.3532 35.8403 85.3532 35.7456 85.3744 35.6825C85.4169 35.5983 85.4381 35.5352 85.4381 35.4931C85.4381 35.409 85.4169 35.3248 85.3744 35.2407C85.332 35.1565 85.3001 35.0619 85.2789 34.9567C85.2789 34.8725 85.2683 34.7778 85.247 34.6727C85.247 34.5675 85.247 34.4728 85.247 34.3886C85.247 34.2203 85.2364 34.0626 85.2152 33.9153C85.2152 33.747 85.2152 33.5892 85.2152 33.4419C85.2152 33.1895 85.2258 32.895 85.247 32.5584C85.2683 32.2217 85.2683 31.8957 85.247 31.5801C85.2046 31.4328 85.1833 31.3276 85.1833 31.2645C85.2046 31.2014 85.2152 31.1383 85.2152 31.0752C85.2152 30.949 85.1939 30.7807 85.1515 30.5703C85.1302 30.3599 85.1727 30.2021 85.2789 30.0969C85.3001 30.0338 85.2895 29.9707 85.247 29.9076C85.2258 29.8445 85.2152 29.7814 85.2152 29.7182C85.1939 29.6341 85.1939 29.5394 85.2152 29.4342C85.2364 29.308 85.2576 29.1923 85.2789 29.0871C85.2789 29.024 85.2683 28.9609 85.247 28.8978C85.247 28.8136 85.2576 28.74 85.2789 28.6769C85.2576 28.5086 85.2683 28.3718 85.3107 28.2666C85.3532 28.1614 85.385 28.0352 85.4063 27.888C85.4063 27.7828 85.3957 27.6881 85.3744 27.6039C85.3532 27.5198 85.3426 27.4251 85.3426 27.3199C85.3426 27.2568 85.3532 27.1832 85.3744 27.099C85.3957 27.0149 85.4063 26.9413 85.4063 26.8781C85.4487 26.6678 85.47 26.4995 85.47 26.3732C85.47 26.268 85.4487 26.1734 85.4063 26.0892C85.385 25.984 85.3744 25.8788 85.3744 25.7737C85.4169 25.6054 85.4381 25.4791 85.4381 25.395C85.3957 25.1636 85.3744 25.0058 85.3744 24.9216C85.3744 24.8375 85.3744 24.7638 85.3744 24.7007C85.3532 24.6586 85.3213 24.6061 85.2789 24.5429C85.2364 24.4588 85.2152 24.3746 85.2152 24.2905C85.2576 24.1853 85.2683 24.038 85.247 23.8487C85.247 23.6383 85.2258 23.5121 85.1833 23.47C85.1833 23.449 85.1833 23.3859 85.1833 23.2807C85.1833 23.1544 85.1833 23.0282 85.1833 22.902C85.1833 22.7547 85.1833 22.6285 85.1833 22.5233C85.2046 22.3971 85.2152 22.3129 85.2152 22.2709C85.2152 22.0605 85.2152 21.8606 85.2152 21.6713C85.2364 21.4609 85.247 21.2505 85.247 21.0401C85.2258 20.8298 85.1833 20.6299 85.1196 20.4406C85.0772 20.2302 85.0559 20.0198 85.0559 19.8094C85.0559 19.6832 85.0666 19.557 85.0878 19.4308C85.1302 19.2835 85.1621 19.1467 85.1833 19.0205C85.1833 18.8312 85.1621 18.7049 85.1196 18.6418C85.0984 18.5577 85.0878 18.4946 85.0878 18.4525C85.0666 18.3683 85.0559 18.2842 85.0559 18.2C85.0559 18.0948 85.0559 17.9897 85.0559 17.8845C85.0347 17.7793 85.0135 17.6951 84.9922 17.632C84.971 17.5479 84.9604 17.4637 84.9604 17.3796C85.0029 17.1902 85.0135 17.0324 84.9922 16.9062C84.971 16.7589 84.9816 16.6327 85.0241 16.5275C84.9816 16.4434 84.9179 16.4329 84.833 16.496C84.7693 16.5591 84.7162 16.5486 84.6737 16.4644C84.5676 16.1909 84.5464 16.0121 84.61 15.928C84.695 15.8438 84.7162 15.7071 84.6737 15.5177C84.8436 15.4756 85.0029 15.4441 85.1515 15.423C85.3213 15.402 85.4912 15.4441 85.6611 15.5493C85.8309 15.4862 86.0008 15.4336 86.1706 15.3915C86.3405 15.3284 86.5422 15.3179 86.7758 15.3599C86.8182 15.3389 86.8607 15.3179 86.9032 15.2968C86.9669 15.2758 87.0306 15.2442 87.0943 15.2021C87.3915 15.2442 87.6569 15.2758 87.8905 15.2968C88.124 15.2968 88.4213 15.2968 88.7823 15.2968C88.8672 15.3389 88.9309 15.402 88.9734 15.4862C89.0158 15.5703 89.0689 15.6439 89.1326 15.7071C89.0901 15.8543 89.0795 15.9911 89.1007 16.1173C89.122 16.2225 89.1432 16.3592 89.1644 16.5275C89.2069 16.6958 89.2281 16.8641 89.2281 17.0324C89.1432 17.2639 89.1007 17.4637 89.1007 17.632C89.1007 17.7793 89.1007 17.895 89.1007 17.9791C89.0583 18.463 89.0477 18.8627 89.0689 19.1783C89.1114 19.4939 89.1538 19.8094 89.1963 20.125C89.2388 20.2302 89.26 20.388 89.26 20.5983C89.2812 20.7877 89.2918 20.9665 89.2918 21.1348C89.2918 21.261 89.2706 21.3873 89.2281 21.5135C89.2069 21.6187 89.2069 21.7239 89.2281 21.8291C89.2494 22.0394 89.3025 22.2498 89.3874 22.4602C89.4936 22.6706 89.4936 22.8599 89.3874 23.0282C89.4511 23.1755 89.5148 23.3543 89.5785 23.5647C89.6422 23.7751 89.6209 23.9644 89.5148 24.1327C89.6209 24.3641 89.6528 24.5009 89.6103 24.5429C89.5891 24.564 89.5785 24.5955 89.5785 24.6376C89.6846 24.7638 89.7165 24.9532 89.674 25.2056C89.6316 25.4581 89.5997 25.6895 89.5785 25.8999C89.6209 26.0682 89.6316 26.1839 89.6103 26.247C89.5891 26.2891 89.5785 26.3312 89.5785 26.3732C89.5785 26.4784 89.5997 26.5941 89.6422 26.7204C89.7059 26.8255 89.7165 26.9413 89.674 27.0675C89.8227 27.0044 89.9501 26.8887 90.0562 26.7204C90.2685 26.5521 90.449 26.3837 90.5976 26.2154C90.7675 26.0261 90.9268 25.8368 91.0754 25.6474C91.2452 25.5422 91.362 25.4581 91.4257 25.395C91.5106 25.3108 91.5743 25.2477 91.6168 25.2056C91.7442 25.0584 91.8291 24.9742 91.8716 24.9532C91.9353 24.9321 91.9884 24.9006 92.0308 24.8585C92.0945 24.8164 92.137 24.7849 92.1582 24.7638C92.2007 24.7218 92.2856 24.7007 92.413 24.7007C92.6254 24.5745 92.7634 24.4693 92.8271 24.3852C92.912 24.28 93.0288 24.2274 93.1774 24.2274C93.2199 24.0591 93.2836 23.9434 93.3685 23.8802C93.4747 23.8171 93.549 23.7225 93.5914 23.5962C93.6339 23.5542 93.6764 23.5226 93.7188 23.5016C93.7613 23.4595 93.825 23.4385 93.9099 23.4385C93.9949 23.3333 94.101 23.2176 94.2284 23.0913C94.3771 22.9651 94.5257 22.8178 94.6743 22.6495C94.8442 22.4812 94.9609 22.355 95.0246 22.2709C95.0883 22.1657 95.1627 22.0815 95.2476 22.0184C95.3962 21.9132 95.4812 21.8396 95.5024 21.7975C95.5236 21.7554 95.5555 21.7134 95.5979 21.6713C95.7041 21.5661 95.8527 21.4609 96.0438 21.3557C96.2349 21.2295 96.4472 21.2716 96.6808 21.4819C96.8506 21.4399 97.0311 21.4504 97.2222 21.5135C97.4345 21.5766 97.6256 21.6292 97.7955 21.6713C97.9441 21.7134 98.0821 21.7449 98.2095 21.7659C98.3582 21.787 98.4643 21.8606 98.528 21.9868C98.889 21.8396 99.2818 21.8501 99.7064 22.0184C99.7489 22.1236 99.7914 22.2393 99.8338 22.3655C99.8975 22.4707 99.9081 22.639 99.8657 22.8704C99.802 22.9125 99.7383 22.9756 99.6746 23.0598C99.6321 23.1229 99.5366 23.1544 99.3879 23.1544C99.3243 23.1965 99.2712 23.2596 99.2287 23.3438C99.1862 23.4069 99.1332 23.4595 99.0695 23.5016C98.9421 23.5647 98.8465 23.6383 98.7828 23.7225C98.7191 23.7856 98.6554 23.8487 98.5917 23.9118C98.5493 23.9539 98.4856 23.996 98.4006 24.038C98.3157 24.0591 98.2308 24.1011 98.1458 24.1643C98.0184 24.2905 97.9335 24.3746 97.891 24.4167C97.8698 24.4588 97.8486 24.4903 97.8274 24.5114C97.7212 24.6376 97.6363 24.7112 97.5726 24.7323C97.5089 24.7323 97.477 24.7428 97.477 24.7638C97.3708 24.9742 97.2541 25.1636 97.1267 25.3319C96.9993 25.4791 96.84 25.5843 96.6489 25.6474C96.564 25.7526 96.4791 25.8683 96.3941 25.9946C96.3092 26.0997 96.2137 26.1839 96.1075 26.247C96.065 26.2891 96.012 26.3312 95.9483 26.3732C95.8846 26.3943 95.8315 26.4574 95.789 26.5626C95.5979 26.794 95.4175 26.9518 95.2476 27.0359C95.099 27.1201 94.9928 27.2463 94.9291 27.4146C94.7805 27.5829 94.6318 27.6986 94.4832 27.7617C94.3558 27.8248 94.239 27.909 94.1329 28.0142C94.0267 28.2456 93.8781 28.4349 93.687 28.5822C93.4959 28.7295 93.326 28.8872 93.1774 29.0556C92.9439 29.1397 92.8165 29.2344 92.7952 29.3396C92.774 29.4237 92.7315 29.5184 92.6678 29.6236C92.6254 29.6867 92.5617 29.7498 92.4767 29.8129C92.3918 29.855 92.3175 29.9076 92.2538 29.9707C92.1901 30.0128 92.137 30.0654 92.0945 30.1285C92.0733 30.1916 92.0308 30.2442 91.9671 30.2863C92.0521 30.5387 92.1795 30.7386 92.3493 30.8858C92.5192 31.0331 92.6572 31.2224 92.7634 31.4539C92.9545 31.6222 93.1562 31.7694 93.3685 31.8957C93.5808 32.0219 93.7932 32.1797 94.0055 32.369C94.1753 32.4532 94.324 32.5583 94.4514 32.6846C94.5363 32.7687 94.6 32.8634 94.6425 32.9686C94.7062 33.0738 94.7805 33.1684 94.8654 33.2526C94.9291 33.3578 94.9928 33.4525 95.0565 33.5366C95.1414 33.5997 95.2051 33.6839 95.2476 33.7891C95.4175 33.8943 95.5661 34.01 95.6935 34.1362C95.8209 34.2624 95.9483 34.3992 96.0757 34.5464C96.1818 34.6306 96.288 34.7358 96.3941 34.862C96.5003 34.9672 96.5852 35.0934 96.6489 35.2407C96.84 35.3248 96.9993 35.4405 97.1267 35.5878C97.2753 35.714 97.4133 35.8508 97.5407 35.998C97.6681 36.1453 97.7955 36.2926 97.9229 36.4398C98.0503 36.5871 98.2095 36.7028 98.4006 36.787C98.4431 36.9973 98.528 37.1551 98.6554 37.2603C98.7828 37.3655 98.9208 37.4812 99.0695 37.6074C99.0907 37.7547 99.1332 37.8914 99.1969 38.0177C99.2606 38.1229 99.3136 38.2386 99.3561 38.3648C99.5897 38.5121 99.7489 38.6593 99.8338 38.8066C99.9188 38.9328 100.036 39.017 100.184 39.059C100.205 39.2063 100.28 39.3115 100.407 39.3746C100.386 39.4798 100.375 39.5534 100.375 39.5955C100.397 39.6586 100.418 39.7217 100.439 39.7848C100.481 39.89 100.524 39.9742 100.566 40.0373C100.63 40.1004 100.673 40.1846 100.694 40.2898Z" fill="white"/>
<path d="M81.0912 22C81.0912 22.0631 81.0594 22.1473 80.9957 22.2525C80.9532 22.3577 80.932 22.4523 80.932 22.5365C80.9532 22.6838 80.9532 22.7784 80.932 22.8205C80.932 22.8626 80.932 22.9047 80.932 22.9467C80.9532 23.0519 80.9532 23.1256 80.932 23.1676C80.9107 23.2097 80.9107 23.2518 80.932 23.2939C80.9532 23.4201 80.9426 23.5148 80.9001 23.5779C80.8789 23.641 80.8683 23.6936 80.8683 23.7357C80.847 23.7988 80.847 23.8724 80.8683 23.9566C80.8895 24.0197 80.9001 24.0828 80.9001 24.1459C80.8576 24.3142 80.8258 24.4509 80.8046 24.5561C80.8046 24.6403 80.794 24.7034 80.7727 24.7455C80.7727 24.8507 80.7621 24.9664 80.7409 25.0926C80.7409 25.2188 80.7515 25.3556 80.7727 25.5028C80.7727 25.5449 80.7833 25.5975 80.8046 25.6606C80.847 25.7237 80.8683 25.7868 80.8683 25.85C80.8895 26.0814 80.8789 26.3233 80.8364 26.5758C80.8152 26.8282 80.8152 27.0701 80.8364 27.3016C80.8364 27.4068 80.847 27.5014 80.8683 27.5856C80.8895 27.6697 80.8895 27.7644 80.8683 27.8696C80.8683 28.0169 80.847 28.1536 80.8046 28.2798C80.7621 28.4061 80.7303 28.5533 80.709 28.7216C80.7303 28.8478 80.7303 28.9951 80.709 29.1634C80.6878 29.3107 80.709 29.4369 80.7727 29.5421C80.7303 29.6894 80.6772 29.8156 80.6135 29.9208C80.6559 30.2153 80.6453 30.4993 80.5816 30.7728C80.5392 31.0463 80.5179 31.3303 80.5179 31.6248C80.5392 31.73 80.5604 31.8352 80.5816 31.9404C80.6029 32.0246 80.6135 32.1192 80.6135 32.2244C80.6135 32.2665 80.6029 32.3191 80.5816 32.3822C80.5604 32.4453 80.5498 32.5084 80.5498 32.5715C80.5922 32.7609 80.5922 32.8976 80.5498 32.9818C80.5285 33.0659 80.5073 33.129 80.4861 33.1711C80.4648 33.4025 80.4542 33.5919 80.4542 33.7391C80.4542 33.8654 80.4011 34.0126 80.295 34.1809C80.2313 34.2861 80.2207 34.4544 80.2631 34.6858C80.3056 34.8962 80.2738 35.075 80.1676 35.2223C80.2101 35.3485 80.2207 35.4642 80.1994 35.5694C80.1994 35.6746 80.1994 35.8114 80.1994 35.9797C80.2207 36.2742 80.2101 36.4846 80.1676 36.6108C80.1464 36.716 80.1357 36.8212 80.1357 36.9264C80.1145 37.1788 80.1251 37.4208 80.1676 37.6522C80.2101 37.8626 80.2419 38.0729 80.2631 38.2833C80.1782 38.4937 80.1994 38.6725 80.3268 38.8198C80.4542 38.967 80.5179 39.1248 80.5179 39.2931C80.4755 39.3983 80.4436 39.4825 80.4224 39.5456C80.4011 39.6297 80.3905 39.6823 80.3905 39.7034C80.2844 39.7454 80.1888 39.7875 80.1039 39.8296C80.019 39.8927 79.934 39.9348 79.8491 39.9558C79.7854 39.9558 79.7217 39.9453 79.658 39.9243C79.5943 39.9032 79.52 39.8927 79.4351 39.8927C79.3501 39.8717 79.244 39.8717 79.1166 39.8927C79.0104 39.9348 78.9042 39.9558 78.7981 39.9558C78.6919 39.9769 78.5645 39.9769 78.4159 39.9558C78.2885 39.9558 78.1717 39.9769 78.0656 40.0189C77.9382 40.04 77.8108 40.082 77.6834 40.1452C77.5772 40.2083 77.471 40.2398 77.3649 40.2398C77.2163 40.3871 77.0889 40.4502 76.9827 40.4292C76.8765 40.4292 76.8022 40.4397 76.7598 40.4607C76.6324 40.3555 76.5262 40.1872 76.4413 39.9558C76.3563 39.7244 76.3776 39.5456 76.505 39.4193C76.3988 39.1459 76.3776 38.8408 76.4413 38.5042C76.505 38.1676 76.505 37.831 76.4413 37.4944C76.2714 37.5575 76.1122 37.6417 75.9635 37.7468C75.8361 37.852 75.7087 37.9677 75.5813 38.094C75.5176 38.136 75.4646 38.1992 75.4221 38.2833C75.3796 38.3464 75.3159 38.399 75.231 38.4411C75.1461 38.4832 75.0505 38.5252 74.9444 38.5673C74.8382 38.6094 74.7639 38.662 74.7214 38.7251C74.6153 38.7672 74.4985 38.7882 74.3711 38.7882C74.2649 38.7882 74.1588 38.8093 74.0526 38.8513C73.904 38.8934 73.7553 38.9355 73.6067 38.9776C73.4581 38.9986 73.2882 39.0302 73.0971 39.0722C72.9697 39.1143 72.7999 39.1669 72.5875 39.23C72.3752 39.2931 72.1523 39.3036 71.9187 39.2616C71.7489 39.2195 71.6321 39.2195 71.5684 39.2616C71.5259 39.2826 71.4728 39.2931 71.4091 39.2931C71.2393 39.3352 71.0588 39.3142 70.8677 39.23C70.8252 39.3142 70.7191 39.3352 70.5492 39.2931C70.4006 39.251 70.2838 39.209 70.1989 39.1669C70.029 39.23 69.8698 39.2405 69.7211 39.1985C69.5725 39.1564 69.4133 39.1248 69.2434 39.1038C69.1372 39.1038 69.0735 39.0722 69.0523 39.0091C69.0523 38.946 69.0099 38.9039 68.9249 38.8829C68.4578 38.9039 67.9588 38.8513 67.428 38.7251C67.3856 38.641 67.3219 38.5778 67.2369 38.5358C67.1732 38.4937 67.1308 38.4201 67.1095 38.3149C67.0034 38.3359 66.9291 38.3149 66.8866 38.2518C66.8654 38.1886 66.8017 38.1571 66.6955 38.1571C66.653 38.0519 66.5893 37.9783 66.5044 37.9362C66.4407 37.8731 66.3876 37.81 66.3452 37.7468C66.239 37.7468 66.1541 37.7258 66.0904 37.6837C66.0479 37.6417 65.9736 37.6206 65.8674 37.6206C65.74 37.4523 65.6657 37.3576 65.6445 37.3366C65.6233 37.3156 65.602 37.2945 65.5808 37.2735C65.4746 37.1893 65.3897 37.1473 65.326 37.1473C65.2835 37.1473 65.2517 37.1367 65.2304 37.1157C65.1243 37.0105 65.0394 36.9264 64.9757 36.8633C64.912 36.8001 64.8483 36.7265 64.7846 36.6424C64.6572 36.4741 64.551 36.3689 64.4661 36.3268C64.3811 36.2637 64.3493 36.1585 64.3705 36.0112C64.1794 35.885 64.052 35.8008 63.9883 35.7588C63.9459 35.6957 63.9034 35.6325 63.8609 35.5694C63.776 35.4642 63.7229 35.3591 63.7017 35.2539C63.6805 35.1487 63.6274 35.075 63.5425 35.033C63.3938 34.8015 63.277 34.6227 63.1921 34.4965C63.1072 34.3492 62.9904 34.2546 62.8418 34.2125C62.8842 34.1073 62.8842 34.0442 62.8418 34.0231C62.7993 34.0021 62.7887 33.9495 62.8099 33.8654C62.6401 33.7181 62.5127 33.5393 62.4277 33.3289C62.3428 33.1185 62.2685 32.8976 62.2048 32.6662C62.1411 32.4138 62.088 32.1718 62.0456 31.9404C62.0031 31.688 61.9394 31.446 61.8545 31.2146C61.8757 30.9201 61.8863 30.615 61.8863 30.2995C61.8863 29.9628 61.9394 29.6683 62.0456 29.4159C62.1093 29.2686 62.1411 29.1424 62.1411 29.0372C62.1411 28.932 62.1517 28.8268 62.173 28.7216C62.1942 28.6164 62.2048 28.5218 62.2048 28.4376C62.226 28.3324 62.2473 28.2272 62.2685 28.122C62.3322 27.7854 62.3853 27.533 62.4277 27.3647C62.4914 27.1964 62.5764 27.0491 62.6825 26.9229C62.6401 26.7756 62.6401 26.6494 62.6825 26.5442C62.725 26.418 62.7781 26.3128 62.8418 26.2286C62.9055 26.1234 62.9692 26.0183 63.0329 25.9131C63.0966 25.8079 63.1284 25.6922 63.1284 25.5659C63.2346 25.4818 63.3089 25.3871 63.3514 25.2819C63.4151 25.1557 63.4894 25.04 63.5743 24.9348C63.6168 24.8507 63.6698 24.756 63.7335 24.6508C63.7972 24.5456 63.8609 24.4404 63.9246 24.3352C63.9671 24.2721 64.0202 24.209 64.0839 24.1459C64.1688 24.0828 64.2007 23.9986 64.1794 23.8934C64.2431 23.8514 64.2962 23.8093 64.3387 23.7672C64.3811 23.7251 64.4555 23.6831 64.5616 23.641C64.7315 23.3885 64.8695 23.1676 64.9757 22.9783C65.0818 22.7679 65.2092 22.5786 65.3578 22.4103C65.4428 22.3261 65.5171 22.263 65.5808 22.2209C65.6657 22.1578 65.7506 22.0947 65.8356 22.0316C65.878 21.9264 65.9524 21.8633 66.0585 21.8423C66.1859 21.8002 66.2602 21.7265 66.2815 21.6214C66.4938 21.5793 66.7061 21.5372 66.9184 21.4951C67.1308 21.432 67.3219 21.3373 67.4917 21.2111C67.6191 21.1901 67.7465 21.1796 67.8739 21.1796C68.0225 21.1585 68.1499 21.1059 68.2561 21.0218C68.4684 21.0639 68.6383 21.0533 68.7657 20.9902C68.8931 20.9061 69.0099 20.8219 69.116 20.7378C69.4557 20.7378 69.7742 20.7378 70.0715 20.7378C70.39 20.7167 70.7297 20.7167 71.0906 20.7378C71.2605 20.7378 71.4198 20.7272 71.5684 20.7062C71.7382 20.6852 71.8869 20.6852 72.0143 20.7062C72.1204 20.7062 72.216 20.7062 72.3009 20.7062C72.3858 20.7062 72.4602 20.7378 72.5238 20.8009C72.7149 20.7167 72.8954 20.7272 73.0653 20.8324C73.1077 20.8535 73.1608 20.864 73.2245 20.864C73.2882 20.843 73.3732 20.8535 73.4793 20.8955C73.6916 20.9587 73.8297 20.9902 73.8934 20.9902C73.9783 20.9902 74.042 20.9902 74.0844 20.9902C74.2543 21.0744 74.3605 21.127 74.4029 21.148C74.4454 21.169 74.5197 21.2216 74.6259 21.3058C74.9019 21.4741 75.1142 21.6003 75.2629 21.6845C75.4327 21.7476 75.592 21.8317 75.7406 21.9369C75.8468 22.0631 75.9211 22.1368 75.9635 22.1578C76.006 22.1789 76.0485 22.2104 76.0909 22.2525C76.1334 22.2946 76.1759 22.3472 76.2183 22.4103C76.2608 22.4523 76.3139 22.5049 76.3776 22.5681C76.42 22.6522 76.4837 22.7258 76.5687 22.789C76.6536 22.8521 76.7385 22.9257 76.8235 23.0098C76.8659 23.0519 76.8978 23.1045 76.919 23.1676C76.9615 23.2307 77.0145 23.2833 77.0782 23.3254C77.1207 23.3675 77.1844 23.4306 77.2693 23.5148C77.3755 23.5779 77.4286 23.662 77.4286 23.7672C77.5135 23.4727 77.5347 23.1676 77.4923 22.8521C77.4498 22.5155 77.3861 22.2314 77.3012 22C77.2375 21.8738 77.1738 21.7791 77.1101 21.716C77.0464 21.6319 77.0464 21.4951 77.1101 21.3058C77.1313 21.2216 77.1738 21.127 77.2375 21.0218C77.3224 20.9166 77.3861 20.843 77.4286 20.8009C77.4286 20.8219 77.5029 20.843 77.6515 20.864C77.8002 20.864 77.9275 20.864 78.0337 20.864C78.1399 20.885 78.2248 20.9061 78.2885 20.9271C78.3734 20.9271 78.4584 20.9271 78.5433 20.9271C78.7769 20.9271 79.0635 20.9376 79.4032 20.9587C79.7429 20.9797 80.0296 21.0323 80.2631 21.1164C80.433 21.0744 80.571 21.0849 80.6772 21.148C80.7833 21.1901 80.9001 21.2322 81.0275 21.2742C81.0487 21.3584 81.0487 21.432 81.0275 21.4951C81.0275 21.5372 81.0381 21.6003 81.0594 21.6845L81.0912 22ZM76.4731 29.5737C76.4307 29.5105 76.3988 29.4264 76.3776 29.3212C76.3776 29.195 76.3776 29.0793 76.3776 28.9741C76.3351 28.911 76.282 28.8689 76.2183 28.8478C76.1759 28.8058 76.1334 28.7637 76.0909 28.7216C76.0909 28.5533 76.0591 28.4166 75.9954 28.3114C75.9529 28.2062 75.9211 28.101 75.8998 27.9958C75.9423 27.8275 75.9317 27.7118 75.868 27.6487C75.8255 27.5645 75.7937 27.4804 75.7724 27.3962C75.73 27.291 75.7087 27.1859 75.7087 27.0807C75.7087 26.9544 75.6981 26.8282 75.6769 26.702C75.5707 26.6389 75.507 26.5758 75.4858 26.5126C75.4646 26.4495 75.4327 26.3969 75.3903 26.3549C75.2204 26.1866 75.093 26.0603 75.0081 25.9762C74.9231 25.892 74.8382 25.8079 74.7533 25.7237C74.5622 25.5344 74.3605 25.3976 74.1481 25.3135C73.9783 25.2083 73.819 25.1242 73.6704 25.061C73.5218 24.9769 73.3838 24.9033 73.2564 24.8401C73.129 24.777 73.0016 24.7455 72.8742 24.7455C72.7468 24.7455 72.5982 24.7244 72.4283 24.6824C72.3221 24.6403 72.2372 24.6087 72.1735 24.5877C72.1098 24.5456 72.0461 24.5141 71.9824 24.493C71.94 24.493 71.8763 24.5035 71.7913 24.5246C71.7064 24.5246 71.6215 24.5141 71.5365 24.493C71.4728 24.493 71.3985 24.4825 71.3136 24.4615C71.2499 24.4194 71.1968 24.3983 71.1543 24.3983C70.942 24.4404 70.7828 24.4404 70.6766 24.3983C70.5704 24.3352 70.4961 24.3247 70.4537 24.3668C70.2413 24.3878 70.0927 24.4299 70.0078 24.493C69.9441 24.5561 69.8379 24.6298 69.6893 24.7139C69.4982 24.7981 69.3708 24.8612 69.3071 24.9033C69.2646 24.9243 69.2222 24.9453 69.1797 24.9664C68.9674 25.0716 68.8188 25.1557 68.7338 25.2188C68.6489 25.2819 68.5746 25.3345 68.5109 25.3766C68.3623 25.4397 68.2773 25.4923 68.2561 25.5344C68.2349 25.5554 68.203 25.5659 68.1605 25.5659C68.1181 25.6291 68.0756 25.6817 68.0332 25.7237C67.9907 25.7658 67.9482 25.8184 67.9058 25.8815C67.7784 25.9867 67.6722 26.0814 67.5873 26.1655C67.5023 26.2286 67.4386 26.2812 67.3962 26.3233C67.2688 26.4495 67.1201 26.5442 66.9503 26.6073C66.9291 26.8387 66.8547 27.0176 66.7273 27.1438C66.6 27.249 66.5363 27.4173 66.5363 27.6487C66.4513 27.7539 66.3876 27.8591 66.3452 27.9643C66.3027 28.0484 66.2602 28.1431 66.2178 28.2483C66.1753 28.3745 66.1434 28.5112 66.1222 28.6585C66.1222 28.7847 66.101 28.932 66.0585 29.1003C66.0161 29.2265 65.9736 29.3317 65.9311 29.4159C65.8887 29.5 65.8568 29.5947 65.8356 29.6999C65.878 29.9944 65.8674 30.2153 65.8037 30.3626C65.7613 30.4888 65.7294 30.6361 65.7082 30.8044C65.7082 30.8885 65.7188 30.9727 65.74 31.0568C65.7825 31.141 65.8037 31.2356 65.8037 31.3408C65.8037 31.5091 65.7931 31.6354 65.7719 31.7195C65.7506 31.7826 65.74 31.8352 65.74 31.8773C65.7613 32.0246 65.8037 32.1613 65.8674 32.2875C65.9524 32.4138 65.9736 32.561 65.9311 32.7293C66.0798 32.8345 66.2178 32.9397 66.3452 33.0449C66.4726 33.1501 66.6212 33.2447 66.791 33.3289C66.9397 33.5814 67.1202 33.7917 67.3325 33.96C67.5448 34.1283 67.7465 34.2966 67.9376 34.4649C68.1287 34.6753 68.341 34.8226 68.5746 34.9067C68.7657 35.0119 68.9143 35.0856 69.0205 35.1276C69.1479 35.1487 69.2646 35.1697 69.3708 35.1907C69.4345 35.2118 69.5088 35.2433 69.5937 35.2854C69.6999 35.3065 69.7742 35.3275 69.8167 35.3485C70.1776 35.3906 70.5068 35.4537 70.804 35.5379C71.1013 35.601 71.3667 35.6325 71.6002 35.6325C71.6639 35.6536 71.7382 35.6641 71.8232 35.6641C71.9081 35.6431 71.9824 35.622 72.0461 35.601C72.131 35.601 72.216 35.601 72.3009 35.601C72.4071 35.601 72.492 35.5905 72.5557 35.5694C72.7256 35.4853 72.8317 35.4432 72.8742 35.4432C72.9167 35.4432 72.9591 35.4327 73.0016 35.4116C73.0653 35.3906 73.1396 35.3591 73.2245 35.317C73.3095 35.2749 73.3944 35.2959 73.4793 35.3801C73.543 35.2539 73.6279 35.1487 73.7341 35.0645C73.8615 34.9804 73.9783 34.9067 74.0844 34.8436C74.1906 34.7595 74.2862 34.6648 74.3711 34.5596C74.4773 34.4544 74.5409 34.3177 74.5622 34.1494C74.6683 33.9811 74.7639 33.8654 74.8488 33.8022C74.9338 33.7181 75.0081 33.634 75.0718 33.5498C75.1142 33.4867 75.1461 33.4131 75.1673 33.3289C75.2098 33.2237 75.2522 33.1501 75.2947 33.108C75.4009 32.9397 75.4752 32.803 75.5176 32.6978C75.5813 32.5715 75.6663 32.4558 75.7724 32.3506C75.73 32.2455 75.73 32.1508 75.7724 32.0666C75.8361 31.9614 75.8892 31.8668 75.9317 31.7826C76.0378 31.4881 76.1122 31.2146 76.1546 30.9621C76.1971 30.6887 76.2183 30.3731 76.2183 30.0154C76.3245 29.8682 76.4094 29.7209 76.4731 29.5737Z" fill="white"/>
<path d="M61.0245 39.4503C60.9608 39.5765 60.8228 39.7028 60.6105 39.829C60.4406 39.9132 60.3238 39.9763 60.2601 40.0183C60.2177 40.0815 60.1752 40.113 60.1327 40.113C59.8992 40.1551 59.7293 40.1235 59.6232 40.0183C59.3259 40.1025 59.0499 40.134 58.7951 40.113C58.5615 40.092 58.328 40.113 58.0944 40.1761C57.9883 40.1972 57.9033 40.2287 57.8396 40.2708C57.7759 40.3339 57.7016 40.3865 57.6167 40.4286C57.4893 40.4707 57.3725 40.4812 57.2663 40.4601C57.1814 40.4601 57.0752 40.4601 56.9479 40.4601C56.8629 40.397 56.7886 40.3129 56.7249 40.2077C56.6824 40.1235 56.64 40.0289 56.5975 39.9237C56.4277 39.7974 56.3003 39.6712 56.2153 39.545C56.1729 39.5029 56.1304 39.4503 56.0879 39.3872C56.0667 39.3031 56.0349 39.2399 55.9924 39.1979C55.8438 39.0085 55.727 38.8297 55.642 38.6614C55.5571 38.4721 55.4934 38.3143 55.451 38.1881C55.3873 38.1039 55.3129 38.0197 55.228 37.9356C55.1643 37.8514 55.1006 37.7568 55.0369 37.6516C54.9732 37.5674 54.8989 37.4833 54.814 37.3991C54.729 37.2939 54.6653 37.1993 54.6229 37.1151C54.5804 37.031 54.5592 36.9573 54.5592 36.8942C54.5592 36.8101 54.538 36.7259 54.4955 36.6418C54.4318 36.5155 54.3469 36.3998 54.2407 36.2946C54.1558 36.1895 54.1027 36.0527 54.0814 35.8844C53.9965 35.8003 53.9116 35.7161 53.8267 35.632C53.763 35.5268 53.6568 35.4531 53.5082 35.4111C53.4657 35.2638 53.3914 35.1481 53.2852 35.0639C53.2003 34.9587 53.126 34.822 53.0623 34.6537C53.0198 34.5906 52.9561 34.4538 52.8712 34.2435C52.8287 34.1803 52.7969 34.1172 52.7756 34.0541C52.7756 33.97 52.7544 33.8963 52.7119 33.8332C52.6482 33.728 52.5527 33.6439 52.4253 33.5808C52.3191 33.5177 52.2448 33.4019 52.2024 33.2336C52.0325 33.2336 51.9157 33.1916 51.852 33.1074C51.8096 33.0022 51.714 32.9391 51.5654 32.9181C51.4592 32.7077 51.3212 32.5184 51.1513 32.3501C51.0027 32.1818 50.8647 31.9819 50.7373 31.7505C50.4401 31.6032 50.1746 31.4139 49.9411 31.1825C49.7075 30.951 49.4315 30.7512 49.113 30.5829C49.0281 30.3935 48.837 30.2778 48.5397 30.2358C48.4336 30.383 48.3911 30.5618 48.4123 30.7722C48.4336 30.9616 48.423 31.1509 48.3805 31.3402C48.3593 31.5717 48.3168 31.8031 48.2531 32.0345C48.2106 32.2449 48.1575 32.4342 48.0939 32.6025C48.0514 32.7077 48.062 32.7813 48.1257 32.8234C48.1894 32.8444 48.2106 32.9076 48.1894 33.0127C48.1682 33.0759 48.1363 33.1495 48.0939 33.2336C48.0726 33.3178 48.0726 33.4019 48.0939 33.4861C48.0939 33.5913 48.1151 33.6965 48.1575 33.8017C48.2212 33.8858 48.2531 34.0015 48.2531 34.1488C48.2743 34.2961 48.2531 34.4854 48.1894 34.7168C48.1469 34.9482 48.1151 35.1481 48.0939 35.3164C48.1151 35.4847 48.1151 35.5899 48.0939 35.632C48.0939 35.674 48.0939 35.7161 48.0939 35.7582C48.0939 35.9265 48.0939 36.0737 48.0939 36.2C48.0939 36.3262 48.0832 36.4629 48.062 36.6102C48.0832 36.8416 48.0726 37.0205 48.0302 37.1467C47.9877 37.2519 47.9558 37.3571 47.9346 37.4622C47.9771 37.6095 47.9877 37.6937 47.9665 37.7147C47.9452 37.7357 47.9346 37.7673 47.9346 37.8094C47.9346 37.8725 47.9452 37.9356 47.9665 37.9987C47.9877 38.0618 47.9877 38.1144 47.9665 38.1565C47.9452 38.3879 47.9028 38.5667 47.8391 38.693C47.7966 38.8192 47.7966 38.998 47.8391 39.2294C47.8815 39.3767 47.9134 39.4714 47.9346 39.5134C47.9558 39.5765 47.9558 39.6291 47.9346 39.6712C47.9134 39.8185 47.8391 39.9447 47.7117 40.0499C47.5843 40.1551 47.5206 40.2708 47.5206 40.397C47.2658 40.376 47.0322 40.397 46.8199 40.4601C46.6288 40.5233 46.4377 40.5022 46.2466 40.397C46.098 40.4391 45.9175 40.4812 45.7052 40.5232C45.4929 40.5653 45.2911 40.5758 45.1001 40.5548C44.8665 40.4917 44.7072 40.4707 44.6223 40.4917C44.5586 40.5127 44.5055 40.5022 44.4631 40.4601C44.4206 40.0394 44.3675 39.6923 44.3038 39.4188C44.2401 39.1453 44.2932 38.9033 44.4631 38.693C44.4631 38.6298 44.4525 38.5667 44.4312 38.5036C44.41 38.4405 44.41 38.3669 44.4312 38.2827C44.4525 38.0513 44.4418 37.883 44.3994 37.7778C44.3781 37.6726 44.3675 37.578 44.3675 37.4938C44.3888 37.4096 44.41 37.336 44.4312 37.2729C44.4737 37.2098 44.4949 37.1467 44.4949 37.0836C44.5162 36.9784 44.5055 36.8732 44.4631 36.768C44.4206 36.6418 44.3994 36.5155 44.3994 36.3893C44.3994 36.2841 44.41 36.1684 44.4312 36.0422C44.4525 35.916 44.4631 35.8003 44.4631 35.6951C44.4631 35.5899 44.4312 35.4742 44.3675 35.3479C44.3251 35.2217 44.3463 35.0955 44.4312 34.9693C44.4737 34.8851 44.4843 34.7589 44.4631 34.5906C44.4631 34.4223 44.4631 34.254 44.4631 34.0857C44.4631 33.9805 44.4631 33.8858 44.4631 33.8017C44.4843 33.7175 44.5055 33.6228 44.5268 33.5177C44.5268 33.3914 44.5162 33.2757 44.4949 33.1705C44.4949 33.0443 44.4949 32.9286 44.4949 32.8234C44.4949 32.7813 44.5055 32.7287 44.5268 32.6656C44.548 32.5815 44.548 32.5184 44.5268 32.4763C44.4843 32.2869 44.4631 32.1397 44.4631 32.0345C44.4843 31.9293 44.4949 31.8451 44.4949 31.782C44.5162 31.6768 44.5162 31.5717 44.4949 31.4665C44.4949 31.3402 44.5055 31.2035 44.5268 31.0562C44.5268 30.9721 44.5162 30.8879 44.4949 30.8038C44.4737 30.7196 44.4737 30.625 44.4949 30.5198C44.5162 30.3304 44.5162 30.2042 44.4949 30.1411C44.4737 30.078 44.4525 30.0149 44.4312 29.9517C44.4312 29.8886 44.4418 29.8255 44.4631 29.7624C44.4843 29.6993 44.4949 29.6257 44.4949 29.5415C44.4949 29.3732 44.4737 29.1839 44.4312 28.9735C44.3888 28.7631 44.3675 28.5738 44.3675 28.4055C44.41 27.9847 44.3888 27.7533 44.3038 27.7112C44.3463 27.606 44.3781 27.5114 44.3994 27.4272C44.4206 27.3431 44.4418 27.2484 44.4631 27.1432C44.4631 26.9959 44.4525 26.8487 44.4312 26.7014C44.41 26.5541 44.4206 26.3648 44.4631 26.1334C44.4843 26.0913 44.5055 26.0387 44.5268 25.9756C44.5692 25.9125 44.5905 25.8494 44.5905 25.7863C44.5905 25.7021 44.5799 25.618 44.5586 25.5338C44.5374 25.4496 44.5374 25.355 44.5586 25.2498C44.5586 25.0604 44.5692 24.8606 44.5905 24.6502C44.6117 24.4398 44.6436 24.2295 44.686 24.0191C44.7285 23.8297 44.7391 23.693 44.7179 23.6088C44.6966 23.5247 44.686 23.4511 44.686 23.3879C44.686 23.2407 44.7072 23.1039 44.7497 22.9777C44.7922 22.8515 44.7922 22.7042 44.7497 22.5359C44.7497 22.4938 44.7391 22.4412 44.7179 22.3781C44.7179 22.294 44.7179 22.1993 44.7179 22.0941C44.7391 21.8837 44.7391 21.7365 44.7179 21.6523C44.6966 21.5471 44.686 21.4525 44.686 21.3683C44.7285 21.2 44.7391 21.1053 44.7179 21.0843C44.6966 21.0633 44.686 21.0317 44.686 20.9896C44.7285 20.9055 44.7391 20.8529 44.7179 20.8318C44.6966 20.7898 44.686 20.7267 44.686 20.6425C44.7072 20.4742 44.7179 20.3375 44.7179 20.2323C44.7391 20.106 44.7391 19.9377 44.7179 19.7274C44.6754 19.5801 44.6648 19.4959 44.686 19.4749C44.7285 19.4539 44.7391 19.4223 44.7179 19.3802C44.7179 19.3171 44.6966 19.2435 44.6542 19.1593C44.6117 19.0752 44.5692 18.991 44.5268 18.9069C44.5692 18.7807 44.5799 18.6334 44.5586 18.4651C44.5374 18.2968 44.5374 18.1285 44.5586 17.9602C44.5586 17.9181 44.5692 17.8655 44.5905 17.8024C44.6117 17.7182 44.6223 17.6551 44.6223 17.6131C44.5586 17.4448 44.5162 17.329 44.4949 17.2659C44.4949 17.1818 44.4843 17.1187 44.4631 17.0766C44.4418 16.9924 44.41 16.9083 44.3675 16.8241C44.3251 16.74 44.3038 16.6664 44.3038 16.6032C44.3038 16.477 44.3357 16.3613 44.3994 16.2561C44.4631 16.1509 44.5268 16.0457 44.5905 15.9406C44.6329 15.8985 44.6754 15.8669 44.7179 15.8459C44.7816 15.8038 44.8559 15.7933 44.9408 15.8143C44.9833 15.7723 45.0257 15.7302 45.0682 15.6881C45.1319 15.625 45.1956 15.5724 45.2593 15.5303C45.4292 15.4882 45.5566 15.5093 45.6415 15.5934C45.7476 15.6565 45.8538 15.7091 45.96 15.7512C46.1298 15.7091 46.3103 15.6986 46.5014 15.7197C46.6925 15.7197 46.9048 15.6986 47.1384 15.6565C47.3295 15.6145 47.4675 15.6039 47.5524 15.625C47.6374 15.625 47.701 15.625 47.7435 15.625C48.0195 15.5619 48.2425 15.5303 48.4123 15.5303C48.5822 15.5303 48.7308 15.5408 48.8582 15.5619C49.0281 15.5619 49.1236 15.5724 49.1449 15.5934C49.1873 15.6145 49.2298 15.625 49.2723 15.625C49.3784 15.5829 49.474 15.5829 49.5589 15.625C49.6438 15.646 49.7288 15.6671 49.8137 15.6881C49.9836 15.7091 50.1534 15.7197 50.3233 15.7197C50.4931 15.7197 50.663 15.7302 50.8329 15.7512C51.0027 15.7723 51.1726 15.7933 51.3424 15.8143C51.5335 15.8354 51.714 15.8774 51.8839 15.9406C51.9476 15.9616 52.0113 15.9931 52.075 16.0352C52.1387 16.0773 52.2024 16.1089 52.2661 16.1299C52.351 16.1509 52.4465 16.1614 52.5527 16.1614C52.6801 16.1404 52.7969 16.1509 52.903 16.193C53.1366 16.2351 53.3595 16.3087 53.5719 16.4139C53.8054 16.4981 54.039 16.5612 54.2725 16.6032C54.3787 16.6453 54.4955 16.6874 54.6229 16.7295C54.7503 16.7505 54.8671 16.8031 54.9732 16.8873C55.2705 16.8873 55.5359 16.9188 55.7694 16.9819C56.003 17.024 56.2047 17.0871 56.3746 17.1713C56.4807 17.2133 56.5975 17.2554 56.7249 17.2975C56.8735 17.3396 56.9903 17.4027 57.0752 17.4868C57.1814 17.571 57.277 17.6446 57.3619 17.7077C57.4468 17.7708 57.5318 17.8445 57.6167 17.9286C57.7441 18.0338 57.8184 18.118 57.8396 18.1811C57.8821 18.2232 57.9246 18.2652 57.967 18.3073C58.0944 18.4125 58.1687 18.4966 58.19 18.5598C58.2324 18.6229 58.2749 18.665 58.3174 18.686C58.4235 18.7491 58.4978 18.8122 58.5403 18.8753C58.604 18.9174 58.6677 18.949 58.7314 18.97C58.7739 19.1383 58.8482 19.2645 58.9543 19.3487C59.0817 19.4328 59.1985 19.5275 59.3047 19.6327C59.4108 19.822 59.4745 19.9693 59.4958 20.0745C59.517 20.1797 59.5701 20.2533 59.655 20.2954C59.7612 20.653 59.8249 20.9686 59.8461 21.2421C59.8673 21.5156 59.9629 21.726 60.1327 21.8732C60.1115 22.0415 60.1221 22.1993 60.1646 22.3466C60.2283 22.4728 60.292 22.6095 60.3557 22.7568C60.3132 22.862 60.3026 22.9672 60.3238 23.0724C60.3451 23.1565 60.3557 23.2512 60.3557 23.3564C60.3557 23.4616 60.3238 23.5668 60.2601 23.672C60.2177 23.7771 60.2389 23.8718 60.3238 23.956C60.2389 24.2084 60.154 24.4714 60.069 24.7449C60.0054 24.9973 59.8992 25.2393 59.7506 25.4707C59.7081 25.5128 59.6762 25.5654 59.655 25.6285C59.6338 25.6705 59.5701 25.6916 59.4639 25.6916C59.4852 25.8178 59.4639 25.9125 59.4002 25.9756C59.3365 26.0177 59.3047 26.0913 59.3047 26.1965C59.1348 26.3017 58.9968 26.4069 58.8906 26.5121C58.8057 26.5962 58.7102 26.7224 58.604 26.8907C58.5403 26.9749 58.4766 27.038 58.4129 27.0801C58.3704 27.1222 58.2961 27.1747 58.19 27.2379C58.0201 27.3431 57.8927 27.4167 57.8078 27.4588C57.7228 27.5008 57.6485 27.5429 57.5848 27.585C57.4362 27.6481 57.3407 27.7007 57.2982 27.7428C57.277 27.7848 57.2451 27.8164 57.2026 27.8374C57.1389 27.8795 57.0646 27.9216 56.9797 27.9637C56.916 27.9847 56.8523 28.0163 56.7886 28.0583C56.6612 28.1635 56.5657 28.2266 56.502 28.2477C56.4595 28.2687 56.4277 28.2898 56.4064 28.3108C56.2153 28.3949 56.003 28.4791 55.7694 28.5632C55.5571 28.6264 55.3448 28.7315 55.1325 28.8788C55.0263 28.8367 54.9201 28.8473 54.814 28.9104C54.7078 28.9735 54.591 29.0261 54.4636 29.0682C54.2938 29.1102 54.1451 29.1313 54.0178 29.1313C53.9116 29.1102 53.8373 29.1839 53.7948 29.3522C53.7523 29.4994 53.7948 29.6046 53.9222 29.6677C54.0708 29.7308 54.2088 29.815 54.3362 29.9202C54.3787 30.0254 54.4318 30.1306 54.4955 30.2358C54.5804 30.3199 54.6866 30.383 54.814 30.4251C54.9838 30.5934 55.0794 30.7407 55.1006 30.8669C55.1431 30.9931 55.2492 31.0667 55.4191 31.0878C55.4616 31.193 55.5465 31.3297 55.6739 31.498C55.8225 31.6242 55.8968 31.7084 55.8968 31.7505C55.9181 31.7926 55.9393 31.8346 55.9605 31.8767C56.0667 32.045 56.141 32.1397 56.1835 32.1607C56.2259 32.1818 56.2472 32.2133 56.2472 32.2554C56.3321 32.3816 56.417 32.5184 56.502 32.6656C56.6081 32.8129 56.6824 32.9707 56.7249 33.139C56.7886 33.2021 56.8523 33.2652 56.916 33.3283C56.9797 33.3914 57.054 33.4545 57.1389 33.5177C57.1389 33.6018 57.1496 33.6649 57.1708 33.707C57.2133 33.7491 57.2345 33.8122 57.2345 33.8963C57.3619 34.0436 57.4999 34.1909 57.6485 34.3381C57.7972 34.4854 57.9033 34.6747 57.967 34.9062C58.0307 34.9482 58.0838 35.0008 58.1263 35.0639C58.1687 35.106 58.2324 35.1376 58.3174 35.1586C58.3811 35.369 58.4766 35.5583 58.604 35.7266C58.7526 35.8739 58.8906 36.0422 59.018 36.2315C59.0817 36.3367 59.1773 36.4419 59.3047 36.5471C59.3896 36.6523 59.4639 36.768 59.5276 36.8942C59.5913 36.9994 59.6656 37.1046 59.7506 37.2098C59.8567 37.3781 59.931 37.5254 59.9735 37.6516C60.0372 37.7568 60.1221 37.8304 60.2283 37.8725C60.2495 37.9777 60.2814 38.0618 60.3238 38.1249C60.3875 38.167 60.4088 38.2512 60.3875 38.3774C60.4725 38.4195 60.5574 38.4721 60.6423 38.5352C60.7273 38.5772 60.8228 38.6193 60.929 38.6614C60.9714 38.8297 61.0033 38.977 61.0245 39.1032C61.067 39.2084 61.067 39.3241 61.0245 39.4503ZM56.5975 22.7252C56.4914 22.5149 56.4277 22.3676 56.4064 22.2835C56.4064 22.1993 56.3958 22.1362 56.3746 22.0941C56.3533 22.031 56.3109 21.9784 56.2472 21.9363C56.2047 21.8943 56.1622 21.8417 56.1198 21.7785C56.0136 21.5682 55.9181 21.4314 55.8331 21.3683C55.7694 21.3262 55.7164 21.2736 55.6739 21.2105C55.6314 21.1264 55.5783 21.0738 55.5147 21.0527C55.3448 20.9265 55.228 20.8213 55.1643 20.7372C55.1218 20.653 55.0475 20.6215 54.9414 20.6425C54.8989 20.5163 54.8034 20.4426 54.6547 20.4216C54.5273 20.3795 54.4424 20.2954 54.3999 20.1692C54.2301 20.1481 54.0921 20.106 53.9859 20.0429C53.8797 19.9798 53.763 19.9062 53.6356 19.822C53.5719 19.8431 53.5082 19.8746 53.4445 19.9167C53.402 19.9588 53.3277 19.9693 53.2215 19.9483C53.1154 19.9272 53.0198 19.8957 52.9349 19.8536C52.8712 19.8115 52.7863 19.78 52.6801 19.7589C52.4465 19.78 52.2767 19.78 52.1705 19.7589C52.0644 19.7168 51.9794 19.6958 51.9157 19.6958C51.7034 19.6117 51.5335 19.5696 51.4061 19.5696C51.2363 19.5485 51.0558 19.5591 50.8647 19.6011C50.6736 19.6222 50.4825 19.6432 50.2914 19.6642C49.9305 19.6642 49.5801 19.6432 49.2404 19.6011C48.9007 19.5591 48.561 19.5591 48.2212 19.6011C48.1788 19.6853 48.1788 19.7589 48.2212 19.822C48.2849 19.8641 48.3168 19.9377 48.3168 20.0429C48.2956 20.2743 48.2956 20.4426 48.3168 20.5478C48.338 20.632 48.3486 20.7161 48.3486 20.8003C48.3062 20.9686 48.2956 21.0738 48.3168 21.1159C48.338 21.1579 48.3486 21.1895 48.3486 21.2105V21.747C48.3062 22.0205 48.2849 22.294 48.2849 22.5675C48.3062 22.8199 48.3062 23.0829 48.2849 23.3564C48.2849 23.672 48.2743 23.956 48.2531 24.2084C48.2531 24.4398 48.2425 24.6818 48.2212 24.9342C48.2425 25.1656 48.2319 25.3234 48.1894 25.4076C48.1682 25.4707 48.1575 25.5443 48.1575 25.6285C48.1363 25.8388 48.1575 26.0703 48.2212 26.3227C48.4548 26.3858 48.6777 26.4174 48.8901 26.4174C49.1236 26.4174 49.2935 26.4174 49.3997 26.4174C49.5483 26.4384 49.6332 26.4489 49.6544 26.4489C49.6969 26.4279 49.7606 26.4174 49.8455 26.4174C50.0579 26.4384 50.249 26.47 50.4188 26.5121C50.6099 26.5331 50.8116 26.5226 51.024 26.4805C51.1301 26.4805 51.2257 26.4805 51.3106 26.4805C51.4168 26.4595 51.5229 26.4384 51.6291 26.4174C51.7989 26.3543 51.9157 26.3227 51.9794 26.3227C52.0644 26.3227 52.128 26.3227 52.1705 26.3227C52.4041 26.2386 52.5633 26.1965 52.6482 26.1965C52.7332 26.1755 52.7969 26.1544 52.8393 26.1334C53.264 25.9651 53.5719 25.8494 53.763 25.7863C54.0602 25.6811 54.2832 25.6074 54.4318 25.5654C54.6016 25.5233 54.7503 25.4917 54.8777 25.4707C54.9414 25.2813 55.0688 25.1656 55.2599 25.1236C55.451 25.0815 55.5677 24.9447 55.6102 24.7133C55.6739 24.6712 55.7376 24.6502 55.8013 24.6502C55.8862 24.6502 55.9393 24.6081 55.9605 24.524C56.0242 24.3346 56.0879 24.1348 56.1516 23.9244C56.2153 23.714 56.3003 23.5352 56.4064 23.3879C56.3852 23.2196 56.3958 23.1144 56.4383 23.0724C56.502 23.0093 56.555 22.8936 56.5975 22.7252Z" fill="white"/>
<path d="M33.7772 19.6624C33.3984 20.5286 32.4621 21.4842 32.0412 21.8537L25.0142 14.9903C28.3907 11.6809 31.2962 12.838 32.3471 13.6949C34.8511 15.7367 34.2419 18.4851 33.7772 19.6624Z" stroke="white" stroke-width="3.02592" stroke-linecap="round" stroke-linejoin="round"/>
<path d="M30.2656 17.8278C27.6114 14.4471 20.9234 13.7641 17.395 13.907C11.5555 14.1434 7.10745 16.6343 4.76183 18.9334C3.98495 19.6949 3.59852 20.7494 3.50697 21.8341C2.82244 29.9448 4.60494 33.7237 5.62159 35.4777C7.14973 38.1142 11.4519 40.79 13.9751 41.4557C21.1165 43.3398 25.5948 41.7944 27.7481 40.6339C33.1617 37.7163 34.7195 31.4886 34.4633 28.7644C33.8776 22.5358 31.615 19.5466 30.2656 17.8278Z" stroke="white" stroke-width="3.02592" stroke-linecap="round" stroke-linejoin="round"/>
<path fill-rule="evenodd" clip-rule="evenodd" d="M10.6596 14.8998C11.2919 15.4996 11.6197 16.1953 11.6871 16.5084C11.9157 17.5704 12.9703 18.2466 14.0426 18.0187C15.1149 17.7907 15.7989 16.745 15.5703 15.683C15.3154 14.4988 14.5337 13.1252 13.4076 12.057C12.2451 10.9542 10.5449 10.0211 8.42091 10.0992L8.41426 10.0994L8.41426 10.0994C6.99072 10.1565 3.75171 10.8723 1.69699 13.5237C0.824636 14.6494 0.183875 16.3614 0.45245 18.3476C0.72527 20.3651 1.90119 22.4303 4.2357 24.3251C5.08323 25.013 6.33414 24.8893 7.02969 24.0487C7.72524 23.2081 7.60203 21.969 6.75451 21.2811C5.01579 19.8699 4.49898 18.6428 4.38772 17.82C4.27222 16.9658 4.55603 16.2893 4.84507 15.9163C5.9193 14.5302 7.81123 14.0611 8.56599 14.0298C9.35859 14.0017 10.0646 14.3353 10.6596 14.8998Z" fill="white"/>
<path fill-rule="evenodd" clip-rule="evenodd" d="M8.08561 9.78547C8.54033 9.68729 9.0559 9.61452 9.56512 9.73202C9.7595 9.77687 9.93326 9.86208 10.0628 9.92561C10.0689 9.9286 10.0749 9.93154 10.0808 9.93443C10.2268 10.0059 10.3244 10.0511 10.4217 10.0721C10.8191 10.1581 11.2389 10.2766 11.6156 10.3883C11.9969 10.5014 12.3968 10.7247 12.6913 10.8982C12.757 10.9369 12.8266 10.975 12.9034 11.0168L12.9136 11.0224C12.9857 11.0617 13.0638 11.1043 13.1411 11.1492C13.3021 11.2428 13.4793 11.3575 13.6339 11.5081C13.7808 11.6513 13.9108 11.8144 14.0226 11.9548C14.0336 11.9686 14.0444 11.9822 14.0551 11.9955C14.1282 12.0871 14.1946 12.1685 14.2599 12.2405C14.2641 12.2387 14.2684 12.2369 14.2727 12.2351C14.2917 12.2273 14.3276 12.2131 14.3706 12.2038C14.3956 12.1984 14.4213 12.1927 14.4476 12.1868C14.6266 12.1468 14.8361 12.1 15.0806 12.1C15.4065 12.1 15.7277 12.1124 16.0403 12.1245L16.0447 12.1247C16.3612 12.1369 16.669 12.1487 16.9795 12.1487C17.3398 12.1487 17.699 12.1254 18.0738 12.1008L18.0783 12.1005C18.4476 12.0764 18.8321 12.0512 19.2232 12.0512C20.0596 12.0512 20.8825 12.1772 21.6699 12.2978L21.6815 12.2996C22.4827 12.4223 23.2476 12.5388 24.0137 12.5388C24.1333 12.5388 24.2364 12.553 24.3213 12.5678C24.3672 12.5759 24.3986 12.582 24.4251 12.5872C24.4576 12.5936 24.4826 12.5985 24.5178 12.6036C24.5936 12.6145 24.6325 12.6124 24.7 12.5759C24.7517 12.5479 24.7868 12.523 24.8362 12.488C24.8669 12.4663 24.9032 12.4405 24.9525 12.4077C25.064 12.3334 25.21 12.2489 25.4056 12.2065C25.475 12.1915 25.5516 12.1576 25.6683 12.0983C25.6806 12.092 25.6936 12.0853 25.7073 12.0782C25.8066 12.0271 25.9394 11.9588 26.0787 11.9136C26.1716 11.8834 26.2631 11.8465 26.3705 11.8031L26.3769 11.8005C26.4827 11.7578 26.6041 11.709 26.7332 11.6686C26.8593 11.6291 26.9934 11.5968 27.1114 11.5684C27.1449 11.5603 27.1771 11.5526 27.2075 11.5451C27.355 11.5085 27.4774 11.4737 27.5849 11.4265C27.6351 11.4045 27.6862 11.3817 27.7383 11.3584C28.1823 11.1599 28.697 10.9299 29.2935 10.9299C29.4786 10.9299 29.6541 10.9096 29.8538 10.8866C29.9228 10.8786 29.9947 10.8703 30.0709 10.8624C30.3518 10.8332 30.6709 10.813 31.0085 10.8773C31.1284 10.9002 31.2447 10.9229 31.3594 10.9453C31.5831 10.9889 31.8005 11.0314 32.0265 11.0714C32.1897 11.1003 32.344 11.1407 32.4837 11.1784C32.5042 11.1839 32.5243 11.1894 32.544 11.1947C32.6635 11.2272 32.7712 11.2564 32.881 11.2802C33.0771 11.3226 33.2524 11.4247 33.3779 11.5032C33.4326 11.5374 33.4781 11.5671 33.5183 11.5934C33.589 11.6395 33.6435 11.675 33.7031 11.706C33.9086 11.8128 34.0298 11.9369 34.1202 12.0806C34.151 12.1294 34.1791 12.1826 34.1999 12.2219C34.204 12.2297 34.2078 12.2369 34.2113 12.2434C34.2355 12.2887 34.2576 12.3279 34.2859 12.3693C34.3829 12.511 34.4578 12.6623 34.5202 12.7936C34.5342 12.8232 34.5476 12.8516 34.5604 12.8789C34.6083 12.9807 34.6494 13.0681 34.6964 13.1521C34.7324 13.2164 34.7903 13.2861 34.8747 13.3694C34.9297 13.4235 34.9767 13.4658 35.0287 13.5126C35.0677 13.5477 35.1094 13.5852 35.1594 13.6322C35.4428 13.8985 35.7251 14.1637 35.9478 14.577C36.1564 14.964 36.2381 15.3007 36.3231 15.6509C36.3338 15.695 36.3445 15.7394 36.3556 15.784C36.4541 16.1816 36.4498 16.5915 36.4461 16.9427C36.4455 17.0068 36.4448 17.069 36.4448 17.1288C36.4448 17.3155 36.4565 17.5038 36.4691 17.707L36.4693 17.7107C36.4817 17.9088 36.4949 18.1211 36.4949 18.3368C36.4949 18.7505 36.472 19.2471 36.3539 19.6908C36.3259 19.7961 36.2912 19.9001 36.2611 19.9907C36.2558 20.0065 36.2507 20.0218 36.2458 20.0367C36.2107 20.1429 36.1826 20.2331 36.164 20.3212C36.1516 20.3799 36.1464 20.436 36.1394 20.5136C36.1359 20.5512 36.132 20.5939 36.1266 20.6443C36.1127 20.7744 36.0878 20.9537 36.0053 21.1233C35.9675 21.2011 35.9165 21.2834 35.8818 21.3392C35.8717 21.3556 35.8629 21.3698 35.8563 21.3808C35.8187 21.4439 35.8028 21.4804 35.7952 21.5129C35.7767 21.5922 35.7399 21.6552 35.7175 21.6903C35.6917 21.7308 35.6624 21.7686 35.6352 21.8012C35.5822 21.8647 35.5191 21.9297 35.4606 21.9872C35.5983 22.1888 35.6858 22.4209 35.7451 22.6165C35.8466 22.9517 35.9002 23.3056 35.9344 23.5318C35.9363 23.5444 35.9382 23.5566 35.94 23.5684C36.0016 23.974 36.1034 24.3636 36.2101 24.7726C36.2648 24.982 36.3208 25.1964 36.3734 25.4206C36.526 26.0711 36.6331 26.7609 36.7371 27.4312C36.8012 27.8442 36.8642 28.2498 36.9359 28.6342C37.0307 29.1422 37.0454 29.6967 37.0454 30.1789C37.0454 30.836 36.9959 31.5291 36.8053 32.1977C36.7707 32.3189 36.7393 32.4499 36.7057 32.5927L36.6953 32.6372C36.6654 32.7647 36.6335 32.9005 36.5979 33.035C36.5189 33.3331 36.4131 33.6592 36.2357 33.9438C36.1478 34.0849 36.0978 34.2519 36.0296 34.4797C36.0173 34.5207 36.0044 34.5637 35.9906 34.6089C35.9096 34.874 35.7949 35.2145 35.5335 35.4833C35.3738 35.6475 35.2621 35.8616 35.1352 36.1373C35.1211 36.168 35.1067 36.1997 35.0919 36.2323C34.9829 36.4721 34.8534 36.7571 34.6686 37.0046C34.6321 37.0535 34.5993 37.1117 34.5555 37.1945C34.5512 37.2028 34.5467 37.2113 34.542 37.2202C34.504 37.2924 34.4553 37.3851 34.3969 37.4726C34.3428 37.5537 34.2806 37.6257 34.2377 37.6754C34.23 37.6843 34.223 37.6924 34.2167 37.6998C34.1696 37.7552 34.1438 37.7899 34.1248 37.8269C34.0609 37.9513 33.9713 38.1017 33.8689 38.2436C33.77 38.3808 33.6423 38.5339 33.4983 38.643C33.4329 38.6925 33.3686 38.7637 33.2937 38.8639C33.2582 38.9114 33.2237 38.9606 33.1853 39.0154L33.1797 39.0234C33.1404 39.0794 33.0968 39.1415 33.0508 39.2018C32.8545 39.4593 32.6232 39.6843 32.4153 39.8865C32.4011 39.9003 32.387 39.914 32.3731 39.9276C32.2072 40.0892 32.0514 40.2584 31.8875 40.4365C31.838 40.4902 31.7878 40.5448 31.7364 40.6001C31.5195 40.8336 31.286 41.0757 31.0226 41.2928C30.9717 41.3348 30.9183 41.3804 30.8622 41.4283C30.54 41.7033 30.1303 42.0531 29.6192 42.2063C29.4332 42.2621 29.2728 42.3185 29.1543 42.3927C29.0381 42.4655 28.9084 42.5116 28.8289 42.5399C28.8166 42.5442 28.8056 42.5481 28.7959 42.5517C28.7047 42.5852 28.6771 42.6025 28.662 42.6164C28.557 42.7133 28.417 42.8177 28.2744 42.9071C28.1348 42.9945 27.9677 43.0833 27.8087 43.132C27.7341 43.1548 27.6487 43.2021 27.5267 43.2808C27.5079 43.2929 27.4876 43.3062 27.4661 43.3203C27.3666 43.3856 27.241 43.468 27.1157 43.5291C26.8761 43.6458 26.6001 43.709 26.3853 43.7582C26.3317 43.7704 26.2819 43.7818 26.2375 43.793C26.081 43.8322 25.9242 43.8822 25.7529 43.9371L25.7449 43.9397C25.5799 43.9925 25.4012 44.0498 25.2179 44.0961C24.8514 44.1887 24.4533 44.2561 24.0757 44.3201C23.8587 44.3569 23.6485 44.3925 23.4549 44.431C22.8582 44.55 22.2926 44.6229 21.6643 44.6229C21.5596 44.6229 21.4485 44.6271 21.3275 44.6322L21.2853 44.634C21.1787 44.6385 21.0649 44.6434 20.9514 44.6454C20.6963 44.6499 20.4109 44.6413 20.1384 44.5731L20.0887 44.5606C19.7056 44.4645 19.3655 44.3791 19.0341 44.3791C18.7928 44.3791 18.5536 44.4015 18.2935 44.4261L18.2842 44.427C18.0325 44.4508 17.7601 44.4767 17.48 44.4767C16.9749 44.4767 16.4706 44.4317 15.9885 44.3795C15.6856 44.3467 15.3902 44.2303 15.1424 44.1222C15.0612 44.0867 14.9858 44.0526 14.9146 44.0203C14.7492 43.9455 14.6062 43.8808 14.4639 43.8328C14.277 43.7698 14.075 43.7061 13.8682 43.6409C13.5555 43.5422 13.2316 43.4401 12.9318 43.3314C12.7409 43.2622 12.5372 43.2126 12.3081 43.1567C12.2491 43.1423 12.1884 43.1275 12.1259 43.1118C11.8357 43.0393 11.5117 42.9496 11.2173 42.7951C11.026 42.6948 10.8361 42.6076 10.6366 42.5161C10.5687 42.4849 10.4997 42.4532 10.4291 42.4204C10.1581 42.2941 9.8745 42.1544 9.598 41.9748C9.31838 41.7932 9.07463 41.5877 8.84958 41.3861C8.7675 41.3126 8.69 41.2416 8.61425 41.1723C8.47479 41.0445 8.34126 40.9223 8.19598 40.7996C7.98187 40.6188 7.755 40.4483 7.51709 40.2695C7.45645 40.2239 7.39509 40.1778 7.33304 40.1309C7.03354 39.9042 6.72338 39.6616 6.4431 39.3885C6.11903 39.0728 5.77577 38.7696 5.42368 38.4609C5.39636 38.437 5.36899 38.413 5.34156 38.3889C5.01789 38.1053 4.68753 37.8158 4.37021 37.5153C3.94917 37.1165 3.71046 36.6862 3.48158 36.2737C3.42691 36.1751 3.37279 36.0776 3.31688 35.9817C2.98229 35.408 2.793 34.7557 2.62158 34.1649C2.56978 33.9864 2.51961 33.8135 2.46756 33.6501C2.43135 33.5364 2.40499 33.4233 2.3825 33.3268C2.35884 33.2253 2.33904 33.1404 2.31398 33.0603C2.30269 33.0241 2.28058 32.9866 2.22059 32.8908L2.2176 32.886C2.16775 32.8064 2.08571 32.6754 2.04616 32.5142C2.0141 32.3836 1.97335 32.2627 1.92719 32.1257C1.91002 32.0748 1.89211 32.0216 1.87362 31.9649C1.80928 31.7677 1.74349 31.5417 1.7222 31.2928C1.66865 30.6668 1.58875 30.0489 1.50769 29.4221C1.478 29.1925 1.44815 28.9617 1.41939 28.7289C1.31298 27.8675 1.22312 26.9896 1.22312 26.0943C1.22312 25.976 1.22093 25.8505 1.21867 25.721C1.21358 25.4289 1.20814 25.1164 1.22664 24.8189C1.24039 24.5978 1.2721 24.3824 1.30101 24.1859C1.30453 24.1621 1.308 24.1385 1.31139 24.1152C1.34367 23.8937 1.36993 23.6936 1.37331 23.4929C1.38065 23.0566 1.54638 22.5518 1.66861 22.2116C1.6776 22.1865 1.68659 22.1619 1.69549 22.1375C1.72626 22.0531 1.75594 21.9718 1.78096 21.8876C1.81411 21.7761 1.82542 21.7019 1.82392 21.661C1.81866 21.5174 1.75959 21.3671 1.65179 21.1626C1.63296 21.1269 1.61168 21.088 1.58901 21.0466C1.49773 20.8798 1.38388 20.6718 1.31675 20.4625C1.2972 20.4016 1.27245 20.345 1.2392 20.2689C1.2292 20.2461 1.21843 20.2214 1.20681 20.1944C1.16179 20.0898 1.10642 19.9535 1.07902 19.8C1.06368 19.714 1.04907 19.6132 1.03568 19.5209C1.02757 19.465 1.01992 19.4121 1.01282 19.3676C0.991249 19.2322 0.967437 19.1168 0.932647 19.0151C0.816707 18.6763 0.704736 18.3058 0.639485 17.9323C0.606222 17.7419 0.599952 17.5508 0.594676 17.3899C0.594378 17.3808 0.594083 17.3718 0.593787 17.3629C0.587903 17.1865 0.581417 17.0433 0.554852 16.9087C0.495452 16.6078 0.479597 16.2202 0.519541 15.8477C0.558512 15.4843 0.656536 15.0772 0.869801 14.777C0.949699 14.6646 1.0565 14.4077 1.11757 14.2226C1.32997 13.5788 1.75956 12.908 2.23945 12.4316C2.40695 12.2654 2.57936 12.1044 2.74776 11.9479C2.76155 11.935 2.77531 11.9222 2.78904 11.9095C2.94436 11.7651 3.09573 11.6245 3.24297 11.481C3.44052 11.2886 3.65144 11.1914 3.83052 11.1209C3.88181 11.1007 3.92785 11.0834 3.97039 11.0675C4.08675 11.0238 4.17695 10.9899 4.27708 10.933C5.03391 10.5029 5.95971 10.1899 6.8284 10.067C7.01135 10.0412 7.20654 9.99731 7.41983 9.94526C7.4744 9.93195 7.53065 9.91796 7.58806 9.90369C7.74857 9.86378 7.91815 9.82162 8.08561 9.78547Z" fill="white"/>
<path d="M33.043 19.617C32.696 20.4193 31.8381 21.3044 31.4525 21.6466L25.0142 15.2896C28.1078 12.2243 30.7699 13.2961 31.7327 14.0898C34.027 15.9809 33.4688 18.5265 33.043 19.617Z" fill="#FF4DAD"/>
<path fill-rule="evenodd" clip-rule="evenodd" d="M29.1825 13.9576C30.158 13.9443 30.9015 14.3347 31.2711 14.6395C33.189 16.2203 32.764 18.3408 32.3747 19.3464C32.2402 19.6521 31.9923 20.0076 31.7074 20.3466C31.6215 20.449 31.5352 20.5463 31.452 20.6363L26.0554 15.3079C27.2737 14.277 28.3478 13.969 29.1825 13.9576ZM29.1626 12.5273C27.7714 12.5463 26.1601 13.1426 24.5038 14.7838C24.3682 14.918 24.2922 15.1002 24.2923 15.2901C24.2925 15.48 24.3689 15.6621 24.5047 15.7961L30.943 22.1531C31.2142 22.4208 31.6491 22.4323 31.9342 22.1792C32.1524 21.9855 32.4879 21.6536 32.8171 21.2617C33.1408 20.8763 33.4928 20.3926 33.7065 19.8986C33.7099 19.8908 33.7132 19.8829 33.7163 19.8749C34.1772 18.6945 34.8571 15.7347 32.1944 13.5398L32.1944 13.5398C31.6013 13.0509 30.5322 12.5086 29.1626 12.5273Z" fill="#1B1F28"/>
<path d="M29.9478 15.401C28.9235 14.9638 28.0035 15.5961 27.5384 16.333L30.2095 20.6658C30.5111 20.4551 30.7679 20.1815 30.931 19.8517C32.2461 17.191 31.0602 16.0509 29.9478 15.401Z" fill="#B21A6C"/>
<path d="M29.3378 18.8458C26.9198 15.8036 20.8193 15.195 17.6003 15.327C12.3727 15.5415 8.3651 17.7098 6.19282 19.7495C5.39258 20.5009 5.00089 21.566 4.89796 22.6592C4.21822 29.8787 5.1846 33.492 6.10287 35.058C7.49432 37.431 12.1105 39.5712 14.4116 40.1683C20.9246 41.8583 25.0529 40.4351 27.0185 39.3879C31.9601 36.755 33.3872 31.1399 33.2415 28.8244C32.7134 23.2154 30.5671 20.3925 29.3378 18.8458Z" fill="#FF4DAD"/>
<path d="M17.775 41.1725C9.29494 38.3913 4.59551 30.194 4.59551 24.2139L4.03189 28.5594L6.02269 34.8317L10.4344 39.8301L17.775 41.1725Z" fill="#B21A6C"/>
<path d="M28.6141 20.6388C28.2423 20.3104 27.485 19.8945 26.4707 20.483" stroke="#1B1F28" stroke-width="0.962793" stroke-linecap="round" stroke-linejoin="round"/>
<path d="M17.4872 19.9681C17.1109 19.456 15.7226 18.7 14.1356 19.6697" stroke="#1B1F28" stroke-width="0.962793" stroke-linecap="round" stroke-linejoin="round"/>
<ellipse cx="1.71431" cy="2.06474" rx="1.71431" ry="2.06474" transform="matrix(-0.997226 0.0744378 0.0758148 0.997122 17.4239 21.3657)" fill="#1B1F28" stroke="#1B1F28" stroke-width="1.10034" stroke-linecap="round" stroke-linejoin="round"/>
<ellipse cx="0.940426" cy="1.77922" rx="0.940426" ry="1.77922" transform="matrix(-0.996533 0.0832033 0.0847402 0.996403 28.3431 22.229)" fill="#1B1F28" stroke="#1B1F28" stroke-width="1.10034" stroke-linecap="round" stroke-linejoin="round"/>
<path d="M22.7866 25.0533C24.7733 24.7649 26.3834 25.3944 27.3949 26.0748C27.7603 26.3205 28.0989 26.7257 27.9661 27.1459C27.6887 28.0239 25.8594 27.8279 24.6685 27.6134C22.575 27.101 21.9784 26.3187 21.9918 25.7167C22.0004 25.3284 22.4022 25.1091 22.7866 25.0533Z" fill="#1B1F28" stroke="#1B1F28" stroke-width="1.10034" stroke-linecap="round" stroke-linejoin="round"/>
<path d="M20.5367 34.9034L16.7761 28.5611C16.7018 28.4359 16.7076 28.2686 16.8248 28.1825C17.1247 27.9624 17.2901 28.2785 17.5186 28.5448C19.5621 30.9263 21.3493 31.2733 22.9769 31.6887C24.3962 32.0509 26.6036 31.9704 27.5133 31.9584C27.026 33.7408 25.8126 35.4467 25.2668 36.0768C23.8664 37.6936 21.2714 36.2407 20.5367 34.9034Z" fill="#1B1F28" stroke="#1B1F28" stroke-width="1.10034" stroke-linecap="round" stroke-linejoin="round"/>
<path d="M22.4034 33.9017C25.1858 33.8527 25.5784 35.2204 25.4108 35.8055C25.2187 36.4757 23.7596 37.4611 21.3128 35.6148C21.08 35.4391 20.884 35.2176 20.7206 34.976L18.8042 32.1436C20.7343 33.8982 21.557 33.9166 22.4034 33.9017Z" fill="#FF4DAD" stroke="#1B1F28" stroke-width="0.22993" stroke-linecap="round" stroke-linejoin="round"/>
<path d="M28.0672 26.1222C28.8545 26.5744 29.9691 27.0612 30.0567 29.155C30.1072 30.3654 29.1389 31.7072 27.4306 31.9597" stroke="#1B1F28" stroke-width="1.10034" stroke-linecap="round" stroke-linejoin="round"/>
<path d="M16.1557 25.5911C18.6206 24.8648 21.2016 24.5442 23.8538 24.6507C25.0751 24.6997 26.7809 25.1755 27.6442 25.8584" stroke="#1B1F28" stroke-width="1.10034" stroke-linecap="round" stroke-linejoin="round"/>
<path d="M15.9494 23.1631C16.8434 22.6583 16.4694 21.8956 16.0097 21.4907C15.85 21.35 15.6404 21.2716 15.4287 21.2904C15.1637 21.3139 14.9234 21.4214 14.7392 21.5658C14.538 21.7235 14.4606 21.9866 14.4816 22.2416C14.5769 23.4037 15.4371 23.385 15.9494 23.1631Z" fill="white" stroke="#1B1F28" stroke-width="0.275084" stroke-linecap="round" stroke-linejoin="round"/>
<path d="M27.7611 23.656C28.5515 23.3257 28.3415 22.6896 28.0042 22.3097C27.8653 22.1533 27.6661 22.0567 27.4572 22.0609C27.2676 22.0647 27.0882 22.1169 26.9374 22.1966C26.7071 22.3182 26.5917 22.578 26.5939 22.8385C26.6016 23.7386 27.3133 23.7915 27.7611 23.656Z" fill="white" stroke="#1B1F28" stroke-width="0.275084" stroke-linecap="round" stroke-linejoin="round"/>
<path d="M27.3243 26.695C25.7595 25.6906 24.189 25.6305 23.1001 25.8354C22.8185 25.8884 22.6509 25.6135 22.9154 25.503C23.962 25.0657 25.4008 25.2874 26.149 25.5147C26.9624 25.7964 27.3891 26.18 27.5933 26.5037C27.7118 26.6917 27.5113 26.8151 27.3243 26.695Z" fill="white" stroke="white" stroke-width="0.137542" stroke-linecap="round" stroke-linejoin="round"/>
<path fill-rule="evenodd" clip-rule="evenodd" d="M24.0975 14.5031C21.7182 13.9526 19.2549 13.8275 17.5403 13.8978C12.2513 14.1148 8.09014 16.1996 5.61586 18.3366C4.16437 19.5902 3.54655 21.3804 3.43065 23.049C2.93548 30.1781 4.59585 33.5921 5.62769 35.3519C6.47335 36.7941 7.98289 38.1633 9.48865 39.2204C11.0003 40.2816 12.7072 41.167 14.0871 41.5251C20.9747 43.3122 25.4352 41.8554 27.702 40.6477C30.5092 39.1521 32.2936 36.8225 33.3387 34.5698C34.3706 32.3455 34.7366 30.078 34.5936 28.5586L33.1562 28.6915C33.3871 31.1447 31.9599 36.755 27.0183 39.3879C25.0528 40.4351 20.9658 41.8313 14.4528 40.1413C12.1517 39.5442 8.26744 37.0063 6.87599 34.6333C5.97907 33.1036 4.39688 29.9721 4.87093 23.1472C4.96926 21.7315 5.48488 20.3473 6.56448 19.4148C8.80584 17.479 12.6577 15.5298 17.6001 15.327C20.8191 15.195 26.9196 15.8036 29.3376 18.8458C30.567 20.3925 32.6281 23.0824 33.1562 28.6915L34.5936 28.5586C34.0304 22.5765 31.7987 19.6301 30.4718 17.9608C28.9541 16.0513 26.4252 15.0417 24.0975 14.5031Z" fill="#1B1F28"/>
<path d="M22.7455 34.0553C20.6303 33.9354 20.0245 33.277 19.5894 32.9932L20.9426 34.9904L22.099 34.9429L22.7455 34.0553Z" fill="#FF4DAD"/>
<path d="M4.98168 21.6838L13.0098 16.0505L12.5093 14.9739L10.9766 13.3733L9.58124 12.858L7.31162 13.0432L4.96273 14.1918L3.70461 15.8121L3.3718 17.8678L3.92483 20.0529L4.98168 21.6838Z" fill="#FF4DAD"/>
<path d="M13.0602 16.3378C12.774 14.9628 11.0852 12.5388 8.48356 12.6395C7.51347 12.6804 5.22402 13.2262 3.8269 15.0824C2.79025 16.4597 2.17445 19.4711 5.80328 22.5043" stroke="#1B1F28" stroke-width="1.10034" stroke-linecap="round" stroke-linejoin="round"/>
<path d="M7.48224 15.1837C9.4698 14.3257 10.7583 15.6012 11.2804 16.555C11.3712 16.7209 11.3141 16.924 11.1624 17.0373L7.57597 19.7186C7.29589 19.9367 7.0079 20.0741 6.78123 19.677C5.21608 16.9352 6.59643 15.539 7.48224 15.1837Z" fill="#B21A6C"/>
</g>
</svg>
