<svg width="25" height="25" viewBox="0 0 25 25" fill="none" xmlns="http://www.w3.org/2000/svg">
<path opacity="0.8" d="M20.7222 16.7059C20.7222 19.7143 18.2408 22.1574 15.1845 22.1574H4.72221V18.5167H15.1845C16.1905 18.5167 17.0048 17.7023 17.0048 16.6963C17.0048 15.6903 16.1905 14.876 15.1845 14.876H11.4959V11.2448H15.1845C16.1905 11.2448 17.0048 10.4304 17.0048 9.42446C17.0048 8.41847 16.1905 7.6041 15.1845 7.6041H4.72221V3.96338H15.1845C18.2408 3.97296 20.7222 6.41607 20.7222 9.42446C20.7222 10.7754 20.224 12.0688 19.3138 13.0652C20.224 14.0616 20.7222 15.3646 20.7222 16.7059Z" fill="#BDB9B9"/>
<path opacity="0.12" d="M4.72221 18.5167H13.709C11.8025 20.7203 8.76533 22.1574 5.34497 22.1574C5.13419 22.1574 4.93299 22.1478 4.73179 22.1382C4.72221 22.1478 4.72221 18.5167 4.72221 18.5167ZM15.5869 14.876H12.109V11.2448H15.5869C15.8647 12.4424 15.8647 13.6879 15.5869 14.876ZM13.709 7.6041H4.72221V3.98254C4.92341 3.97296 5.13419 3.96338 5.33539 3.96338C8.75575 3.97296 11.7929 5.4005 13.709 7.6041Z" fill="black"/>
<path d="M4.72221 3.97314C9.81922 3.97314 13.9486 8.045 13.9486 13.0654C13.9486 18.0857 9.81922 22.1576 4.72221 22.1576V18.5169C7.7785 18.5169 10.2599 16.0737 10.2599 13.0654C10.2599 10.057 7.7785 7.61386 4.72221 7.61386V3.97314Z" fill="#BDB9B9"/>
</svg>
