<svg width="25" height="25" viewBox="0 0 25 25" fill="none" xmlns="http://www.w3.org/2000/svg">
<path d="M20.6899 8.34597C20.6899 8.26322 20.6899 8.26115 20.6015 8.26115C20.3941 8.25952 20.1871 8.24222 19.9824 8.20943C19.2392 8.09772 16.8241 6.85643 16.4177 4.8228C16.369 4.57199 16.3366 4.31839 16.3208 4.06354C16.3208 3.96631 16.3208 3.96631 16.2219 3.96424H13.3246C13.133 3.96424 13.1604 3.94148 13.1604 4.12974V16.195C13.1636 16.3446 13.153 16.4942 13.1288 16.6419C13.0709 16.989 12.9422 17.3211 12.7504 17.6181C12.5585 17.9151 12.3076 18.1709 12.0125 18.3701C11.7175 18.5694 11.3845 18.7079 11.0336 18.7775C10.6826 18.847 10.321 18.8461 9.97041 18.7748C9.75735 18.7247 9.54943 18.6554 9.34926 18.568L9.29873 18.5245C9.23128 18.4699 9.161 18.4188 9.08817 18.3714C8.21435 17.7777 7.79956 16.9522 7.92589 15.9199C8.05223 14.8875 8.66706 14.1614 9.67563 13.7952C9.97636 13.6862 10.2969 13.6397 10.6168 13.6587C10.8246 13.666 11.0309 13.6965 11.2316 13.7497C11.3011 13.7704 11.339 13.7497 11.3432 13.6732C11.3432 13.6483 11.3432 13.6235 11.3432 13.5966C11.3432 12.8746 11.3159 11.2982 11.3117 11.294C11.3117 11.0871 11.3117 10.8803 11.3117 10.6734C11.3117 10.6134 11.2822 10.603 11.2295 10.5968C10.4471 10.5001 9.65281 10.5616 8.89542 10.7774C8.13804 10.9933 7.43356 11.359 6.82524 11.8521C6.21692 12.3451 5.7176 12.9552 5.35795 13.6447C4.99831 14.3343 4.78592 15.0888 4.73383 15.8619C4.71489 16.157 4.71911 16.453 4.74646 16.7474C4.81433 17.5242 5.04525 18.2787 5.42468 18.9634C5.80411 19.6481 6.32381 20.2482 6.95101 20.7257C7.04185 20.8072 7.14306 20.8767 7.2521 20.9326L7.39528 21.0567C7.54721 21.1684 7.70933 21.2661 7.87957 21.3484C9.04847 21.9271 10.3811 22.104 11.6644 21.8509C12.9477 21.5977 14.1075 20.9291 14.9585 19.952C15.8707 18.9196 16.3672 17.5952 16.3545 16.2281C16.3651 14.2255 16.3545 12.2229 16.3545 10.2286C16.3545 10.181 16.3251 10.1127 16.3798 10.0879C16.4345 10.0631 16.464 10.1251 16.5019 10.15C17.2532 10.6374 18.0877 10.9878 18.9654 11.1844C19.4788 11.3042 20.0043 11.3667 20.532 11.3706C20.7004 11.3706 20.7215 11.3706 20.7215 11.1989C20.7278 10.4789 20.6899 8.53424 20.6899 8.34597Z" fill="#BDB9B9"/>
</svg>
