<svg width="25" height="25" viewBox="0 0 25 25" fill="none" xmlns="http://www.w3.org/2000/svg">
<path d="M22.7219 12.1146C22.6748 10.7544 21.6089 9.69227 20.3352 9.73845C19.7708 9.75944 19.2339 10.0071 18.8264 10.4227C17.0315 9.11293 14.923 8.39505 12.7558 8.34467L13.7787 3.07603L17.1529 3.83589C17.247 4.76367 18.023 5.43537 18.8891 5.33462C19.7552 5.23386 20.3822 4.40264 20.2881 3.47485C20.1941 2.54707 19.4181 1.87537 18.552 1.97612C18.0543 2.0307 17.6075 2.34136 17.3606 2.80315L13.4965 1.97612C13.2339 1.91315 12.9714 2.08947 12.9126 2.37494C12.9126 2.37914 12.9126 2.37914 12.9126 2.38334L11.7486 8.24392C9.55398 8.2817 7.41812 9.00378 5.5997 10.322C4.67481 9.39 3.21694 9.43618 2.34692 10.4311C1.4769 11.4219 1.52001 12.9836 2.44882 13.9156C2.62909 14.0961 2.8368 14.2514 3.06802 14.3606C3.05234 14.6083 3.05234 14.856 3.06802 15.1036C3.06802 18.8862 7.18298 21.9634 12.2581 21.9634C17.3332 21.9634 21.4482 18.8904 21.4482 15.1036C21.4639 14.856 21.4639 14.6083 21.4482 14.3606C22.2398 13.9366 22.7375 13.0634 22.7219 12.1146ZM6.95568 13.8064C6.95568 12.8744 7.66502 12.1146 8.53504 12.1146C9.40506 12.1146 10.1144 12.8744 10.1144 13.8064C10.1144 14.7384 9.40506 15.4983 8.53504 15.4983C7.6611 15.4899 6.95568 14.7384 6.95568 13.8064ZM16.1144 18.4496C14.9936 19.3521 13.6219 19.8139 12.2189 19.751C10.8159 19.8139 9.44425 19.3521 8.32341 18.4496C8.17449 18.2564 8.20192 17.9668 8.3822 17.8072C8.53896 17.6687 8.76234 17.6687 8.92302 17.8072C9.87142 18.5503 11.0275 18.9281 12.2032 18.8694C13.3789 18.9365 14.539 18.5755 15.4991 17.8408C15.6716 17.6603 15.9537 17.6645 16.1222 17.8492C16.2908 18.0339 16.2868 18.3362 16.1144 18.5167V18.4496ZM15.8322 15.557C14.9622 15.557 14.2529 14.7972 14.2529 13.8652C14.2529 12.9332 14.9622 12.1734 15.8322 12.1734C16.7023 12.1734 17.4116 12.9332 17.4116 13.8652C17.4469 14.7972 16.7689 15.5822 15.8989 15.62C15.8714 15.62 15.8479 15.62 15.8205 15.62L15.8322 15.557Z" fill="#BDB9B9"/>
</svg>
