<svg width="25" height="25" viewBox="0 0 25 25" fill="none" xmlns="http://www.w3.org/2000/svg">
<path fill-rule="evenodd" clip-rule="evenodd" d="M22.5504 6.13522C22.8917 6.47656 23.1374 6.90157 23.2628 7.36772C23.7222 9.08383 23.7222 12.6633 23.7222 12.6633C23.7222 12.6633 23.7222 16.2427 23.2628 17.9589C23.1374 18.425 22.8917 18.85 22.5504 19.1914C22.209 19.5327 21.784 19.7784 21.3179 19.9038C19.6018 20.3632 12.7222 20.3632 12.7222 20.3632C12.7222 20.3632 5.84267 20.3632 4.12655 19.9038C3.66041 19.7784 3.23539 19.5327 2.89406 19.1914C2.55272 18.85 2.30704 18.425 2.18162 17.9589C1.72221 16.2427 1.72221 12.6633 1.72221 12.6633C1.72221 12.6633 1.72221 9.08383 2.18162 7.36772C2.30704 6.90157 2.55272 6.47656 2.89406 6.13522C3.23539 5.79389 3.66041 5.54821 4.12655 5.42278C5.84267 4.96338 12.7196 4.96338 12.7196 4.96338C12.7196 4.96338 19.6018 4.96338 21.3179 5.42278C21.784 5.54821 22.209 5.79389 22.5504 6.13522ZM16.2378 12.6633L10.5219 15.9634V9.3632L16.2378 12.6633Z" fill="#BDB9B9"/>
</svg>
