<svg width="25" height="25" viewBox="0 0 25 25" fill="none" xmlns="http://www.w3.org/2000/svg">
<g clip-path="url(#clip0_36_12692)">
<path d="M16.9492 2.96338H8.49469C6.96368 2.96353 5.49543 3.57182 4.4129 4.65446C3.33037 5.73709 2.72222 7.2054 2.72222 8.7364V17.1904C2.72215 17.9485 2.8714 18.6991 3.16146 19.3996C3.45152 20.1 3.87671 20.7364 4.41274 21.2725C4.94877 21.8085 5.58515 22.2338 6.28553 22.5239C6.98591 22.814 7.73659 22.9634 8.49469 22.9634H16.9492C18.4803 22.9634 19.9487 22.3552 21.0313 21.2725C22.114 20.1898 22.7222 18.7215 22.7222 17.1904V8.7364C22.7222 7.2053 22.114 5.73691 21.0313 4.65426C19.9487 3.57161 18.4803 2.96338 16.9492 2.96338ZM20.8804 17.3395C20.8804 17.8428 20.7812 18.3411 20.5886 18.806C20.396 19.2709 20.1138 19.6933 19.7579 20.0492C19.402 20.405 18.9795 20.6872 18.5146 20.8797C18.0496 21.0723 17.5513 21.1713 17.0481 21.1712H8.39581C7.89261 21.1712 7.39435 21.0721 6.92946 20.8796C6.46458 20.687 6.04217 20.4048 5.68636 20.049C5.33055 19.6932 5.04831 19.2707 4.85574 18.8059C4.66318 18.341 4.56407 17.8427 4.56407 17.3395V8.68668C4.56407 7.67044 4.96777 6.69583 5.68636 5.97724C6.40495 5.25865 7.37957 4.85495 8.39581 4.85495H17.0481C17.5513 4.85487 18.0496 4.95393 18.5146 5.14646C18.9795 5.33899 19.402 5.62122 19.7579 5.97704C20.1138 6.33286 20.396 6.75529 20.5886 7.22021C20.7812 7.68514 20.8804 8.18344 20.8804 8.68668V17.3395Z" fill="#BDB9B9"/>
<path d="M12.7219 7.82373C11.6955 7.82362 10.692 8.1279 9.83848 8.6981C8.98495 9.26829 8.31967 10.0788 7.92678 11.0271C7.53389 11.9754 7.43104 13.0189 7.63123 14.0257C7.83141 15.0324 8.32565 15.9572 9.05143 16.6831C9.77722 17.4089 10.7019 17.9033 11.7087 18.1036C12.7154 18.3039 13.7589 18.2011 14.7073 17.8083C15.6556 17.4155 16.4662 16.7504 17.0365 15.8969C17.6068 15.0434 17.9112 14.04 17.9112 13.0135C17.9112 12.332 17.7771 11.6572 17.5163 11.0275C17.2556 10.3979 16.8733 9.82575 16.3915 9.34382C15.9096 8.8619 15.3375 8.47961 14.7079 8.21879C14.0783 7.95797 13.4034 7.82373 12.7219 7.82373ZM12.7219 16.3771C12.0566 16.377 11.4062 16.1796 10.853 15.8099C10.2998 15.4401 9.86873 14.9146 9.6142 14.2999C9.35968 13.6851 9.29317 13.0087 9.42309 12.3561C9.553 11.7035 9.87351 11.1042 10.3441 10.6338C10.8146 10.1634 11.4141 9.84305 12.0667 9.71335C12.7193 9.58365 13.3957 9.65039 14.0104 9.90511C14.6251 10.1598 15.1504 10.5911 15.52 11.1444C15.8896 11.6977 16.0868 12.3482 16.0866 13.0135C16.0866 13.4553 15.9996 13.8928 15.8305 14.301C15.6614 14.7091 15.4135 15.08 15.1011 15.3923C14.7886 15.7047 14.4177 15.9524 14.0095 16.1214C13.6012 16.2904 13.1637 16.3773 12.7219 16.3771Z" fill="#BDB9B9"/>
<path d="M18.0844 8.83529C18.752 8.83529 19.2933 8.29405 19.2933 7.62639C19.2933 6.95873 18.752 6.41748 18.0844 6.41748C17.4167 6.41748 16.8755 6.95873 16.8755 7.62639C16.8755 8.29405 17.4167 8.83529 18.0844 8.83529Z" fill="#BDB9B9"/>
</g>
<defs>
<clipPath id="clip0_36_12692">
<rect width="20" height="20" fill="white" transform="translate(2.72221 2.96338)"/>
</clipPath>
</defs>
</svg>
