<svg width="25" height="25" viewBox="0 0 25 25" fill="none" xmlns="http://www.w3.org/2000/svg">
<path fill-rule="evenodd" clip-rule="evenodd" d="M10.7659 15.5265L18.4614 8.19998C18.7924 7.87826 18.3787 7.7174 17.9373 8.00987L8.46276 14.342L4.36676 12.9819C3.48412 12.7041 3.47033 12.0607 4.55984 11.5927L20.5025 5.07049C21.2334 4.71952 21.9368 5.24598 21.661 6.4305L18.9441 20.0014C18.751 20.9665 18.1994 21.1859 17.4408 20.7472L13.3067 17.5137C12.3353 18.5154 11.4654 19.4119 11.3176 19.5626C11.3044 19.5757 11.2914 19.5888 11.2786 19.6017C11.0623 19.8189 10.8806 20.0013 10.4901 20.0013V19.8551L10.7659 15.5265Z" fill="#BDB9B9"/>
</svg>
