<svg width="230" height="76" viewBox="0 0 230 76" fill="none" xmlns="http://www.w3.org/2000/svg">
<path d="M229.747 33.1742C229.716 33.4815 229.716 33.6966 229.747 33.8196C229.778 33.9425 229.778 34.0347 229.747 34.0962C229.685 34.3113 229.576 34.465 229.421 34.5572C229.266 34.6186 229.126 34.7108 229.002 34.8338C228.692 34.6801 228.413 34.6494 228.165 34.7416C227.917 34.8338 227.669 34.9106 227.42 34.9721C227.358 34.9721 227.25 34.9874 227.095 35.0182C226.971 35.0182 226.878 35.0182 226.816 35.0182C226.567 35.0182 226.335 35.0643 226.118 35.1565C225.901 35.2487 225.699 35.3101 225.513 35.3408C225.358 35.3716 225.218 35.3716 225.094 35.3408C224.97 35.3101 224.83 35.3408 224.675 35.433C224.551 35.7096 224.505 36.017 224.536 36.355C224.598 36.6624 224.598 36.9851 224.536 37.3231C224.474 37.8148 224.458 38.2144 224.489 38.5217C224.551 38.7983 224.582 39.0595 224.582 39.3054C224.582 39.582 224.567 39.8432 224.536 40.0891C224.536 40.3349 224.598 40.5654 224.722 40.7805C224.629 40.9649 224.567 41.1954 224.536 41.472C224.536 41.7179 224.536 41.9638 224.536 42.2096C224.474 42.6399 224.474 43.1316 224.536 43.6848C224.598 44.238 224.629 44.7297 224.629 45.16C224.598 45.3751 224.567 45.5749 224.536 45.7592C224.536 45.9129 224.52 46.0819 224.489 46.2663C224.427 46.5122 224.412 46.6659 224.443 46.7273C224.474 46.7888 224.489 46.8503 224.489 46.9117C224.458 47.2191 224.443 47.5725 224.443 47.972C224.474 48.3715 224.474 48.7864 224.443 49.2167C224.443 49.4933 224.427 49.693 224.396 49.816C224.365 49.9389 224.35 50.0465 224.35 50.1387C224.381 50.3845 224.412 50.6458 224.443 50.9223C224.505 51.1989 224.427 51.4755 224.21 51.7521C224.21 51.8443 224.226 51.9365 224.257 52.0287C224.319 52.0902 224.365 52.167 224.396 52.2592C224.334 52.5051 224.319 52.6895 224.35 52.8124C224.412 52.9353 224.443 53.0275 224.443 53.089C224.381 53.4271 224.365 53.719 224.396 53.9649C224.427 54.18 224.458 54.3951 224.489 54.6103C224.489 55.563 224.288 56.193 223.884 56.5003C223.481 56.4389 223.078 56.3774 222.675 56.3159C222.303 56.2545 221.915 56.2545 221.512 56.3159C221.325 56.3467 221.139 56.3774 220.953 56.4081C220.767 56.4696 220.55 56.4542 220.302 56.362C220.147 56.3928 220.038 56.4235 219.976 56.4542C219.914 56.5157 219.821 56.5464 219.697 56.5464C219.573 56.5772 219.464 56.5464 219.371 56.4542C219.278 56.362 219.17 56.3006 219.046 56.2698C218.984 55.9011 218.968 55.4401 218.999 54.8869C219.061 54.3337 219.077 53.7498 219.046 53.1351C219.046 52.9814 219.03 52.8585 218.999 52.7663C218.968 52.6434 218.937 52.5051 218.906 52.3514C218.875 52.1363 218.86 51.9212 218.86 51.706C218.891 51.4602 218.891 51.2143 218.86 50.9684C218.86 50.8762 218.875 50.784 218.906 50.6919C218.937 50.5689 218.953 50.4614 218.953 50.3692C218.953 50.2462 218.922 50.1848 218.86 50.1848C218.829 50.154 218.813 50.0465 218.813 49.8621C218.813 49.4625 218.844 49.0937 218.906 48.7557C218.999 48.4176 219.077 48.0796 219.139 47.7415C219.077 47.3727 219.046 47.1115 219.046 46.9578C219.046 46.7734 219.046 46.6198 219.046 46.4968C219.015 46.3739 218.968 46.2356 218.906 46.0819C218.844 45.9283 218.813 45.7746 218.813 45.6209C218.813 45.498 218.813 45.4058 218.813 45.3444C218.844 45.2829 218.829 45.1753 218.767 45.0217C218.736 44.4992 218.736 44.0382 218.767 43.6387C218.829 43.2084 218.844 42.7935 218.813 42.394C218.72 42.056 218.674 41.7947 218.674 41.6103C218.674 41.3952 218.658 41.2108 218.627 41.0571C218.596 40.842 218.565 40.6115 218.534 40.3657C218.534 40.1198 218.549 39.8586 218.58 39.582C218.58 39.459 218.596 39.3515 218.627 39.2593C218.658 39.1671 218.674 39.0595 218.674 38.9366C218.674 38.7829 218.642 38.6446 218.58 38.5217C218.549 38.3988 218.534 38.2605 218.534 38.1068C218.534 37.8609 218.549 37.5997 218.58 37.3231C218.642 37.0465 218.674 36.7853 218.674 36.5394C218.642 36.4472 218.611 36.355 218.58 36.2628C218.549 36.1399 218.534 36.0323 218.534 35.9401C218.503 35.6328 218.518 35.3408 218.58 35.0643C218.674 34.7877 218.689 34.5111 218.627 34.2345C218.007 34.3574 217.51 34.4803 217.138 34.6033C217.014 34.634 216.89 34.6647 216.766 34.6955C216.673 34.6955 216.549 34.7262 216.394 34.7877C216.146 34.8491 215.944 34.9106 215.789 34.9721C215.634 35.0335 215.463 34.9874 215.277 34.8338C214.998 34.5879 214.827 34.3881 214.765 34.2345C214.734 33.9886 214.765 33.7888 214.858 33.6352C214.982 33.4815 215.122 33.3279 215.277 33.1742C215.215 33.0513 215.215 32.9591 215.277 32.8976C215.339 32.8361 215.386 32.7286 215.417 32.5749C215.448 32.4212 215.448 32.2676 215.417 32.1139C215.417 31.9295 215.448 31.7451 215.51 31.5607C215.572 31.3763 215.649 31.2073 215.742 31.0536C215.835 30.9 215.897 30.7463 215.928 30.5926C215.96 30.3775 215.944 30.1624 215.882 29.9473C215.82 29.7321 215.82 29.517 215.882 29.3019C215.975 28.7794 216.363 28.5796 217.045 28.7026C217.231 28.764 217.402 28.8101 217.557 28.8409C217.712 28.8716 217.821 28.9638 217.883 29.1175C218.162 29.0867 218.363 29.1175 218.487 29.2097C218.643 29.3019 218.844 29.348 219.092 29.348C219.309 29.0714 219.402 28.7026 219.371 28.2416C219.34 27.7806 219.34 27.2889 219.371 26.7664C219.433 26.4898 219.449 26.2901 219.418 26.1671C219.387 26.0442 219.356 25.9213 219.325 25.7983C219.263 25.3373 219.278 24.9071 219.371 24.5076C219.402 24.4154 219.433 24.3232 219.464 24.231C219.495 24.108 219.511 24.0005 219.511 23.9083C219.511 23.6624 219.464 23.4473 219.371 23.2629C219.371 23.0785 219.34 22.9402 219.278 22.848C219.247 22.7558 219.201 22.679 219.139 22.6175C219.108 22.556 219.077 22.5099 219.046 22.4792C219.015 22.4177 219.015 22.3255 219.046 22.2026C219.263 21.9875 219.418 21.8953 219.511 21.926C219.604 21.926 219.728 21.926 219.883 21.926C220.131 21.8645 220.333 21.8184 220.488 21.7877C220.674 21.757 220.907 21.7723 221.186 21.8338C221.465 21.7723 221.682 21.7723 221.837 21.8338C221.992 21.8645 222.163 21.8953 222.349 21.926C222.473 21.8953 222.582 21.8492 222.675 21.7877C222.768 21.7262 222.861 21.6801 222.954 21.6494C223.047 21.7109 223.171 21.7262 223.326 21.6955C223.481 21.634 223.59 21.6648 223.652 21.7877C223.807 22.0028 223.915 22.1411 223.977 22.2026C224.04 22.2333 224.071 22.2794 224.071 22.3409C224.133 22.5868 224.133 22.9402 224.071 23.4012C224.04 23.8314 224.008 24.2156 223.977 24.5537C224.008 24.7073 224.024 24.861 224.024 25.0146C224.024 25.1376 224.024 25.2759 224.024 25.4295C224.024 25.5217 224.008 25.6447 223.977 25.7983C223.946 25.952 223.931 26.0596 223.931 26.121C224.024 26.3976 224.055 26.6128 224.024 26.7664C224.024 26.8893 224.04 26.9815 224.071 27.043C224.102 27.2581 224.148 27.4579 224.21 27.6423C224.272 27.796 224.195 27.9804 223.977 28.1955C224.04 28.3799 224.055 28.5643 224.024 28.7487C223.993 28.9023 223.962 29.0867 223.931 29.3019C223.931 29.3941 223.931 29.5016 223.931 29.6246C223.962 29.7475 223.977 29.8551 223.977 29.9473C223.977 30.1009 223.946 30.2392 223.884 30.3621C223.822 30.4851 223.822 30.6234 223.884 30.777C224.133 30.8078 224.35 30.7617 224.536 30.6387C224.722 30.5158 224.908 30.4236 225.094 30.3621C225.28 30.3007 225.466 30.2853 225.652 30.316C225.87 30.316 226.071 30.2392 226.257 30.0855C226.412 30.2085 226.583 30.2085 226.769 30.0855C226.955 29.9626 227.11 29.9934 227.234 30.1777C227.389 29.9934 227.653 29.8551 228.025 29.7629C228.397 29.6707 228.708 29.6707 228.956 29.7629C229.08 30.0087 229.173 30.1777 229.235 30.2699C229.297 30.3314 229.343 30.3929 229.374 30.4543C229.406 30.5158 229.406 30.608 229.374 30.7309C229.343 30.8231 229.343 30.9307 229.374 31.0536C229.437 31.2995 229.452 31.4685 229.421 31.5607C229.421 31.6222 229.421 31.6837 229.421 31.7451C229.452 31.9602 229.499 32.16 229.561 32.3444C229.623 32.5288 229.669 32.6978 229.7 32.8515L229.747 33.1742Z" fill="#FF4DAD"/>
<path d="M211.262 23.2173C211.324 23.2788 211.34 23.4939 211.309 23.8627C211.278 24.2315 211.231 24.4927 211.169 24.6464C211.138 24.7386 211.092 24.8308 211.03 24.923C210.968 24.9844 210.906 25.0459 210.844 25.1074C210.782 25.4762 210.689 25.7681 210.565 25.9833C210.44 26.1984 210.347 26.3828 210.285 26.5364C210.13 26.5979 209.975 26.6901 209.82 26.813C209.696 26.9052 209.556 26.9821 209.401 27.0435C209.029 27.1665 208.719 27.2894 208.471 27.4123C208.223 27.5045 207.975 27.5506 207.726 27.5506C207.602 27.5506 207.494 27.5353 207.401 27.5045C207.308 27.4431 207.215 27.397 207.122 27.3662C206.967 27.3355 206.811 27.3201 206.656 27.3201C206.501 27.3201 206.346 27.3048 206.191 27.274C206.036 26.9974 205.85 26.7516 205.633 26.5364C205.447 26.2906 205.307 25.9986 205.214 25.6606C205.121 25.5376 204.981 25.384 204.795 25.1996C204.795 24.9537 204.749 24.7386 204.656 24.5542C204.563 24.3391 204.516 24.1086 204.516 23.8627C204.516 23.6783 204.578 23.4324 204.702 23.1251C204.733 22.9714 204.749 22.8178 204.749 22.6641C204.78 22.5105 204.811 22.4029 204.842 22.3414C205.059 22.0956 205.214 21.9573 205.307 21.9265C205.4 21.8651 205.478 21.7882 205.54 21.696C205.664 21.4809 205.726 21.3426 205.726 21.2811C205.726 21.2197 205.741 21.1582 205.772 21.0968C205.865 20.9738 205.989 20.8663 206.145 20.7741C206.331 20.6511 206.501 20.5436 206.656 20.4514C206.811 20.3284 207.013 20.2823 207.261 20.3131C207.509 20.3131 207.804 20.2977 208.145 20.267C208.269 20.5128 208.471 20.6819 208.75 20.7741C209.029 20.8663 209.246 21.0353 209.401 21.2811C209.65 21.3426 209.805 21.3887 209.867 21.4194C209.929 21.4194 209.991 21.4502 210.053 21.5116C210.58 21.8804 210.968 22.3722 211.216 22.9868L211.262 23.2173ZM211.402 31.1925C211.34 31.4998 211.278 31.8071 211.216 32.1144C211.185 32.391 211.185 32.7137 211.216 33.0825C211.216 33.2362 211.231 33.3745 211.262 33.4974C211.324 33.6203 211.355 33.7586 211.355 33.9123C211.355 34.1274 211.324 34.3579 211.262 34.6038C211.2 34.8189 211.169 35.0494 211.169 35.2953C211.169 35.5411 211.169 35.7716 211.169 35.9868C211.169 36.1712 211.185 36.3863 211.216 36.6322C211.216 36.7551 211.231 36.8473 211.262 36.9087C211.293 36.9395 211.278 37.0163 211.216 37.1392C211.03 37.5695 210.983 38.1227 211.076 38.7988C211.169 39.4749 211.216 40.0742 211.216 40.5967C211.185 40.904 211.138 41.2113 211.076 41.5187C211.014 41.826 210.968 42.1487 210.937 42.4867C210.875 43.1936 210.828 43.9004 210.797 44.6073C210.797 45.2834 210.766 45.9595 210.704 46.6357C210.673 46.8201 210.658 47.0198 210.658 47.2349C210.689 47.4193 210.689 47.5884 210.658 47.742C210.627 48.1723 210.58 48.5872 210.518 48.9867C210.487 49.3862 210.44 49.7704 210.378 50.1392C210.347 50.4158 210.347 50.6924 210.378 50.969C210.409 51.2148 210.425 51.4761 210.425 51.7527C210.425 51.9063 210.425 52.0446 210.425 52.1675C210.456 52.2905 210.471 52.4288 210.471 52.5824C210.503 52.7054 210.534 52.8283 210.565 52.9512C210.596 53.0434 210.611 53.1664 210.611 53.32C210.58 53.443 210.565 53.5505 210.565 53.6427C210.565 53.7042 210.565 53.7657 210.565 53.8271C210.565 53.8886 210.58 53.9347 210.611 53.9654C210.549 54.2113 210.534 54.3803 210.565 54.4725C210.596 54.534 210.611 54.5954 210.611 54.6569C210.58 54.7491 210.534 54.8567 210.471 54.9796C210.44 55.0718 210.425 55.1947 210.425 55.3484C210.425 55.5943 210.44 55.8401 210.471 56.086C210.534 56.3011 210.534 56.5316 210.471 56.7775C210.254 56.8697 210.053 56.9619 209.867 57.0541C209.681 57.177 209.417 57.1924 209.076 57.1002C208.921 57.0387 208.828 56.9158 208.797 56.7314C208.766 56.547 208.688 56.3933 208.564 56.2704C208.316 56.2396 208.099 56.1935 207.913 56.1321C207.757 56.0706 207.602 55.9938 207.447 55.9016C207.323 55.963 207.153 55.9784 206.936 55.9477C206.749 55.8862 206.548 55.8401 206.331 55.8094C206.083 55.7479 205.85 55.7172 205.633 55.7172C205.416 55.7172 205.245 55.6864 205.121 55.625C204.935 55.3791 204.826 55.164 204.795 54.9796C204.795 54.7645 204.733 54.6108 204.609 54.5186C204.733 54.242 204.811 53.9962 204.842 53.781C204.904 53.4737 204.904 53.1971 204.842 52.9512C204.78 52.6746 204.764 52.3827 204.795 52.0753C204.795 51.9832 204.826 51.8141 204.888 51.5683C204.919 51.3531 204.935 51.1687 204.935 51.0151C204.935 50.8614 204.95 50.7077 204.981 50.5541C205.012 50.3082 205.043 50.1699 205.074 50.1392C205.106 50.0777 205.137 50.0163 205.168 49.9548C205.199 49.4323 205.214 48.8945 205.214 48.3413C205.245 47.7881 205.276 47.3886 205.307 47.1427C205.307 46.9891 205.307 46.8815 205.307 46.8201C205.338 46.7279 205.354 46.6049 205.354 46.4513C205.354 45.8366 205.369 45.3141 205.4 44.8839C205.462 44.4229 205.478 43.9465 205.447 43.4548C205.416 43.1168 205.416 42.8094 205.447 42.5328C205.509 42.2562 205.54 41.9796 205.54 41.7031C205.571 41.365 205.555 41.073 205.493 40.8272C205.462 40.5506 205.524 40.274 205.679 39.9974C205.555 39.6901 205.509 39.3827 205.54 39.0754C205.602 38.7681 205.633 38.4761 205.633 38.1995C205.633 37.9537 205.633 37.7232 205.633 37.508C205.633 37.2929 205.648 37.0624 205.679 36.8165C205.679 36.6629 205.664 36.5092 205.633 36.3556C205.602 36.1712 205.617 36.0021 205.679 35.8485C205.71 35.5104 205.726 35.2799 205.726 35.157C205.757 35.0033 205.772 34.8958 205.772 34.8343C205.772 34.7114 205.741 34.6038 205.679 34.5116C205.648 34.4194 205.633 34.3272 205.633 34.235C205.633 34.1121 205.633 34.0045 205.633 33.9123C205.664 33.8201 205.664 33.7279 205.633 33.6357C205.571 33.2669 205.524 33.0211 205.493 32.8981C205.493 32.7445 205.509 32.6215 205.54 32.5293C205.509 32.3757 205.416 32.2835 205.261 32.2527C205.106 32.222 204.997 32.1452 204.935 32.0222C204.873 31.7764 204.811 31.5152 204.749 31.2386C204.687 30.9312 204.764 30.7007 204.981 30.5471C205.137 30.4856 205.276 30.4702 205.4 30.501C205.555 30.501 205.741 30.5163 205.958 30.5471C206.145 30.6085 206.269 30.6239 206.331 30.5932C206.393 30.5624 206.455 30.5624 206.517 30.5932C206.61 30.6239 206.703 30.67 206.796 30.7315C206.92 30.7622 207.044 30.7929 207.168 30.8237C207.478 30.8544 207.835 30.8544 208.238 30.8237C208.641 30.7929 209.029 30.7622 209.401 30.7315C209.805 30.67 210.161 30.6393 210.471 30.6393C210.782 30.6085 210.999 30.6393 211.123 30.7315C211.216 30.7929 211.262 30.8851 211.262 31.0081C211.262 31.1003 211.309 31.1617 211.402 31.1925Z" fill="#FF4DAD"/>
<path d="M201.134 46.405C201.134 46.5894 201.103 46.8045 201.041 47.0504C201.01 47.2655 200.963 47.496 200.901 47.7418C200.839 47.9877 200.777 48.1721 200.715 48.295C200.684 48.3872 200.669 48.4948 200.669 48.6177C200.7 48.7407 200.7 48.8329 200.669 48.8943C200.607 49.048 200.529 49.2016 200.436 49.3553C200.374 49.509 200.312 49.6626 200.25 49.8163C200.188 49.97 200.126 50.139 200.064 50.3234C200.033 50.4771 199.986 50.6154 199.924 50.7383C199.862 50.8305 199.769 50.9073 199.645 50.9688C199.552 51.0302 199.521 51.1378 199.552 51.2915C199.242 51.4144 198.994 51.5527 198.808 51.7064C198.652 51.8293 198.528 51.9522 198.435 52.0752C198.342 52.1981 198.218 52.321 198.063 52.444C198.001 52.5054 197.908 52.5669 197.784 52.6284C197.66 52.6898 197.536 52.7513 197.412 52.8127C197.164 52.9664 196.977 53.0893 196.853 53.1815C196.76 53.243 196.683 53.3045 196.621 53.3659C196.559 53.3967 196.466 53.412 196.342 53.412C196.249 53.412 196.171 53.4428 196.109 53.5042C195.892 53.6579 195.659 53.7808 195.411 53.873C195.194 53.9345 195.008 54.0421 194.853 54.1957C194.729 54.2265 194.62 54.2265 194.527 54.1957C194.434 54.165 194.341 54.165 194.248 54.1957C193.938 54.2879 193.736 54.3647 193.643 54.4262C193.581 54.4569 193.504 54.4877 193.41 54.5184C193.224 54.5799 193.069 54.626 192.945 54.6567C192.852 54.6567 192.744 54.6874 192.62 54.7489C192.247 54.8718 191.937 54.9333 191.689 54.9333C191.441 54.9333 191.208 54.964 190.991 55.0255C190.836 55.087 190.712 55.1177 190.619 55.1177C190.557 55.1177 190.495 55.1331 190.433 55.1638C190.371 55.1638 190.278 55.1945 190.154 55.256C190.061 55.2867 189.983 55.3175 189.921 55.3482C189.673 55.2867 189.456 55.2714 189.27 55.3021C189.115 55.3021 188.96 55.3021 188.804 55.3021C188.587 55.3021 188.339 55.3175 188.06 55.3482C187.781 55.3789 187.517 55.4097 187.269 55.4404C187.083 55.4404 186.881 55.425 186.664 55.3943C186.478 55.3636 186.277 55.3636 186.059 55.3943C185.842 55.425 185.594 55.4711 185.315 55.5326C185.067 55.5941 184.834 55.5172 184.617 55.3021C184.431 55.425 184.229 55.4558 184.012 55.3943C183.826 55.3328 183.625 55.3175 183.407 55.3482C183.19 55.3789 182.989 55.4558 182.803 55.5787C182.647 55.7016 182.446 55.7324 182.198 55.6709C181.981 55.8553 181.81 55.9629 181.686 55.9936C181.562 55.9936 181.469 56.009 181.407 56.0397C181.159 56.1319 180.895 56.2394 180.616 56.3624C180.368 56.4853 180.073 56.4392 179.732 56.2241C179.515 56.3163 179.236 56.3316 178.894 56.2702C178.708 56.0858 178.507 55.8092 178.29 55.4404C178.29 55.1945 178.336 54.9794 178.429 54.795C178.522 54.5799 178.569 54.3647 178.569 54.1496C178.569 53.9652 178.522 53.7962 178.429 53.6425C178.367 53.4889 178.321 53.3198 178.29 53.1354C178.259 52.9818 178.243 52.8435 178.243 52.7206C178.274 52.5669 178.29 52.4132 178.29 52.2596C178.29 52.1059 178.274 51.9676 178.243 51.8447C178.212 51.7217 178.181 51.5834 178.15 51.4298C178.119 51.1839 178.103 50.9688 178.103 50.7844C178.103 50.5693 178.134 50.3388 178.197 50.0929C178.228 49.97 178.228 49.8163 178.197 49.6319C178.197 49.4168 178.259 49.1863 178.383 48.9404C178.352 48.8482 178.321 48.756 178.29 48.6638C178.259 48.5409 178.243 48.418 178.243 48.295C178.243 48.1414 178.259 47.9877 178.29 47.834C178.352 47.6804 178.383 47.5267 178.383 47.3731C178.414 47.2194 178.414 47.0504 178.383 46.866C178.352 46.6816 178.336 46.4972 178.336 46.3128C178.367 46.1591 178.383 46.0208 178.383 45.8979C178.414 45.7442 178.429 45.6059 178.429 45.483C178.46 45.3908 178.476 45.2832 178.476 45.1603C178.476 45.0374 178.522 44.9605 178.615 44.9298C178.553 44.8069 178.507 44.7147 178.476 44.6532C178.476 44.561 178.476 44.4534 178.476 44.3305V43.7312C178.476 43.6083 178.491 43.5007 178.522 43.4085C178.584 43.3163 178.631 43.2088 178.662 43.0858C178.662 43.0244 178.646 42.9475 178.615 42.8553C178.584 42.7631 178.569 42.6709 178.569 42.5787C178.631 42.3329 178.646 42.1639 178.615 42.0717C178.584 41.9487 178.584 41.8412 178.615 41.749V40.5965C178.615 40.4736 178.631 40.3506 178.662 40.2277C178.693 40.1048 178.708 39.9818 178.708 39.8589C178.708 39.736 178.677 39.613 178.615 39.4901C178.584 39.3672 178.569 39.2442 178.569 39.1213C178.569 38.6603 178.584 38.184 178.615 37.6922C178.677 37.2005 178.631 36.7242 178.476 36.2632C178.631 36.1402 178.677 36.0019 178.615 35.8483C178.584 35.6946 178.569 35.5409 178.569 35.3873C178.6 35.3258 178.615 35.2336 178.615 35.1107C178.615 34.957 178.615 34.8034 178.615 34.6497C178.553 34.2809 178.522 33.866 178.522 33.405C178.553 32.944 178.6 32.4523 178.662 31.9299C178.724 31.6225 178.724 31.4228 178.662 31.3306C178.631 31.2384 178.615 31.1462 178.615 31.054C178.584 30.9618 178.569 30.8696 178.569 30.7774C178.6 30.6852 178.615 30.6083 178.615 30.5469C178.584 30.301 178.538 30.0398 178.476 29.7632C178.445 29.4866 178.507 29.1793 178.662 28.8412C178.569 28.7797 178.522 28.6876 178.522 28.5646C178.553 28.4417 178.553 28.3188 178.522 28.1958C178.491 28.0729 178.445 27.9653 178.383 27.8731C178.352 27.7809 178.321 27.6734 178.29 27.5504C178.352 27.1509 178.352 26.8129 178.29 26.5363C178.228 26.2597 178.274 26.0445 178.429 25.8909C178.367 25.7372 178.305 25.6296 178.243 25.5682C178.181 25.5067 178.15 25.3991 178.15 25.2455C178.181 25.0918 178.181 24.9074 178.15 24.6923C178.119 24.4772 178.15 24.3235 178.243 24.2313C178.181 24.1084 178.103 24.0008 178.01 23.9086C177.917 23.8164 177.902 23.6474 177.964 23.4015C177.902 23.2786 177.778 23.1096 177.592 22.8944C177.437 22.6793 177.468 22.4795 177.685 22.2951C177.809 22.1415 177.995 22.0339 178.243 21.9724C178.522 21.911 178.801 21.8803 179.081 21.8803C179.36 21.8495 179.623 21.8342 179.871 21.8342C180.151 21.8342 180.368 21.8188 180.523 21.7881C180.771 21.6959 180.957 21.619 181.081 21.5576C181.236 21.4654 181.484 21.4039 181.826 21.3732C181.95 21.3732 182.043 21.3732 182.105 21.3732C182.198 21.3424 182.306 21.3271 182.43 21.3271C182.523 21.3271 182.632 21.3424 182.756 21.3732C182.88 21.4039 182.973 21.4193 183.035 21.4193C183.128 21.4193 183.221 21.4039 183.314 21.3732C183.407 21.3117 183.485 21.281 183.547 21.281C183.702 21.281 183.904 21.3117 184.152 21.3732H185.408C185.656 21.3732 185.811 21.3578 185.873 21.3271C185.935 21.2963 185.966 21.2963 185.966 21.3271C186.028 21.4193 186.137 21.4346 186.292 21.3732C186.447 21.3117 186.602 21.281 186.757 21.281C187.129 21.2502 187.533 21.2349 187.967 21.2349C188.432 21.2349 188.866 21.2656 189.27 21.3271C189.704 21.3885 190.014 21.45 190.2 21.5115C190.417 21.5422 190.634 21.6498 190.852 21.8342C191.472 21.8649 192.046 22.0032 192.573 22.249C193.1 22.4642 193.581 22.6947 194.015 22.9405C194.201 23.0635 194.326 23.1557 194.388 23.2171C194.481 23.2786 194.605 23.3862 194.76 23.5398C194.822 23.6013 194.884 23.6781 194.946 23.7703C195.039 23.8625 195.116 23.9393 195.178 24.0008C195.241 24.0623 195.272 24.1545 195.272 24.2774C195.303 24.3696 195.349 24.4464 195.411 24.5079C195.597 24.6923 195.69 24.8152 195.69 24.8767C195.721 24.9074 195.737 24.9382 195.737 24.9689C195.923 25.2148 196.031 25.3991 196.062 25.5221C196.125 25.645 196.187 25.7833 196.249 25.937C196.404 26.0906 196.528 26.2597 196.621 26.4441C196.714 26.6285 196.838 26.7975 196.993 26.9512C196.962 27.1355 196.962 27.3046 196.993 27.4582C197.024 27.6119 197.055 27.7656 197.086 27.9192C197.148 28.0729 197.195 28.2112 197.226 28.3341C197.288 28.4263 197.35 28.5339 197.412 28.6568C197.412 28.749 197.412 28.8566 197.412 28.9795C197.412 29.0717 197.427 29.1639 197.458 29.2561C197.551 29.7786 197.52 30.2703 197.365 30.7313C197.303 30.8235 197.241 30.9157 197.179 31.0079C197.148 31.0693 197.102 31.1462 197.04 31.2384C196.977 31.3613 196.946 31.4842 196.946 31.6072C196.946 31.7301 196.915 31.8377 196.853 31.9299C196.791 32.0835 196.698 32.2525 196.574 32.4369C196.45 32.5906 196.342 32.7443 196.249 32.8979C196.187 32.9901 196.125 33.0823 196.062 33.1745C196.031 33.236 195.985 33.3128 195.923 33.405C195.861 33.528 195.768 33.6663 195.644 33.8199C195.551 33.9428 195.458 34.0658 195.365 34.1887C195.272 34.3116 195.178 34.4346 195.085 34.5575C194.992 34.6497 194.868 34.7419 194.713 34.8341C194.465 35.0185 194.31 35.1722 194.248 35.2951C194.186 35.3873 194.139 35.4488 194.108 35.4795C194.046 35.7561 194.077 35.9251 194.201 35.9866C194.326 36.0173 194.419 36.048 194.481 36.0788C194.605 36.1095 194.713 36.1249 194.806 36.1249C194.93 36.0941 195.039 36.1095 195.132 36.171C195.349 36.2324 195.535 36.34 195.69 36.4937C195.845 36.6473 196 36.7856 196.156 36.9086C196.528 37.2466 196.822 37.5078 197.04 37.6922C197.257 37.8766 197.489 38.0457 197.737 38.1993C197.924 38.5067 198.125 38.7679 198.342 38.983C198.59 39.1981 198.776 39.4747 198.901 39.8128C199.087 39.9972 199.211 40.1662 199.273 40.3199C199.335 40.4428 199.428 40.5504 199.552 40.6426C199.583 40.7041 199.614 40.7809 199.645 40.8731C199.707 40.9653 199.769 41.0421 199.831 41.1036C199.986 41.288 200.11 41.5338 200.203 41.8412C200.327 42.1178 200.451 42.3944 200.575 42.6709C200.638 42.8246 200.669 42.9783 200.669 43.1319C200.669 43.2856 200.7 43.5007 200.762 43.7773C200.824 44.0847 200.917 44.4842 201.041 44.9759C201.165 45.4676 201.196 45.944 201.134 46.405ZM191.27 30.3625C191.146 30.1781 191.1 29.9322 191.131 29.6249C191.162 29.3176 191.146 29.0256 191.084 28.749C190.991 28.5954 190.945 28.4878 190.945 28.4263C190.976 28.3649 190.976 28.3034 190.945 28.2419C190.821 28.0575 190.743 27.95 190.712 27.9192C190.712 27.8578 190.696 27.7809 190.665 27.6887C190.417 27.5658 190.231 27.4121 190.107 27.2277C189.983 27.0126 189.828 26.8282 189.642 26.6746C189.425 26.6131 189.301 26.5516 189.27 26.4902C189.239 26.4287 189.192 26.3826 189.13 26.3519C188.789 26.2904 188.479 26.2597 188.2 26.2597C187.951 26.2289 187.703 26.1982 187.455 26.1675C187.207 26.1367 186.959 26.106 186.711 26.0753C186.463 26.0445 186.214 26.0445 185.966 26.0753C185.656 26.1367 185.439 26.1675 185.315 26.1675C185.222 26.1367 185.144 26.1214 185.082 26.1214C184.679 26.275 184.353 26.3519 184.105 26.3519C183.857 26.3519 183.609 26.3826 183.361 26.4441C183.299 26.6592 183.283 26.8743 183.314 27.0894C183.376 27.3046 183.407 27.5351 183.407 27.7809C183.438 27.9039 183.438 28.0114 183.407 28.1036C183.407 28.1958 183.407 28.3034 183.407 28.4263C183.407 28.58 183.423 28.7337 183.454 28.8873C183.516 29.041 183.547 29.1946 183.547 29.3483C183.547 29.502 183.531 29.6556 183.5 29.8093C183.469 29.963 183.454 30.1166 183.454 30.2703C183.423 30.4547 183.423 30.6544 183.454 30.8696C183.485 31.0847 183.5 31.2384 183.5 31.3306C183.469 31.6686 183.469 31.9145 183.5 32.0682C183.563 32.1911 183.625 32.3294 183.687 32.483C183.531 32.8826 183.516 33.2975 183.64 33.7277C183.764 34.1272 183.888 34.496 184.012 34.8341C184.167 34.8034 184.322 34.7573 184.478 34.6958C184.664 34.6343 184.834 34.5882 184.989 34.5575C185.237 34.496 185.47 34.4807 185.687 34.5114C185.935 34.5421 186.183 34.5268 186.432 34.4653C186.618 34.4038 186.804 34.327 186.99 34.2348C187.207 34.1426 187.44 34.1272 187.688 34.1887C188.06 33.9121 188.525 33.7738 189.084 33.7738C189.146 33.6202 189.27 33.5126 189.456 33.4511C189.642 33.3897 189.812 33.3282 189.968 33.2667C190.03 33.1745 190.092 33.0977 190.154 33.0362C190.247 32.944 190.324 32.8518 190.386 32.7596C190.51 32.5752 190.603 32.4677 190.665 32.4369C190.759 32.3755 190.821 32.314 190.852 32.2525C190.914 32.1603 190.929 32.0528 190.898 31.9299C190.898 31.7762 190.976 31.6533 191.131 31.5611C191.069 31.3459 191.053 31.1462 191.084 30.9618C191.146 30.7466 191.208 30.5469 191.27 30.3625ZM194.527 44.6071C194.403 44.4534 194.294 44.269 194.201 44.0539C194.139 43.8388 194.077 43.6083 194.015 43.3624C193.953 43.2395 193.876 43.1627 193.783 43.1319C193.721 43.1012 193.659 43.0397 193.597 42.9475C193.473 42.7017 193.348 42.5326 193.224 42.4405C193.1 42.3483 193.007 42.2714 192.945 42.21C192.79 42.0563 192.666 41.9487 192.573 41.8873C192.48 41.8258 192.356 41.749 192.201 41.6568C191.953 41.5031 191.72 41.3802 191.503 41.288C191.286 41.165 191.084 41.0267 190.898 40.8731C190.371 40.7501 189.844 40.6579 189.316 40.5965C188.82 40.535 188.339 40.4736 187.874 40.4121C187.254 40.3814 186.711 40.4428 186.245 40.5965C185.78 40.7194 185.206 40.7655 184.524 40.7348C184.462 40.8577 184.369 40.9499 184.245 41.0114C184.152 41.0421 184.074 41.1189 184.012 41.2419C184.043 42.1946 183.997 43.1473 183.873 44.1C183.749 45.0527 183.733 45.944 183.826 46.7738C183.764 47.2348 183.749 47.6496 183.78 48.0184C183.842 48.3565 183.857 48.6024 183.826 48.756C183.795 49.0019 183.811 49.217 183.873 49.4014C183.935 49.5551 183.966 49.7087 183.966 49.8624C183.966 49.9239 183.95 50.0007 183.919 50.0929C183.888 50.1851 183.873 50.2773 183.873 50.3695C183.873 50.4924 183.857 50.6 183.826 50.6922C183.826 50.7537 183.857 50.8459 183.919 50.9688C184.26 50.9688 184.586 50.9227 184.896 50.8305C185.237 50.7076 185.594 50.6154 185.966 50.5539C186.214 50.4924 186.463 50.4463 186.711 50.4156C186.959 50.3849 187.207 50.3541 187.455 50.3234C187.61 50.2927 187.719 50.2619 187.781 50.2312C187.874 50.2005 187.951 50.1851 188.013 50.1851C188.107 50.1544 188.2 50.139 188.293 50.139C188.386 50.139 188.479 50.1236 188.572 50.0929C189.192 49.97 189.766 49.847 190.293 49.7241C190.852 49.5704 191.394 49.3553 191.922 49.0787C192.046 49.048 192.154 49.0326 192.247 49.0326C192.371 49.0019 192.511 48.9712 192.666 48.9404C192.821 48.7868 192.976 48.6177 193.131 48.4333C193.317 48.2182 193.535 48.0492 193.783 47.9262C193.845 47.834 193.876 47.7265 193.876 47.6035C193.876 47.4806 193.953 47.4038 194.108 47.3731C194.139 47.2194 194.17 47.0965 194.201 47.0043C194.263 46.9121 194.326 46.8199 194.388 46.7277C194.481 46.2974 194.496 45.8979 194.434 45.5291C194.403 45.1603 194.434 44.853 194.527 44.6071Z" fill="#FF4DAD"/>
<path d="M173.263 43.5936C173.232 44.0239 173.232 44.3158 173.263 44.4695C173.294 44.6231 173.263 44.7922 173.17 44.9766C173.108 45.0995 172.984 45.1917 172.798 45.2532C172.642 45.3146 172.534 45.4068 172.472 45.5298C172.286 45.4683 172.084 45.4529 171.867 45.4837C171.65 45.4837 171.464 45.5144 171.309 45.5759C171.092 45.3915 170.781 45.3146 170.378 45.3454C170.006 45.3761 169.696 45.2993 169.448 45.1149C169.262 45.2071 169.091 45.2532 168.936 45.2532C168.502 45.3146 168.036 45.2993 167.54 45.2071C167.075 45.1149 166.594 45.038 166.098 44.9766C165.757 44.9458 165.4 44.9305 165.028 44.9305C164.656 44.9305 164.33 44.9305 164.051 44.9305C163.741 44.9919 163.492 45.0227 163.306 45.0227C163.058 44.9919 162.826 44.9305 162.608 44.8383C162.422 44.7461 162.205 44.7 161.957 44.7C161.771 44.6692 161.569 44.6846 161.352 44.7461C161.166 44.7768 160.98 44.7922 160.794 44.7922C160.608 44.7922 160.36 44.7614 160.049 44.7C159.801 44.7307 159.631 44.7461 159.538 44.7461C159.445 44.7153 159.367 44.7 159.305 44.7C159.088 44.7 158.871 44.7153 158.654 44.7461C158.468 44.7768 158.297 44.7 158.142 44.5156C158.018 44.6078 157.909 44.6692 157.816 44.7C157.723 44.7307 157.553 44.7461 157.304 44.7461C157.149 44.7153 157.025 44.7 156.932 44.7C156.87 44.6692 156.808 44.6539 156.746 44.6539C156.529 44.7153 156.343 44.7307 156.188 44.7C156.064 44.6692 155.94 44.7153 155.816 44.8383C155.754 44.7768 155.645 44.7614 155.49 44.7922C155.335 44.7922 155.226 44.7614 155.164 44.7C154.761 44.6385 154.435 44.6385 154.187 44.7C153.939 44.7614 153.675 44.7922 153.396 44.7922C153.148 44.7922 152.9 44.7614 152.652 44.7C152.435 44.6385 152.156 44.6385 151.814 44.7C151.659 44.9766 151.597 45.33 151.628 45.7603C151.69 46.1598 151.814 46.4825 152 46.7283C152.031 46.882 152.016 47.0049 151.954 47.0971C151.923 47.1893 151.907 47.3123 151.907 47.4659C152.156 47.804 152.357 48.0499 152.512 48.2035C152.698 48.3572 152.838 48.5108 152.931 48.6645C153.086 48.9104 153.272 49.1409 153.489 49.356C153.706 49.5711 153.908 49.817 154.094 50.0936C154.156 50.2472 154.234 50.3702 154.327 50.4624C154.451 50.5546 154.559 50.6775 154.652 50.8312C154.901 50.8926 155.102 50.9848 155.257 51.1078C155.443 51.2307 155.661 51.369 155.909 51.5226C156.25 51.707 156.482 51.8761 156.607 52.0297C156.762 52.1527 156.948 52.2602 157.165 52.3524C157.32 52.4139 157.444 52.4446 157.537 52.4446C157.63 52.4139 157.723 52.4139 157.816 52.4446C157.971 52.5061 158.142 52.6137 158.328 52.7673C158.514 52.921 158.716 53.0132 158.933 53.0439C159.274 53.0132 159.522 53.0132 159.677 53.0439C159.832 53.0439 159.972 53.0593 160.096 53.09C160.499 53.1208 160.871 53.0286 161.213 52.8134C161.368 52.8134 161.492 52.8134 161.585 52.8134C161.678 52.8134 161.802 52.7981 161.957 52.7673C162.236 52.5829 162.438 52.4907 162.562 52.4907C162.717 52.4907 162.841 52.46 162.934 52.3985C163.027 52.3063 163.105 52.2602 163.167 52.2602C163.26 52.2295 163.337 52.1988 163.399 52.168C163.585 52.1066 163.741 52.0297 163.865 51.9375C164.02 51.8453 164.175 51.7378 164.33 51.6148C164.547 51.4919 164.749 51.3536 164.935 51.2C165.245 51.0156 165.509 50.7543 165.726 50.4163C165.974 50.0782 166.237 49.7862 166.517 49.5404C166.548 49.1716 166.61 48.8643 166.703 48.6184C166.796 48.3725 166.92 48.142 167.075 47.9269C167.075 47.5889 167.106 47.3276 167.168 47.1432C167.261 46.9281 167.37 46.7283 167.494 46.5439C167.649 46.5132 167.788 46.4825 167.912 46.4517C168.036 46.421 168.192 46.4364 168.378 46.4978C168.471 46.5593 168.548 46.6208 168.61 46.6822C168.703 46.713 168.827 46.7591 168.982 46.8205C169.076 46.882 169.169 46.9281 169.262 46.9588C169.386 46.9588 169.556 46.9896 169.773 47.051C169.991 47.1432 170.146 47.1893 170.239 47.1893C170.332 47.1893 170.425 47.2047 170.518 47.2354C170.766 47.3584 170.983 47.4045 171.169 47.3737C171.386 47.343 171.572 47.3584 171.727 47.4198C172.069 47.6657 172.27 47.8501 172.332 47.973C172.332 48.3418 172.224 48.6799 172.007 48.9872C171.852 49.3253 171.774 49.5404 171.774 49.6326C171.805 49.694 171.805 49.8016 171.774 49.9553C171.743 50.0475 171.696 50.1243 171.634 50.1858C171.572 50.2472 171.526 50.3394 171.495 50.4624C171.433 50.6468 171.386 50.8312 171.355 51.0156C171.324 51.1692 171.262 51.3383 171.169 51.5226C170.921 51.83 170.719 52.0605 170.564 52.2141C170.44 52.3371 170.301 52.4293 170.146 52.4907C170.208 52.6444 170.177 52.7673 170.053 52.8595C169.928 52.921 169.835 52.9825 169.773 53.0439C169.68 53.259 169.541 53.4281 169.355 53.551C169.2 53.6739 169.013 53.8122 168.796 53.9659C168.548 54.181 168.285 54.3654 168.005 54.5191C167.757 54.6728 167.509 54.8264 167.261 54.9801C166.92 55.2567 166.687 55.4564 166.563 55.5794C166.439 55.6716 166.284 55.7484 166.098 55.8099C165.943 55.8713 165.819 55.9328 165.726 55.9943C165.664 56.025 165.617 56.0404 165.586 56.0404C165.431 56.1018 165.26 56.1326 165.074 56.1326C164.888 56.1326 164.702 56.1633 164.516 56.2248C164.175 56.3477 163.88 56.4245 163.632 56.4553C163.384 56.5167 163.136 56.5782 162.888 56.6397C162.732 56.7011 162.593 56.7472 162.469 56.7779C162.345 56.8087 162.159 56.8087 161.911 56.7779C161.6 56.7165 161.368 56.7318 161.213 56.824C161.058 56.9162 160.902 56.9009 160.747 56.7779C160.406 56.8394 160.112 56.9009 159.863 56.9623C159.646 57.0238 159.445 57.0392 159.259 57.0084C159.165 57.0084 159.072 56.9931 158.979 56.9623C158.886 56.9316 158.793 56.9009 158.7 56.8701C158.111 56.7779 157.63 56.7165 157.258 56.6857C156.917 56.655 156.607 56.5935 156.327 56.5014C156.234 56.4706 156.141 56.4553 156.048 56.4553C155.955 56.4553 155.878 56.3938 155.816 56.2709C155.505 56.3323 155.211 56.3016 154.932 56.1787C154.683 56.025 154.482 55.8713 154.327 55.7177C154.234 55.7177 154.141 55.7023 154.048 55.6716C153.986 55.6408 153.908 55.6101 153.815 55.5794C153.598 55.4872 153.381 55.395 153.164 55.3028C152.947 55.1798 152.776 54.9954 152.652 54.7496C152.404 54.7496 152.218 54.6881 152.094 54.5652C152 54.4423 151.876 54.3193 151.721 54.1964C151.473 54.1964 151.241 54.1349 151.023 54.012C150.837 53.8583 150.682 53.6893 150.558 53.5049C150.31 53.1976 150.077 52.9517 149.86 52.7673C149.519 52.4293 149.255 52.1527 149.069 51.9375C148.883 51.6917 148.651 51.5226 148.371 51.4305C148.309 51.2461 148.216 51.0924 148.092 50.9695C147.968 50.8465 147.844 50.7082 147.72 50.5546C147.565 50.2472 147.456 50.0475 147.394 49.9553C147.332 49.8631 147.27 49.7862 147.208 49.7248C147.146 49.4789 147.084 49.2484 147.022 49.0333C146.991 48.7874 146.945 48.5416 146.883 48.2957C146.79 47.9577 146.743 47.7118 146.743 47.5581C146.743 47.4045 146.728 47.2508 146.697 47.0971C146.666 47.0049 146.619 46.9127 146.557 46.8205C146.526 46.7283 146.495 46.6361 146.464 46.5439C146.433 46.3903 146.417 46.2366 146.417 46.083C146.448 45.9293 146.448 45.7603 146.417 45.5759C146.386 45.4222 146.355 45.2839 146.324 45.161C146.293 45.0073 146.278 44.8536 146.278 44.7C146.278 44.4849 146.293 44.2697 146.324 44.0546C146.355 43.8087 146.371 43.5629 146.371 43.317C146.371 43.2555 146.355 43.1787 146.324 43.0865C146.324 42.9636 146.324 42.8714 146.324 42.8099C146.355 42.6563 146.402 42.5026 146.464 42.3489C146.557 42.1645 146.619 41.9955 146.65 41.8418C146.588 41.5652 146.572 41.3655 146.603 41.2425C146.666 41.1196 146.666 41.0274 146.603 40.966C146.666 40.9045 146.712 40.8277 146.743 40.7355C146.774 40.6125 146.805 40.5203 146.836 40.4589C146.867 40.3667 146.883 40.2591 146.883 40.1362C146.883 40.0132 146.914 39.8749 146.976 39.7213C147.131 39.4754 147.224 39.3371 147.255 39.3064C147.317 39.2449 147.363 39.1988 147.394 39.1681C147.425 38.953 147.456 38.8147 147.487 38.7532C147.518 38.661 147.565 38.5842 147.627 38.5227C147.782 38.2154 147.875 38.031 147.906 37.9695C147.968 37.908 148.015 37.8466 148.046 37.7851C148.077 37.5393 148.108 37.401 148.139 37.3702C148.17 37.3395 148.201 37.2934 148.232 37.2319C148.294 37.0475 148.325 36.8939 148.325 36.7709C148.356 36.6173 148.402 36.4636 148.465 36.3099C148.527 36.1563 148.604 36.0026 148.697 35.849C148.79 35.6646 148.914 35.5109 149.069 35.388C149.224 35.0192 149.364 34.7118 149.488 34.466C149.612 34.1894 149.736 33.9282 149.86 33.6823C150.139 33.4672 150.372 33.2213 150.558 32.9447C150.775 32.6681 151.023 32.4223 151.303 32.2071C151.365 32.1457 151.427 32.1149 151.489 32.1149C151.582 32.0842 151.69 32.0381 151.814 31.9766C152.156 31.7308 152.404 31.5464 152.559 31.4234C152.714 31.2698 152.9 31.1468 153.117 31.0546C153.303 30.9932 153.582 30.9624 153.955 30.9624C154.358 30.9317 154.637 30.8088 154.792 30.5937C154.978 30.5937 155.164 30.5629 155.35 30.5015C155.536 30.4093 155.723 30.3171 155.909 30.2249C156.033 30.1634 156.172 30.1019 156.327 30.0405C156.482 29.9483 156.7 29.9175 156.979 29.9483C157.196 29.979 157.397 29.9944 157.584 29.9944C157.801 29.9636 158.033 29.9175 158.281 29.8561C158.406 29.8253 158.545 29.7946 158.7 29.7639C158.855 29.7331 159.026 29.7178 159.212 29.7178C159.677 29.7792 160.034 29.81 160.282 29.81C160.561 29.81 160.871 29.8253 161.213 29.8561C161.368 29.8561 161.523 29.8407 161.678 29.81C161.864 29.7485 162.05 29.7178 162.236 29.7178C162.391 29.7485 162.531 29.7639 162.655 29.7639C162.81 29.7639 162.965 29.7792 163.12 29.81C163.337 29.8714 163.461 29.9022 163.492 29.9022C163.554 29.9022 163.601 29.9022 163.632 29.9022C163.787 29.9329 163.911 29.9944 164.004 30.0866C164.128 30.148 164.268 30.2095 164.423 30.271C164.485 30.3324 164.562 30.3632 164.656 30.3632C164.78 30.3632 164.873 30.3939 164.935 30.4554C165.059 30.4861 165.245 30.5629 165.493 30.6859C165.71 30.7473 165.912 30.8088 166.098 30.8702C166.284 30.9317 166.408 31.07 166.47 31.2851C166.811 31.3773 167.059 31.5003 167.214 31.6539C167.401 31.8076 167.571 31.9305 167.726 32.0227C167.85 32.1149 167.974 32.2532 168.098 32.4376C168.223 32.5913 168.362 32.7142 168.517 32.8064C168.548 32.8986 168.579 32.9754 168.61 33.0369C168.672 33.0984 168.719 33.1906 168.75 33.3135C168.998 33.4672 169.215 33.6669 169.401 33.9128C169.587 34.1279 169.851 34.297 170.192 34.4199C170.285 34.635 170.394 34.8194 170.518 34.9731C170.642 35.1267 170.719 35.3419 170.75 35.6185C170.812 35.7107 170.875 35.8182 170.937 35.9412C171.03 36.0334 171.123 36.1563 171.216 36.3099C171.247 36.3714 171.293 36.4482 171.355 36.5404C171.448 36.6326 171.51 36.7248 171.541 36.817C171.696 37.1551 171.867 37.4778 172.053 37.7851C172.115 37.8773 172.193 37.9849 172.286 38.1078C172.41 38.2307 172.503 38.369 172.565 38.5227C172.596 38.6456 172.611 38.7686 172.611 38.8915C172.611 39.0144 172.627 39.1374 172.658 39.2603C172.72 39.4139 172.767 39.5522 172.798 39.6752C172.829 39.7674 172.86 39.8442 172.891 39.9057C172.953 40.1515 172.968 40.3974 172.937 40.6433C172.906 40.8584 172.906 41.0889 172.937 41.3347C172.968 41.5191 172.984 41.7189 172.984 41.934C173.015 42.1184 173.046 42.3028 173.077 42.4872C173.077 42.7331 173.092 42.9328 173.123 43.0865L173.263 43.5936ZM166.61 39.9057C166.672 39.8442 166.672 39.7366 166.61 39.583C166.579 39.4293 166.501 39.3218 166.377 39.2603C166.315 39.0452 166.222 38.9222 166.098 38.8915C166.005 38.83 166.005 38.7378 166.098 38.6149C166.005 38.5227 165.881 38.4459 165.726 38.3844C165.571 38.3229 165.509 38.2 165.54 38.0156C165.384 38.0463 165.276 38.0156 165.214 37.9234C165.183 37.8005 165.136 37.7236 165.074 37.6929C164.857 37.5393 164.718 37.3856 164.656 37.2319C164.594 37.0783 164.5 36.9553 164.376 36.8631C164.283 36.8017 164.175 36.8017 164.051 36.8631C163.958 36.8939 163.911 36.817 163.911 36.6326C163.415 36.6634 163.027 36.5865 162.748 36.4021C162.5 36.187 162.252 35.9565 162.004 35.7107C161.724 35.7721 161.414 35.7875 161.073 35.7568C160.732 35.726 160.406 35.726 160.096 35.7568C159.848 35.6031 159.615 35.5416 159.398 35.5724C159.212 35.5724 158.979 35.5263 158.7 35.4341C158.576 35.4033 158.499 35.3419 158.468 35.2497C158.468 35.1267 158.39 35.0653 158.235 35.0653C158.018 35.1575 157.801 35.1575 157.584 35.0653C157.397 34.9731 157.18 34.9116 156.932 34.8809C156.684 35.0345 156.42 35.1421 156.141 35.2036C155.862 35.2343 155.583 35.2958 155.304 35.388C155.149 35.4494 154.978 35.6031 154.792 35.849C154.606 36.0641 154.466 36.2177 154.373 36.3099C154.156 36.5558 153.939 36.8017 153.722 37.0475C153.505 37.2934 153.303 37.5393 153.117 37.7851C153.148 37.9695 153.133 38.1232 153.071 38.2461C153.009 38.3383 152.993 38.4612 153.024 38.6149C152.807 38.7686 152.652 39.0144 152.559 39.3525C152.497 39.6598 152.435 39.9671 152.373 40.2745C152.59 40.3052 152.838 40.3052 153.117 40.2745C153.396 40.2437 153.691 40.213 154.001 40.1823C154.094 40.1515 154.187 40.1362 154.28 40.1362C154.404 40.1362 154.513 40.1362 154.606 40.1362C155.071 40.044 155.474 40.0132 155.816 40.044C156.157 40.044 156.467 40.0286 156.746 39.9979C157.056 39.9979 157.351 39.9825 157.63 39.9518C157.94 39.8903 158.219 39.921 158.468 40.044C158.809 39.8903 159.196 39.8288 159.631 39.8596C160.096 39.8903 160.468 39.921 160.747 39.9518C160.995 39.9518 161.135 39.9364 161.166 39.9057C161.197 39.8749 161.228 39.8749 161.259 39.9057C162.159 39.8442 163.043 39.8749 163.911 39.9979C164.811 40.0901 165.71 40.0593 166.61 39.9057Z" fill="white"/>
<path d="M146.691 57.4498C146.691 57.6649 146.629 57.8493 146.505 58.003C146.381 58.1567 146.288 58.3103 146.226 58.464C146.071 58.4947 145.916 58.5101 145.76 58.5101C145.605 58.5408 145.45 58.5408 145.295 58.5101C145.171 58.5101 145.047 58.4794 144.923 58.4179C144.83 58.3872 144.721 58.3411 144.597 58.2796C144.442 58.2489 144.303 58.2181 144.179 58.1874C144.086 58.1874 143.992 58.1413 143.899 58.0491C143.713 58.1413 143.543 58.172 143.388 58.1413C143.233 58.1106 143.062 58.1259 142.876 58.1874C142.783 58.2489 142.674 58.295 142.55 58.3257C142.457 58.3564 142.364 58.4025 142.271 58.464C142.116 58.4947 142.007 58.5408 141.945 58.6023C141.914 58.6638 141.821 58.6945 141.666 58.6945C141.263 58.6945 140.968 58.5716 140.782 58.3257C140.596 58.0798 140.317 57.9108 139.945 57.8186C139.79 57.6342 139.619 57.4498 139.433 57.2654C139.247 57.1118 139.03 56.9581 138.782 56.8044C138.72 56.743 138.673 56.6661 138.642 56.5739C138.642 56.4817 138.611 56.4049 138.549 56.3434C138.084 55.9132 137.68 55.5444 137.339 55.2371C136.998 54.899 136.672 54.5917 136.362 54.3151C136.145 54.0692 135.928 53.8387 135.711 53.6236C135.525 53.4085 135.339 53.1472 135.153 52.8399C135.059 52.7477 134.951 52.6709 134.827 52.6094C134.734 52.5479 134.718 52.4404 134.78 52.2867C134.625 52.2867 134.501 52.2406 134.408 52.1484C134.346 52.0255 134.253 51.9179 134.129 51.8257C133.974 51.6413 133.834 51.5184 133.71 51.4569C133.586 51.3647 133.54 51.2418 133.571 51.0881C133.229 50.9652 132.966 50.7808 132.78 50.5349C132.625 50.2584 132.392 50.0432 132.082 49.8896C132.051 49.7666 132.004 49.6744 131.942 49.613C131.911 49.5515 131.865 49.4439 131.803 49.2903C131.648 49.2595 131.524 49.1981 131.43 49.1059C131.368 49.0137 131.229 48.9522 131.012 48.9215C131.012 48.7678 130.95 48.6603 130.826 48.5988C130.733 48.5373 130.655 48.4759 130.593 48.4144C130.531 48.3529 130.453 48.2761 130.36 48.1839C130.267 48.0917 130.174 48.0302 130.081 47.9995C129.957 48.0917 129.911 48.2146 129.942 48.3683C129.973 48.522 129.988 48.6756 129.988 48.8293C129.926 49.2288 129.911 49.5361 129.942 49.7513C129.973 49.9664 129.895 50.1201 129.709 50.2123C129.771 50.6425 129.818 51.1189 129.849 51.6413C129.911 52.1638 129.926 52.7323 129.895 53.347C129.833 53.6236 129.818 53.8387 129.849 53.9924C129.911 54.1153 129.942 54.2229 129.942 54.3151C129.88 54.5609 129.864 54.73 129.895 54.8222C129.957 54.9144 129.988 54.9758 129.988 55.0066C129.988 55.2217 130.004 55.3754 130.035 55.4676C130.097 55.5597 130.128 55.6212 130.128 55.652C130.128 55.8671 130.143 56.0361 130.174 56.159C130.236 56.2512 130.283 56.3434 130.314 56.4356C130.252 56.5893 130.174 56.6969 130.081 56.7583C129.988 56.8505 129.911 56.9735 129.849 57.1271C129.849 57.3115 129.895 57.4344 129.988 57.4959C130.081 57.5574 130.159 57.6188 130.221 57.6803C130.345 58.0184 130.345 58.3103 130.221 58.5562C130.097 58.8328 129.911 59.0479 129.662 59.2016C129.135 59.2016 128.716 59.1094 128.406 58.925C128.096 58.7406 127.755 58.5869 127.383 58.464C126.855 58.464 126.375 58.464 125.94 58.464C125.506 58.464 125.041 58.4179 124.545 58.3257C124.483 58.172 124.405 58.0337 124.312 57.9108C124.219 57.8186 124.203 57.6496 124.265 57.4037C124.296 57.3115 124.296 57.2193 124.265 57.1271C124.265 57.0349 124.265 56.912 124.265 56.7583C124.327 56.5432 124.327 56.3895 124.265 56.2973C124.234 56.2359 124.219 56.1744 124.219 56.1129C124.126 55.5905 124.11 55.1295 124.172 54.73C124.234 54.2997 124.296 53.8234 124.359 53.3009C124.39 52.9628 124.39 52.717 124.359 52.5633C124.327 52.3789 124.296 52.2099 124.265 52.0562C124.265 51.9026 124.265 51.7489 124.265 51.5952C124.296 51.4416 124.312 51.2879 124.312 51.1342C124.281 50.9498 124.281 50.8115 124.312 50.7193C124.374 50.5964 124.405 50.5042 124.405 50.4428C124.405 50.3198 124.374 50.1969 124.312 50.074C124.25 49.951 124.203 49.8127 124.172 49.6591C124.172 49.5361 124.157 49.3978 124.126 49.2442C124.126 49.0905 124.126 48.9522 124.126 48.8293C124.126 48.5834 124.11 48.3529 124.079 48.1378C124.079 47.8919 124.079 47.6614 124.079 47.4463C124.079 47.0775 124.095 46.6473 124.126 46.1555C124.157 45.6638 124.157 45.1875 124.126 44.7265C124.064 44.5113 124.033 44.3577 124.033 44.2655C124.064 44.1733 124.079 44.0811 124.079 43.9889C124.079 43.8045 124.048 43.5586 123.986 43.2513C123.955 42.944 124.017 42.7135 124.172 42.5598C124.203 42.4676 124.188 42.3754 124.126 42.2832C124.095 42.191 124.079 42.0988 124.079 42.0066C124.048 41.8837 124.048 41.7454 124.079 41.5917C124.11 41.4073 124.141 41.2383 124.172 41.0846C124.172 40.9924 124.157 40.9002 124.126 40.808C124.126 40.6851 124.141 40.5775 124.172 40.4853C124.141 40.2395 124.157 40.0397 124.219 39.8861C124.281 39.7324 124.327 39.548 124.359 39.3329C124.359 39.1792 124.343 39.0409 124.312 38.918C124.281 38.795 124.265 38.6567 124.265 38.5031C124.265 38.4109 124.281 38.3033 124.312 38.1804C124.343 38.0575 124.359 37.9499 124.359 37.8577C124.421 37.5504 124.452 37.3045 124.452 37.1201C124.452 36.9664 124.421 36.8281 124.359 36.7052C124.327 36.5516 124.312 36.3979 124.312 36.2442C124.374 35.9984 124.405 35.814 124.405 35.691C124.343 35.353 124.312 35.1225 124.312 34.9996C124.312 34.8766 124.312 34.7691 124.312 34.6769C124.281 34.6154 124.234 34.5386 124.172 34.4464C124.11 34.3234 124.079 34.2005 124.079 34.0776C124.141 33.9239 124.157 33.7088 124.126 33.4322C124.126 33.1249 124.095 32.9405 124.033 32.879C124.033 32.8483 124.033 32.7561 124.033 32.6024C124.033 32.418 124.033 32.2336 124.033 32.0492C124.033 31.8341 124.033 31.6497 124.033 31.496C124.064 31.3116 124.079 31.1887 124.079 31.1272C124.079 30.8199 124.079 30.5279 124.079 30.2513C124.11 29.944 124.126 29.6367 124.126 29.3294C124.095 29.022 124.033 28.7301 123.94 28.4535C123.878 28.1461 123.847 27.8388 123.847 27.5315C123.847 27.3471 123.862 27.1627 123.893 26.9783C123.955 26.7632 124.002 26.5634 124.033 26.379C124.033 26.1024 124.002 25.918 123.94 25.8258C123.909 25.7029 123.893 25.6107 123.893 25.5492C123.862 25.4263 123.847 25.3034 123.847 25.1804C123.847 25.0268 123.847 24.8731 123.847 24.7194C123.816 24.5658 123.785 24.4429 123.754 24.3507C123.723 24.2277 123.707 24.1048 123.707 23.9819C123.769 23.7053 123.785 23.4748 123.754 23.2904C123.723 23.0752 123.738 22.8909 123.8 22.7372C123.738 22.6143 123.645 22.5989 123.521 22.6911C123.428 22.7833 123.35 22.7679 123.288 22.645C123.133 22.2455 123.102 21.9842 123.195 21.8613C123.319 21.7384 123.35 21.5386 123.288 21.262C123.537 21.2006 123.769 21.1545 123.986 21.1237C124.234 21.093 124.483 21.1545 124.731 21.3081C124.979 21.2159 125.227 21.1391 125.475 21.0776C125.723 20.9854 126.018 20.9701 126.359 21.0315C126.421 21.0008 126.483 20.9701 126.545 20.9393C126.638 20.9086 126.731 20.8625 126.824 20.801C127.259 20.8625 127.646 20.9086 127.988 20.9393C128.329 20.9393 128.763 20.9393 129.29 20.9393C129.414 21.0008 129.507 21.093 129.569 21.2159C129.631 21.3388 129.709 21.4464 129.802 21.5386C129.74 21.7537 129.725 21.9535 129.756 22.1379C129.787 22.2916 129.818 22.4913 129.849 22.7372C129.911 22.983 129.942 23.2289 129.942 23.4748C129.818 23.8128 129.756 24.1048 129.756 24.3507C129.756 24.5658 129.756 24.7348 129.756 24.8577C129.693 25.5646 129.678 26.1485 129.709 26.6095C129.771 27.0705 129.833 27.5315 129.895 27.9925C129.957 28.1461 129.988 28.3766 129.988 28.684C130.019 28.9606 130.035 29.2218 130.035 29.4677C130.035 29.6521 130.004 29.8364 129.942 30.0208C129.911 30.1745 129.911 30.3282 129.942 30.4818C129.973 30.7892 130.05 31.0965 130.174 31.4038C130.329 31.7111 130.329 31.9877 130.174 32.2336C130.267 32.4487 130.36 32.71 130.453 33.0173C130.546 33.3246 130.515 33.6012 130.36 33.8471C130.515 34.1851 130.562 34.3849 130.5 34.4464C130.469 34.4771 130.453 34.5232 130.453 34.5847C130.608 34.7691 130.655 35.0456 130.593 35.4144C130.531 35.7832 130.484 36.1213 130.453 36.4286C130.515 36.6745 130.531 36.8435 130.5 36.9357C130.469 36.9972 130.453 37.0586 130.453 37.1201C130.453 37.2738 130.484 37.4428 130.546 37.6272C130.64 37.7809 130.655 37.9499 130.593 38.1343C130.81 38.0421 130.996 37.8731 131.151 37.6272C131.461 37.3813 131.725 37.1355 131.942 36.8896C132.19 36.613 132.423 36.3364 132.64 36.0598C132.888 35.9062 133.059 35.7832 133.152 35.691C133.276 35.5681 133.369 35.4759 133.431 35.4144C133.617 35.1993 133.741 35.0764 133.803 35.0456C133.896 35.0149 133.974 34.9688 134.036 34.9074C134.129 34.8459 134.191 34.7998 134.222 34.7691C134.284 34.7076 134.408 34.6769 134.594 34.6769C134.904 34.4925 135.106 34.3388 135.199 34.2159C135.323 34.0622 135.494 33.9854 135.711 33.9854C135.773 33.7395 135.866 33.5705 135.99 33.4783C136.145 33.3861 136.254 33.2478 136.316 33.0634C136.378 33.0019 136.44 32.9558 136.502 32.9251C136.564 32.8636 136.657 32.8329 136.781 32.8329C136.905 32.6792 137.06 32.5102 137.246 32.3258C137.463 32.1414 137.68 31.9263 137.898 31.6804C138.146 31.4346 138.316 31.2502 138.409 31.1272C138.502 30.9736 138.611 30.8506 138.735 30.7584C138.952 30.6048 139.076 30.4972 139.107 30.4357C139.138 30.3743 139.185 30.3128 139.247 30.2513C139.402 30.0977 139.619 29.944 139.898 29.7904C140.177 29.606 140.488 29.6674 140.829 29.9747C141.077 29.9133 141.34 29.9286 141.62 30.0208C141.93 30.113 142.209 30.1899 142.457 30.2513C142.674 30.3128 142.876 30.3589 143.062 30.3896C143.279 30.4204 143.434 30.5279 143.527 30.7123C144.054 30.4972 144.628 30.5126 145.249 30.7584C145.311 30.9121 145.373 31.0811 145.435 31.2655C145.528 31.4192 145.543 31.665 145.481 32.0031C145.388 32.0646 145.295 32.1568 145.202 32.2797C145.14 32.3719 145.001 32.418 144.783 32.418C144.69 32.4795 144.613 32.5717 144.551 32.6946C144.489 32.7868 144.411 32.8636 144.318 32.9251C144.132 33.0173 143.992 33.1249 143.899 33.2478C143.806 33.34 143.713 33.4322 143.62 33.5244C143.558 33.5858 143.465 33.6473 143.341 33.7088C143.217 33.7395 143.093 33.801 142.969 33.8932C142.783 34.0776 142.659 34.2005 142.597 34.262C142.566 34.3234 142.535 34.3695 142.504 34.4003C142.349 34.5847 142.224 34.6922 142.131 34.723C142.038 34.723 141.992 34.7383 141.992 34.7691C141.837 35.0764 141.666 35.353 141.48 35.5988C141.294 35.814 141.061 35.9676 140.782 36.0598C140.658 36.2135 140.534 36.3825 140.41 36.5669C140.286 36.7206 140.146 36.8435 139.991 36.9357C139.929 36.9972 139.852 37.0586 139.759 37.1201C139.666 37.1508 139.588 37.243 139.526 37.3967C139.247 37.7348 138.983 37.9653 138.735 38.0882C138.518 38.2111 138.363 38.3955 138.27 38.6414C138.053 38.8872 137.836 39.0563 137.618 39.1485C137.432 39.2407 137.262 39.3636 137.107 39.5173C136.952 39.8553 136.734 40.1319 136.455 40.347C136.176 40.5622 135.928 40.7927 135.711 41.0385C135.37 41.1615 135.184 41.2998 135.153 41.4534C135.122 41.5764 135.059 41.7147 134.966 41.8683C134.904 41.9605 134.811 42.0527 134.687 42.1449C134.563 42.2064 134.455 42.2832 134.362 42.3754C134.269 42.4369 134.191 42.5137 134.129 42.6059C134.098 42.6981 134.036 42.7749 133.943 42.8364C134.067 43.2052 134.253 43.4972 134.501 43.7123C134.749 43.9274 134.951 44.204 135.106 44.5421C135.385 44.7879 135.68 45.0031 135.99 45.1875C136.3 45.3718 136.61 45.6023 136.921 45.8789C137.169 46.0019 137.386 46.1555 137.572 46.3399C137.696 46.4629 137.789 46.6012 137.851 46.7548C137.944 46.9085 138.053 47.0468 138.177 47.1697C138.27 47.3234 138.363 47.4617 138.456 47.5846C138.58 47.6768 138.673 47.7997 138.735 47.9534C138.983 48.1071 139.2 48.2761 139.386 48.4605C139.572 48.6449 139.759 48.8446 139.945 49.0598C140.1 49.1827 140.255 49.3364 140.41 49.5208C140.565 49.6744 140.689 49.8588 140.782 50.074C141.061 50.1969 141.294 50.3659 141.48 50.5811C141.697 50.7654 141.899 50.9652 142.085 51.1803C142.271 51.3955 142.457 51.6106 142.643 51.8257C142.829 52.0409 143.062 52.2099 143.341 52.3328C143.403 52.6401 143.527 52.8706 143.713 53.0243C143.899 53.178 144.101 53.347 144.318 53.5314C144.349 53.7465 144.411 53.9463 144.504 54.1307C144.597 54.2843 144.675 54.4534 144.737 54.6378C145.078 54.8529 145.311 55.068 145.435 55.2832C145.559 55.4676 145.729 55.5905 145.947 55.652C145.978 55.8671 146.086 56.0207 146.272 56.1129C146.241 56.2666 146.226 56.3742 146.226 56.4356C146.257 56.5278 146.288 56.62 146.319 56.7122C146.381 56.8659 146.443 56.9888 146.505 57.081C146.598 57.1732 146.66 57.2962 146.691 57.4498Z" fill="white"/>
<path d="M118.055 30.7313C118.055 30.8235 118.008 30.9465 117.915 31.1001C117.853 31.2538 117.822 31.3921 117.822 31.515C117.853 31.7302 117.853 31.8685 117.822 31.9299C117.822 31.9914 117.822 32.0529 117.822 32.1143C117.853 32.268 117.853 32.3756 117.822 32.437C117.791 32.4985 117.791 32.5599 117.822 32.6214C117.853 32.8058 117.838 32.9441 117.776 33.0363C117.745 33.1285 117.729 33.2053 117.729 33.2668C117.698 33.359 117.698 33.4666 117.729 33.5895C117.76 33.6817 117.776 33.7739 117.776 33.8661C117.714 34.112 117.667 34.3117 117.636 34.4654C117.636 34.5883 117.621 34.6805 117.59 34.742C117.59 34.8956 117.574 35.0647 117.543 35.2491C117.543 35.4335 117.559 35.6332 117.59 35.8484C117.59 35.9098 117.605 35.9866 117.636 36.0788C117.698 36.171 117.729 36.2632 117.729 36.3554C117.76 36.6935 117.745 37.0469 117.683 37.4157C117.652 37.7845 117.652 38.1379 117.683 38.476C117.683 38.6297 117.698 38.768 117.729 38.8909C117.76 39.0138 117.76 39.1521 117.729 39.3058C117.729 39.5209 117.698 39.7207 117.636 39.9051C117.574 40.0895 117.528 40.3046 117.497 40.5505C117.528 40.7349 117.528 40.95 117.497 41.1958C117.466 41.411 117.497 41.5954 117.59 41.749C117.528 41.9642 117.45 42.1486 117.357 42.3022C117.419 42.7325 117.404 43.1474 117.311 43.5469C117.248 43.9464 117.217 44.3613 117.217 44.7916C117.248 44.9452 117.279 45.0989 117.311 45.2526C117.342 45.3755 117.357 45.5138 117.357 45.6675C117.357 45.7289 117.342 45.8058 117.311 45.898C117.279 45.9902 117.264 46.0824 117.264 46.1746C117.326 46.4511 117.326 46.6509 117.264 46.7738C117.233 46.8968 117.202 46.989 117.171 47.0504C117.14 47.3885 117.124 47.6651 117.124 47.8802C117.124 48.0646 117.047 48.2797 116.892 48.5256C116.799 48.6793 116.783 48.9251 116.845 49.2632C116.907 49.5705 116.861 49.8317 116.706 50.0469C116.768 50.2313 116.783 50.4003 116.752 50.554C116.752 50.7076 116.752 50.9074 116.752 51.1533C116.783 51.5835 116.768 51.8908 116.706 52.0752C116.675 52.2289 116.659 52.3826 116.659 52.5362C116.628 52.905 116.644 53.2584 116.706 53.5965C116.768 53.9038 116.814 54.2112 116.845 54.5185C116.721 54.8258 116.752 55.087 116.938 55.3022C117.124 55.5173 117.217 55.7478 117.217 55.9937C117.155 56.1473 117.109 56.2703 117.078 56.3625C117.047 56.4854 117.031 56.5622 117.031 56.5929C116.876 56.6544 116.737 56.7159 116.613 56.7773C116.489 56.8695 116.364 56.931 116.24 56.9617C116.147 56.9617 116.054 56.9464 115.961 56.9156C115.868 56.8849 115.76 56.8695 115.636 56.8695C115.511 56.8388 115.356 56.8388 115.17 56.8695C115.015 56.931 114.86 56.9617 114.705 56.9617C114.55 56.9925 114.364 56.9925 114.147 56.9617C113.961 56.9617 113.79 56.9925 113.635 57.0539C113.449 57.0847 113.263 57.1461 113.077 57.2383C112.922 57.3305 112.766 57.3766 112.611 57.3766C112.394 57.5918 112.208 57.684 112.053 57.6532C111.898 57.6532 111.789 57.6686 111.727 57.6993C111.541 57.5457 111.386 57.2998 111.262 56.9617C111.138 56.6237 111.169 56.3625 111.355 56.1781C111.2 55.7785 111.169 55.3329 111.262 54.8412C111.355 54.3495 111.355 53.8577 111.262 53.366C111.014 53.4582 110.781 53.5811 110.564 53.7348C110.378 53.8885 110.192 54.0575 110.006 54.2419C109.913 54.3034 109.835 54.3956 109.773 54.5185C109.711 54.6107 109.618 54.6875 109.494 54.749C109.37 54.8104 109.23 54.8719 109.075 54.9334C108.92 54.9948 108.812 55.0717 108.75 55.1639C108.595 55.2253 108.424 55.2561 108.238 55.2561C108.083 55.2561 107.928 55.2868 107.773 55.3483C107.556 55.4097 107.338 55.4712 107.121 55.5327C106.904 55.5634 106.656 55.6095 106.377 55.671C106.191 55.7324 105.943 55.8093 105.632 55.9015C105.322 55.9937 104.997 56.009 104.655 55.9476C104.407 55.8861 104.237 55.8861 104.144 55.9476C104.082 55.9783 104.004 55.9937 103.911 55.9937C103.663 56.0551 103.399 56.0244 103.12 55.9015C103.058 56.0244 102.903 56.0551 102.655 55.9937C102.438 55.9322 102.267 55.8707 102.143 55.8093C101.895 55.9015 101.662 55.9168 101.445 55.8554C101.228 55.7939 100.995 55.7478 100.747 55.7171C100.592 55.7171 100.499 55.671 100.468 55.5788C100.468 55.4866 100.406 55.4251 100.282 55.3944C99.5996 55.4251 98.8707 55.3483 98.0953 55.1639C98.0333 55.0409 97.9402 54.9487 97.8161 54.8873C97.7231 54.8258 97.661 54.7183 97.63 54.5646C97.4749 54.5953 97.3664 54.5646 97.3043 54.4724C97.2733 54.3802 97.1803 54.3341 97.0252 54.3341C96.9632 54.1804 96.8701 54.0729 96.746 54.0114C96.653 53.9192 96.5754 53.827 96.5134 53.7348C96.3583 53.7348 96.2342 53.7041 96.1412 53.6426C96.0792 53.5811 95.9706 53.5504 95.8155 53.5504C95.6294 53.3045 95.5209 53.1662 95.4898 53.1355C95.4588 53.1048 95.4278 53.074 95.3968 53.0433C95.2417 52.9204 95.1176 52.8589 95.0246 52.8589C94.9625 52.8589 94.916 52.8436 94.885 52.8128C94.7299 52.6592 94.6058 52.5362 94.5128 52.444C94.4197 52.3518 94.3267 52.2443 94.2336 52.1213C94.0475 51.8755 93.8924 51.7218 93.7684 51.6603C93.6443 51.5681 93.5978 51.4145 93.6288 51.1994C93.3496 51.015 93.1635 50.892 93.0705 50.8306C93.0085 50.7384 92.9464 50.6462 92.8844 50.554C92.7603 50.4003 92.6828 50.2466 92.6518 50.093C92.6207 49.9393 92.5432 49.8317 92.4191 49.7703C92.202 49.4322 92.0314 49.171 91.9073 48.9866C91.7833 48.7715 91.6127 48.6332 91.3956 48.5717C91.4576 48.418 91.4576 48.3258 91.3956 48.2951C91.3335 48.2644 91.318 48.1875 91.349 48.0646C91.1009 47.8495 90.9148 47.5883 90.7907 47.2809C90.6666 46.9736 90.5581 46.6509 90.465 46.3128C90.372 45.9441 90.2944 45.5906 90.2324 45.2526C90.1704 44.8838 90.0773 44.5303 89.9532 44.1923C89.9843 43.762 89.9998 43.3164 89.9998 42.8554C89.9998 42.3637 90.0773 41.9334 90.2324 41.5646C90.3255 41.3495 90.372 41.1651 90.372 41.0115C90.372 40.8578 90.3875 40.7041 90.4185 40.5505C90.4495 40.3968 90.465 40.2585 90.465 40.1356C90.496 39.9819 90.5271 39.8282 90.5581 39.6746C90.6511 39.1829 90.7287 38.8141 90.7907 38.5682C90.8838 38.3223 91.0078 38.1072 91.1629 37.9228C91.1009 37.7077 91.1009 37.5233 91.1629 37.3696C91.225 37.1852 91.3025 37.0316 91.3956 36.9086C91.4886 36.755 91.5817 36.6013 91.6747 36.4476C91.7678 36.294 91.8143 36.1249 91.8143 35.9405C91.9694 35.8176 92.0779 35.6793 92.14 35.5257C92.233 35.3413 92.3416 35.1722 92.4656 35.0186C92.5277 34.8956 92.6052 34.7573 92.6983 34.6037C92.7913 34.45 92.8844 34.2963 92.9774 34.1427C93.0395 34.0505 93.117 33.9583 93.2101 33.8661C93.3341 33.7739 93.3807 33.651 93.3496 33.4973C93.4427 33.4358 93.5202 33.3744 93.5823 33.3129C93.6443 33.2514 93.7529 33.19 93.908 33.1285C94.1561 32.7597 94.3577 32.437 94.5128 32.1604C94.6679 31.8531 94.854 31.5765 95.0711 31.3306C95.1952 31.2077 95.3037 31.1155 95.3968 31.054C95.5209 30.9618 95.6449 30.8696 95.769 30.7774C95.831 30.6238 95.9396 30.5316 96.0947 30.5009C96.2808 30.4394 96.3893 30.3318 96.4204 30.1782C96.7305 30.1167 97.0407 30.0552 97.3509 29.9938C97.661 29.9016 97.9402 29.7633 98.1883 29.5789C98.3744 29.5481 98.5605 29.5328 98.7467 29.5328C98.9638 29.502 99.1499 29.4252 99.305 29.3023C99.6151 29.3637 99.8633 29.3484 100.049 29.2562C100.235 29.1332 100.406 29.0103 100.561 28.8874C101.057 28.8874 101.523 28.8874 101.957 28.8874C102.422 28.8567 102.918 28.8567 103.446 28.8874C103.694 28.8874 103.927 28.872 104.144 28.8413C104.392 28.8106 104.609 28.8106 104.795 28.8413C104.95 28.8413 105.09 28.8413 105.214 28.8413C105.338 28.8413 105.446 28.8874 105.539 28.9796C105.819 28.8567 106.082 28.872 106.33 29.0257C106.392 29.0564 106.47 29.0718 106.563 29.0718C106.656 29.0411 106.78 29.0564 106.935 29.1179C107.245 29.2101 107.447 29.2562 107.54 29.2562C107.664 29.2562 107.757 29.2562 107.819 29.2562C108.067 29.3791 108.222 29.4559 108.284 29.4867C108.347 29.5174 108.455 29.5942 108.61 29.7172C109.013 29.963 109.324 30.1474 109.541 30.2704C109.789 30.3626 110.021 30.4855 110.239 30.6392C110.394 30.8235 110.502 30.9311 110.564 30.9618C110.626 30.9926 110.688 31.0387 110.75 31.1001C110.812 31.1616 110.874 31.2384 110.936 31.3306C110.998 31.3921 111.076 31.4689 111.169 31.5611C111.231 31.6841 111.324 31.7916 111.448 31.8838C111.572 31.976 111.696 32.0836 111.82 32.2065C111.882 32.268 111.929 32.3448 111.96 32.437C112.022 32.5292 112.1 32.606 112.193 32.6675C112.255 32.729 112.348 32.8212 112.472 32.9441C112.627 33.0363 112.704 33.1592 112.704 33.3129C112.829 32.8826 112.86 32.437 112.797 31.976C112.735 31.4843 112.642 31.0694 112.518 30.7313C112.425 30.547 112.332 30.4087 112.239 30.3165C112.146 30.1935 112.146 29.9938 112.239 29.7172C112.27 29.5942 112.332 29.4559 112.425 29.3023C112.549 29.1486 112.642 29.0411 112.704 28.9796C112.704 29.0103 112.813 29.0411 113.03 29.0718C113.247 29.0718 113.433 29.0718 113.588 29.0718C113.744 29.1025 113.868 29.1332 113.961 29.164C114.085 29.164 114.209 29.164 114.333 29.164C114.674 29.164 115.093 29.1793 115.589 29.2101C116.085 29.2408 116.504 29.3176 116.845 29.4406C117.093 29.3791 117.295 29.3945 117.45 29.4867C117.605 29.5481 117.776 29.6096 117.962 29.6711C117.993 29.794 117.993 29.9016 117.962 29.9938C117.962 30.0552 117.977 30.1474 118.008 30.2704L118.055 30.7313ZM111.309 41.7951C111.247 41.7029 111.2 41.58 111.169 41.4263C111.169 41.2419 111.169 41.0729 111.169 40.9193C111.107 40.8271 111.03 40.7656 110.936 40.7349C110.874 40.6734 110.812 40.6119 110.75 40.5505C110.75 40.3046 110.704 40.1048 110.611 39.9512C110.549 39.7975 110.502 39.6438 110.471 39.4902C110.533 39.2443 110.518 39.0753 110.425 38.9831C110.363 38.8602 110.316 38.7372 110.285 38.6143C110.223 38.4606 110.192 38.307 110.192 38.1533C110.192 37.9689 110.177 37.7845 110.146 37.6001C109.99 37.5079 109.897 37.4157 109.866 37.3235C109.835 37.2313 109.789 37.1545 109.727 37.093C109.479 36.8472 109.293 36.6628 109.168 36.5398C109.044 36.4169 108.92 36.294 108.796 36.171C108.517 35.8944 108.222 35.6947 107.912 35.5718C107.664 35.4181 107.431 35.2952 107.214 35.203C106.997 35.08 106.796 34.9725 106.61 34.8803C106.423 34.7881 106.237 34.742 106.051 34.742C105.865 34.742 105.648 34.7112 105.4 34.6498C105.245 34.5883 105.121 34.5422 105.028 34.5115C104.935 34.45 104.842 34.4039 104.748 34.3732C104.686 34.3732 104.593 34.3885 104.469 34.4193C104.345 34.4193 104.221 34.4039 104.097 34.3732C104.004 34.3732 103.896 34.3578 103.771 34.3271C103.678 34.2656 103.601 34.2349 103.539 34.2349C103.229 34.2963 102.996 34.2963 102.841 34.2349C102.686 34.1427 102.577 34.1273 102.515 34.1888C102.205 34.2195 101.988 34.281 101.864 34.3732C101.771 34.4654 101.616 34.5729 101.399 34.6959C101.119 34.8188 100.933 34.911 100.84 34.9725C100.778 35.0032 100.716 35.0339 100.654 35.0647C100.344 35.2183 100.127 35.3413 100.003 35.4335C99.8788 35.5257 99.7702 35.6025 99.6772 35.664C99.46 35.7562 99.336 35.833 99.305 35.8945C99.2739 35.9252 99.2274 35.9405 99.1654 35.9405C99.1033 36.0327 99.0413 36.1096 98.9793 36.171C98.9172 36.2325 98.8552 36.3093 98.7932 36.4015C98.6071 36.5552 98.452 36.6935 98.3279 36.8164C98.2038 36.9086 98.1108 36.9855 98.0488 37.0469C97.8627 37.2313 97.6455 37.3696 97.3974 37.4618C97.3664 37.7999 97.2578 38.0611 97.0717 38.2455C96.8856 38.3992 96.7926 38.645 96.7926 38.9831C96.6685 39.1368 96.5754 39.2904 96.5134 39.4441C96.4514 39.567 96.3893 39.7053 96.3273 39.859C96.2653 40.0434 96.2187 40.2431 96.1877 40.4583C96.1877 40.6427 96.1567 40.8578 96.0947 41.1036C96.0326 41.288 95.9706 41.4417 95.9086 41.5646C95.8465 41.6876 95.8 41.8259 95.769 41.9795C95.831 42.4098 95.8155 42.7325 95.7225 42.9476C95.6604 43.132 95.6139 43.3471 95.5829 43.593C95.5829 43.7159 95.5984 43.8389 95.6294 43.9618C95.6914 44.0847 95.7225 44.223 95.7225 44.3767C95.7225 44.6225 95.707 44.8069 95.6759 44.9299C95.6449 45.0221 95.6294 45.0989 95.6294 45.1604C95.6604 45.3755 95.7225 45.5753 95.8155 45.7597C95.9396 45.9441 95.9706 46.1592 95.9086 46.405C96.1257 46.5587 96.3273 46.7124 96.5134 46.866C96.6995 47.0197 96.9166 47.158 97.1648 47.2809C97.3819 47.6497 97.6455 47.9571 97.9557 48.2029C98.2659 48.4488 98.5605 48.6946 98.8397 48.9405C99.1189 49.2478 99.429 49.463 99.7702 49.5859C100.049 49.7395 100.266 49.8471 100.422 49.9086C100.608 49.9393 100.778 49.97 100.933 50.0008C101.026 50.0315 101.135 50.0776 101.259 50.1391C101.414 50.1698 101.523 50.2005 101.585 50.2313C102.112 50.2927 102.593 50.3849 103.027 50.5079C103.461 50.6001 103.849 50.6462 104.19 50.6462C104.283 50.6769 104.392 50.6923 104.516 50.6923C104.64 50.6615 104.748 50.6308 104.842 50.6001C104.966 50.6001 105.09 50.6001 105.214 50.6001C105.369 50.6001 105.493 50.5847 105.586 50.554C105.834 50.431 105.989 50.3696 106.051 50.3696C106.113 50.3696 106.175 50.3542 106.237 50.3235C106.33 50.2927 106.439 50.2466 106.563 50.1852C106.687 50.1237 106.811 50.1544 106.935 50.2774C107.028 50.093 107.152 49.9393 107.307 49.8164C107.494 49.6934 107.664 49.5859 107.819 49.4937C107.974 49.3708 108.114 49.2325 108.238 49.0788C108.393 48.9251 108.486 48.7254 108.517 48.4795C108.672 48.2336 108.812 48.0646 108.936 47.9724C109.06 47.8495 109.168 47.7266 109.262 47.6036C109.324 47.5114 109.37 47.4039 109.401 47.2809C109.463 47.1273 109.525 47.0197 109.587 46.9582C109.742 46.7124 109.851 46.5126 109.913 46.3589C110.006 46.1746 110.13 46.0055 110.285 45.8519C110.223 45.6982 110.223 45.5599 110.285 45.437C110.378 45.2833 110.456 45.145 110.518 45.0221C110.673 44.5918 110.781 44.1923 110.843 43.8235C110.905 43.424 110.936 42.963 110.936 42.4405C111.092 42.2254 111.216 42.0103 111.309 41.7951Z" fill="white"/>
<path d="M88.7408 56.2237C88.6478 56.4081 88.4462 56.5925 88.136 56.7769C87.8879 56.8999 87.7173 56.9921 87.6242 57.0535C87.5622 57.1457 87.5001 57.1918 87.4381 57.1918C87.0969 57.2533 86.8488 57.2072 86.6937 57.0535C86.2595 57.1764 85.8562 57.2225 85.484 57.1918C85.1428 57.1611 84.8016 57.1918 84.4605 57.284C84.3054 57.3147 84.1813 57.3608 84.0882 57.4223C83.9952 57.5145 83.8866 57.5913 83.7626 57.6528C83.5765 57.7143 83.4059 57.7296 83.2508 57.6989C83.1267 57.6989 82.9716 57.6989 82.7855 57.6989C82.6614 57.6067 82.5529 57.4838 82.4598 57.3301C82.3978 57.2072 82.3358 57.0689 82.2737 56.9152C82.0256 56.7308 81.8395 56.5464 81.7154 56.362C81.6534 56.3006 81.5914 56.2237 81.5293 56.1315C81.4983 56.0086 81.4518 55.9164 81.3897 55.8549C81.1726 55.5783 81.002 55.3171 80.878 55.0713C80.7539 54.7947 80.6608 54.5642 80.5988 54.3798C80.5057 54.2568 80.3972 54.1339 80.2731 54.011C80.1801 53.888 80.087 53.7497 79.994 53.5961C79.9009 53.4732 79.7923 53.3502 79.6683 53.2273C79.5442 53.0736 79.4512 52.9353 79.3891 52.8124C79.3271 52.6895 79.2961 52.5819 79.2961 52.4897C79.2961 52.3668 79.2651 52.2438 79.203 52.1209C79.11 51.9365 78.9859 51.7675 78.8308 51.6138C78.7067 51.4602 78.6292 51.2604 78.5982 51.0145C78.4741 50.8916 78.35 50.7687 78.226 50.6457C78.1329 50.4921 77.9778 50.3845 77.7607 50.323C77.6987 50.1079 77.5901 49.9389 77.435 49.816C77.311 49.6623 77.2024 49.4625 77.1094 49.2167C77.0473 49.1245 76.9543 48.9247 76.8302 48.6174C76.7682 48.5252 76.7216 48.433 76.6906 48.3408C76.6906 48.2179 76.6596 48.1103 76.5976 48.0181C76.5045 47.8644 76.3649 47.7415 76.1788 47.6493C76.0237 47.5571 75.9152 47.3881 75.8532 47.1422C75.605 47.1422 75.4344 47.0807 75.3414 46.9578C75.2793 46.8041 75.1398 46.712 74.9226 46.6812C74.7675 46.3739 74.5659 46.0973 74.3178 45.8514C74.1007 45.6056 73.8991 45.3136 73.713 44.9756C73.2787 44.7604 72.891 44.4838 72.5498 44.1458C72.2086 43.8077 71.8054 43.5157 71.3401 43.2699C71.2161 42.9933 70.9369 42.8243 70.5027 42.7628C70.3476 42.9779 70.2855 43.2392 70.3166 43.5465C70.3476 43.8231 70.3321 44.0997 70.27 44.3763C70.239 44.7143 70.177 45.0524 70.0839 45.3904C70.0219 45.6978 69.9444 45.9744 69.8513 46.2202C69.7893 46.3739 69.8048 46.4815 69.8978 46.5429C69.9909 46.5737 70.0219 46.6659 69.9909 46.8195C69.9599 46.9117 69.9133 47.0193 69.8513 47.1422C69.8203 47.2651 69.8203 47.3881 69.8513 47.511C69.8513 47.6647 69.8823 47.8183 69.9444 47.972C70.0374 48.0949 70.0839 48.264 70.0839 48.4791C70.115 48.6942 70.0839 48.9708 69.9909 49.3089C69.9288 49.6469 69.8823 49.9389 69.8513 50.1848C69.8823 50.4306 69.8823 50.5843 69.8513 50.6457C69.8513 50.7072 69.8513 50.7687 69.8513 50.8301C69.8513 51.076 69.8513 51.2911 69.8513 51.4755C69.8513 51.6599 69.8358 51.8597 69.8048 52.0748C69.8358 52.4129 69.8203 52.6741 69.7583 52.8585C69.6962 53.0122 69.6497 53.1658 69.6187 53.3195C69.6807 53.5346 69.6962 53.6576 69.6652 53.6883C69.6342 53.719 69.6187 53.7651 69.6187 53.8266C69.6187 53.9188 69.6342 54.011 69.6652 54.1032C69.6962 54.1954 69.6962 54.2722 69.6652 54.3337C69.6342 54.6717 69.5721 54.933 69.4791 55.1174C69.4171 55.3018 69.4171 55.563 69.4791 55.901C69.5411 56.1162 69.5877 56.2545 69.6187 56.3159C69.6497 56.4081 69.6497 56.485 69.6187 56.5464C69.5877 56.7616 69.4791 56.9459 69.293 57.0996C69.1069 57.2533 69.0138 57.4223 69.0138 57.6067C68.6416 57.576 68.3004 57.6067 67.9903 57.6989C67.7111 57.7911 67.432 57.7604 67.1528 57.6067C66.9357 57.6682 66.672 57.7296 66.3619 57.7911C66.0517 57.8526 65.757 57.8679 65.4779 57.8372C65.1367 57.745 64.904 57.7143 64.78 57.745C64.6869 57.7757 64.6094 57.7604 64.5473 57.6989C64.4853 57.0843 64.4078 56.5772 64.3147 56.1776C64.2217 55.7781 64.2992 55.4247 64.5473 55.1174C64.5473 55.0252 64.5318 54.933 64.5008 54.8408C64.4698 54.7486 64.4698 54.641 64.5008 54.5181C64.5318 54.18 64.5163 53.9341 64.4543 53.7805C64.4233 53.6268 64.4078 53.4885 64.4078 53.3656C64.4388 53.2427 64.4698 53.1351 64.5008 53.0429C64.5629 52.9507 64.5939 52.8585 64.5939 52.7663C64.6249 52.6126 64.6094 52.459 64.5473 52.3053C64.4853 52.1209 64.4543 51.9365 64.4543 51.7521C64.4543 51.5985 64.4698 51.4294 64.5008 51.245C64.5318 51.0606 64.5473 50.8916 64.5473 50.7379C64.5473 50.5843 64.5008 50.4152 64.4078 50.2308C64.3457 50.0465 64.3768 49.8621 64.5008 49.6777C64.5629 49.5547 64.5784 49.3703 64.5473 49.1245C64.5473 48.8786 64.5473 48.6327 64.5473 48.3869C64.5473 48.2332 64.5473 48.0949 64.5473 47.972C64.5784 47.8491 64.6094 47.7108 64.6404 47.5571C64.6404 47.3727 64.6249 47.2037 64.5939 47.05C64.5939 46.8656 64.5939 46.6966 64.5939 46.5429C64.5939 46.4815 64.6094 46.4046 64.6404 46.3124C64.6714 46.1895 64.6714 46.0973 64.6404 46.0358C64.5784 45.7592 64.5473 45.5441 64.5473 45.3904C64.5784 45.2368 64.5939 45.1138 64.5939 45.0217C64.6249 44.868 64.6249 44.7143 64.5939 44.5607C64.5939 44.3763 64.6094 44.1765 64.6404 43.9614C64.6404 43.8384 64.6249 43.7155 64.5939 43.5926C64.5629 43.4696 64.5629 43.3314 64.5939 43.1777C64.6249 42.9011 64.6249 42.7167 64.5939 42.6245C64.5629 42.5323 64.5318 42.4401 64.5008 42.3479C64.5008 42.2557 64.5163 42.1635 64.5473 42.0713C64.5784 41.9791 64.5939 41.8715 64.5939 41.7486C64.5939 41.5028 64.5629 41.2262 64.5008 40.9188C64.4388 40.6115 64.4078 40.3349 64.4078 40.089C64.4698 39.4744 64.4388 39.1363 64.3147 39.0749C64.3768 38.9212 64.4233 38.7829 64.4543 38.66C64.4853 38.537 64.5163 38.3987 64.5473 38.2451C64.5473 38.03 64.5318 37.8148 64.5008 37.5997C64.4698 37.3846 64.4853 37.108 64.5473 36.7699C64.5784 36.7084 64.6094 36.6316 64.6404 36.5394C64.7024 36.4472 64.7334 36.355 64.7334 36.2628C64.7334 36.1399 64.7179 36.017 64.6869 35.894C64.6559 35.7711 64.6559 35.6328 64.6869 35.4791C64.6869 35.2025 64.7024 34.9106 64.7334 34.6033C64.7645 34.2959 64.811 33.9886 64.873 33.6813C64.9351 33.4047 64.9506 33.2049 64.9196 33.082C64.8885 32.959 64.873 32.8515 64.873 32.7593C64.873 32.5442 64.904 32.3444 64.9661 32.16C65.0281 31.9756 65.0281 31.7605 64.9661 31.5146C64.9661 31.4531 64.9506 31.3763 64.9196 31.2841C64.9196 31.1612 64.9196 31.0229 64.9196 30.8692C64.9506 30.5619 64.9506 30.3468 64.9196 30.2238C64.8885 30.0702 64.873 29.9319 64.873 29.8089C64.9351 29.5631 64.9506 29.4248 64.9196 29.3941C64.8885 29.3633 64.873 29.3172 64.873 29.2558C64.9351 29.1328 64.9506 29.056 64.9196 29.0253C64.8885 28.9638 64.873 28.8716 64.873 28.7487C64.904 28.5028 64.9196 28.303 64.9196 28.1494C64.9506 27.965 64.9506 27.7191 64.9196 27.4118C64.8575 27.1967 64.842 27.0737 64.873 27.043C64.9351 27.0123 64.9506 26.9662 64.9196 26.9047C64.9196 26.8125 64.8885 26.7049 64.8265 26.582C64.7645 26.4591 64.7024 26.3361 64.6404 26.2132C64.7024 26.0288 64.7179 25.8137 64.6869 25.5678C64.6559 25.322 64.6559 25.0761 64.6869 24.8302C64.6869 24.7688 64.7024 24.6919 64.7334 24.5997C64.7645 24.4768 64.78 24.3846 64.78 24.3232C64.6869 24.0773 64.6249 23.9083 64.5939 23.8161C64.5939 23.6931 64.5784 23.6009 64.5473 23.5395C64.5163 23.4165 64.4698 23.2936 64.4078 23.1707C64.3457 23.0477 64.3147 22.9402 64.3147 22.848C64.3147 22.6636 64.3612 22.4946 64.4543 22.3409C64.5473 22.1872 64.6404 22.0336 64.7334 21.8799C64.7955 21.8184 64.8575 21.7723 64.9196 21.7416C65.0126 21.6801 65.1212 21.6648 65.2452 21.6955C65.3073 21.634 65.3693 21.5726 65.4313 21.5111C65.5244 21.4189 65.6174 21.3421 65.7105 21.2806C65.9586 21.2191 66.1447 21.2499 66.2688 21.3728C66.4239 21.465 66.579 21.5418 66.7341 21.6033C66.9822 21.5418 67.2459 21.5265 67.525 21.5572C67.8042 21.5572 68.1143 21.5265 68.4555 21.465C68.7347 21.4035 68.9363 21.3882 69.0604 21.4189C69.1844 21.4189 69.2775 21.4189 69.3395 21.4189C69.7427 21.3267 70.0684 21.2806 70.3166 21.2806C70.5647 21.2806 70.7818 21.296 70.9679 21.3267C71.2161 21.3267 71.3556 21.3421 71.3867 21.3728C71.4487 21.4035 71.5107 21.4189 71.5728 21.4189C71.7279 21.3574 71.8674 21.3574 71.9915 21.4189C72.1156 21.4496 72.2396 21.4804 72.3637 21.5111C72.6118 21.5418 72.86 21.5572 73.1081 21.5572C73.3563 21.5572 73.6044 21.5726 73.8525 21.6033C74.1007 21.634 74.3488 21.6648 74.597 21.6955C74.8761 21.7262 75.1398 21.7877 75.3879 21.8799C75.4809 21.9106 75.574 21.9567 75.667 22.0182C75.7601 22.0797 75.8532 22.1258 75.9462 22.1565C76.0703 22.1872 76.2099 22.2026 76.3649 22.2026C76.551 22.1719 76.7216 22.1872 76.8767 22.2487C77.2179 22.3102 77.5436 22.4177 77.8538 22.5714C78.195 22.6943 78.5361 22.7865 78.8773 22.848C79.0324 22.9094 79.203 22.9709 79.3891 23.0324C79.5752 23.0631 79.7458 23.1399 79.9009 23.2629C80.3352 23.2629 80.7229 23.309 81.0641 23.4012C81.4052 23.4626 81.6999 23.5548 81.9481 23.6778C82.1031 23.7392 82.2737 23.8007 82.4598 23.8622C82.677 23.9236 82.8476 24.0158 82.9716 24.1388C83.1267 24.2617 83.2663 24.3693 83.3904 24.4614C83.5144 24.5536 83.6385 24.6612 83.7626 24.7841C83.9487 24.9378 84.0572 25.0607 84.0882 25.1529C84.1503 25.2144 84.2123 25.2759 84.2743 25.3373C84.4605 25.491 84.569 25.6139 84.6 25.7061C84.6621 25.7983 84.7241 25.8598 84.7861 25.8905C84.9412 25.9827 85.0498 26.0749 85.1118 26.1671C85.2049 26.2286 85.2979 26.2747 85.391 26.3054C85.453 26.5513 85.5616 26.7357 85.7167 26.8586C85.9028 26.9815 86.0734 27.1198 86.2284 27.2735C86.3835 27.5501 86.4766 27.7652 86.5076 27.9189C86.5386 28.0725 86.6162 28.1801 86.7402 28.2416C86.8953 28.764 86.9884 29.225 87.0194 29.6245C87.0504 30.0241 87.19 30.3314 87.4381 30.5465C87.4071 30.7924 87.4226 31.0229 87.4846 31.238C87.5777 31.4224 87.6707 31.6222 87.7638 31.8373C87.7018 31.991 87.6863 32.1446 87.7173 32.2983C87.7483 32.4212 87.7638 32.5595 87.7638 32.7132C87.7638 32.8669 87.7173 33.0205 87.6242 33.1742C87.5622 33.3278 87.5932 33.4661 87.7173 33.5891C87.5932 33.9579 87.4691 34.342 87.3451 34.7415C87.252 35.1103 87.0969 35.4638 86.8798 35.8018C86.8178 35.8633 86.7712 35.9401 86.7402 36.0323C86.7092 36.0938 86.6162 36.1245 86.4611 36.1245C86.4921 36.3089 86.4611 36.4472 86.368 36.5394C86.275 36.6009 86.2284 36.7084 86.2284 36.8621C85.9803 37.0158 85.7787 37.1694 85.6236 37.3231C85.4995 37.446 85.36 37.6304 85.2049 37.8763C85.1118 37.9992 85.0188 38.0914 84.9257 38.1529C84.8637 38.2143 84.7551 38.2912 84.6 38.3834C84.3519 38.537 84.1658 38.6446 84.0417 38.7061C83.9177 38.7675 83.8091 38.829 83.716 38.8905C83.4989 38.9827 83.3593 39.0595 83.2973 39.121C83.2663 39.1824 83.2198 39.2285 83.1577 39.2593C83.0647 39.3207 82.9561 39.3822 82.832 39.4437C82.739 39.4744 82.6459 39.5205 82.5529 39.582C82.3668 39.7356 82.2272 39.8278 82.1342 39.8586C82.0721 39.8893 82.0256 39.92 81.9946 39.9507C81.7154 40.0737 81.4052 40.1966 81.0641 40.3195C80.7539 40.4117 80.4437 40.5654 80.1335 40.7805C79.9785 40.7191 79.8234 40.7344 79.6683 40.8266C79.5132 40.9188 79.3426 40.9957 79.1565 41.0571C78.9084 41.1186 78.6912 41.1493 78.5051 41.1493C78.35 41.1186 78.2415 41.2262 78.1794 41.472C78.1174 41.6871 78.1794 41.8408 78.3656 41.933C78.5827 42.0252 78.7843 42.1481 78.9704 42.3018C79.0324 42.4555 79.11 42.6091 79.203 42.7628C79.3271 42.8857 79.4822 42.9779 79.6683 43.0394C79.9164 43.2853 80.056 43.5004 80.087 43.6848C80.149 43.8692 80.3041 43.9767 80.5523 44.0075C80.6143 44.1611 80.7384 44.3609 80.9245 44.6068C81.1416 44.7912 81.2502 44.9141 81.2502 44.9756C81.2812 45.037 81.3122 45.0985 81.3432 45.1599C81.4983 45.4058 81.6069 45.5441 81.6689 45.5748C81.7309 45.6056 81.7619 45.6517 81.7619 45.7131C81.886 45.8975 82.0101 46.0973 82.1342 46.3124C82.2892 46.5276 82.3978 46.7581 82.4598 47.0039C82.5529 47.0961 82.6459 47.1883 82.739 47.2805C82.832 47.3727 82.9406 47.4649 83.0647 47.5571C83.0647 47.68 83.0802 47.7722 83.1112 47.8337C83.1732 47.8952 83.2043 47.9874 83.2043 48.1103C83.3904 48.3254 83.592 48.5405 83.8091 48.7557C84.0262 48.9708 84.1813 49.2474 84.2743 49.5855C84.3674 49.6469 84.4449 49.7238 84.507 49.816C84.569 49.8774 84.6621 49.9235 84.7861 49.9543C84.8792 50.2616 85.0188 50.5382 85.2049 50.784C85.422 50.9992 85.6236 51.245 85.8097 51.5216C85.9028 51.6753 86.0423 51.829 86.2284 51.9826C86.3525 52.1363 86.4611 52.3053 86.5541 52.4897C86.6472 52.6434 86.7557 52.797 86.8798 52.9507C87.0349 53.1966 87.1434 53.4117 87.2055 53.5961C87.2985 53.7497 87.4226 53.8573 87.5777 53.9188C87.6087 54.0724 87.6552 54.1954 87.7173 54.2876C87.8103 54.349 87.8413 54.472 87.8103 54.6564C87.9344 54.7178 88.0585 54.7947 88.1825 54.8869C88.3066 54.9483 88.4462 55.0098 88.6013 55.0713C88.6633 55.3171 88.7098 55.5322 88.7408 55.7166C88.8029 55.8703 88.8029 56.0393 88.7408 56.2237ZM82.2737 31.7912C82.1186 31.4839 82.0256 31.2688 81.9946 31.1458C81.9946 31.0229 81.9791 30.9307 81.9481 30.8692C81.917 30.777 81.855 30.7002 81.7619 30.6387C81.6999 30.5773 81.6379 30.5004 81.5758 30.4082C81.4208 30.1009 81.2812 29.9011 81.1571 29.8089C81.0641 29.7475 80.9865 29.6706 80.9245 29.5785C80.8624 29.4555 80.7849 29.3787 80.6919 29.348C80.4437 29.1636 80.2731 29.0099 80.1801 28.887C80.118 28.764 80.0095 28.7179 79.8544 28.7487C79.7923 28.5643 79.6528 28.4567 79.4356 28.426C79.2495 28.3645 79.1255 28.2416 79.0634 28.0572C78.8153 28.0264 78.6137 27.965 78.4586 27.8728C78.3035 27.7806 78.1329 27.673 77.9468 27.5501C77.8538 27.5808 77.7607 27.6269 77.6677 27.6884C77.6056 27.7499 77.4971 27.7652 77.342 27.7345C77.1869 27.7038 77.0473 27.6577 76.9232 27.5962C76.8302 27.5347 76.7061 27.4886 76.551 27.4579C76.2099 27.4886 75.9617 27.4886 75.8066 27.4579C75.6515 27.3964 75.5275 27.3657 75.4344 27.3657C75.1242 27.2428 74.8761 27.1813 74.69 27.1813C74.4419 27.1506 74.1782 27.1659 73.8991 27.2274C73.6199 27.2581 73.3408 27.2889 73.0616 27.3196C72.5343 27.3196 72.0225 27.2889 71.5262 27.2274C71.03 27.1659 70.5337 27.1659 70.0374 27.2274C69.9754 27.3503 69.9754 27.4579 70.0374 27.5501C70.1305 27.6116 70.177 27.7191 70.177 27.8728C70.146 28.2108 70.146 28.4567 70.177 28.6104C70.208 28.7333 70.2235 28.8562 70.2235 28.9792C70.1615 29.225 70.146 29.3787 70.177 29.4402C70.208 29.5016 70.2235 29.5477 70.2235 29.5785V30.3621C70.1615 30.7617 70.1305 31.1612 70.1305 31.5607C70.1615 31.9295 70.1615 32.3137 70.1305 32.7132C70.1305 33.1742 70.115 33.5891 70.0839 33.9579C70.0839 34.2959 70.0684 34.6494 70.0374 35.0181C70.0684 35.3562 70.0529 35.5867 69.9909 35.7096C69.9599 35.8018 69.9444 35.9094 69.9444 36.0323C69.9133 36.3397 69.9444 36.6777 70.0374 37.0465C70.3786 37.1387 70.7043 37.1848 71.0145 37.1848C71.3556 37.1848 71.6038 37.1848 71.7589 37.1848C71.976 37.2155 72.1001 37.2309 72.1311 37.2309C72.1931 37.2002 72.2862 37.1848 72.4102 37.1848C72.7204 37.2155 72.9996 37.2616 73.2477 37.3231C73.5269 37.3538 73.8215 37.3385 74.1317 37.277C74.2868 37.277 74.4264 37.277 74.5504 37.277C74.7055 37.2463 74.8606 37.2155 75.0157 37.1848C75.2638 37.0926 75.4344 37.0465 75.5275 37.0465C75.6515 37.0465 75.7446 37.0465 75.8066 37.0465C76.1478 36.9236 76.3804 36.8621 76.5045 36.8621C76.6286 36.8314 76.7216 36.8006 76.7837 36.7699C77.404 36.524 77.8538 36.355 78.1329 36.2628C78.5672 36.1092 78.8928 36.0016 79.11 35.9401C79.3581 35.8787 79.5752 35.8326 79.7613 35.8018C79.8544 35.5252 80.0405 35.3562 80.3196 35.2947C80.5988 35.2333 80.7694 35.0335 80.8314 34.6954C80.9245 34.634 81.0175 34.6033 81.1106 34.6033C81.2347 34.6033 81.3122 34.5418 81.3432 34.4189C81.4363 34.1423 81.5293 33.8503 81.6224 33.543C81.7154 33.2356 81.8395 32.9744 81.9946 32.7593C81.9636 32.5134 81.9791 32.3598 82.0411 32.2983C82.1342 32.2061 82.2117 32.0371 82.2737 31.7912Z" fill="white"/>
<path d="M48.937 27.3168C48.3837 28.5822 47.0159 29.9782 46.4011 30.518L36.1357 20.4917C41.0683 15.6571 45.3128 17.3475 46.8479 18.5992C50.5059 21.582 49.6159 25.597 48.937 27.3168Z" stroke="white" stroke-width="4.42037" stroke-linecap="round" stroke-linejoin="round"/>
<path d="M43.8072 24.6363C39.9298 19.6976 30.1598 18.6999 25.0054 18.9086C16.4749 19.254 9.97702 22.8928 6.55047 26.2514C5.41556 27.3638 4.85106 28.9043 4.71732 30.4889C3.71733 42.3373 6.32127 47.8575 7.80643 50.4199C10.0388 54.2714 16.3236 58.1803 20.0095 59.1527C30.4419 61.9051 36.9839 59.6474 40.1295 57.9522C48.038 53.6901 50.3135 44.5924 49.9393 40.6128C49.0838 31.5139 45.7785 27.1471 43.8072 24.6363Z" stroke="white" stroke-width="4.42037" stroke-linecap="round" stroke-linejoin="round"/>
<path fill-rule="evenodd" clip-rule="evenodd" d="M15.1661 20.3593C16.0898 21.2355 16.5687 22.2518 16.6672 22.7093C17.0011 24.2607 18.5417 25.2484 20.1082 24.9154C21.6746 24.5825 22.6738 23.0549 22.3398 21.5035C21.9675 19.7735 20.8256 17.767 19.1805 16.2064C17.4823 14.5955 14.9986 13.2324 11.8958 13.3464L11.886 13.3467L11.886 13.3468C9.80649 13.4301 5.07485 14.4759 2.07325 18.3491C0.798875 19.9935 -0.137171 22.4944 0.255173 25.3959C0.653717 28.3432 2.37155 31.3601 5.78187 34.1281C7.01997 35.133 8.84734 34.9522 9.86342 33.7243C10.8795 32.4963 10.6995 30.6862 9.46142 29.6813C6.92145 27.6197 6.16648 25.8272 6.00395 24.6252C5.83522 23.3774 6.24982 22.3891 6.67205 21.8443C8.24133 19.8193 11.0051 19.1341 12.1077 19.0883C13.2655 19.0473 14.2969 19.5347 15.1661 20.3593Z" fill="white"/>
<path fill-rule="evenodd" clip-rule="evenodd" d="M11.406 12.8881C12.0702 12.7447 12.8234 12.6384 13.5673 12.81C13.8512 12.8755 14.1051 13 14.2943 13.0928C14.3032 13.0972 14.312 13.1015 14.3206 13.1057C14.5339 13.2101 14.6765 13.2761 14.8187 13.3069C15.3991 13.4325 16.0125 13.6056 16.5627 13.7688C17.1196 13.9339 17.704 14.2602 18.1341 14.5136C18.23 14.5701 18.3318 14.6258 18.4439 14.6869L18.4588 14.695C18.5641 14.7524 18.6783 14.8147 18.7912 14.8803C19.0263 15.017 19.2853 15.1846 19.5111 15.4046C19.7257 15.6137 19.9155 15.852 20.0789 16.0571C20.0949 16.0773 20.1108 16.0972 20.1263 16.1166C20.2331 16.2503 20.3302 16.3693 20.4256 16.4744C20.4317 16.4718 20.438 16.4692 20.4443 16.4666C20.472 16.4551 20.5245 16.4345 20.5873 16.4209C20.6238 16.413 20.6613 16.4046 20.6997 16.396C20.9613 16.3376 21.2674 16.2692 21.6244 16.2692C22.1005 16.2692 22.5698 16.2874 23.0265 16.305L23.0329 16.3053C23.4952 16.3231 23.9449 16.3404 24.3985 16.3404C24.9248 16.3404 25.4495 16.3063 25.997 16.2705L26.0037 16.27C26.5431 16.2347 27.1048 16.198 27.6761 16.198C28.898 16.198 30.1001 16.3821 31.2503 16.5582L31.2673 16.5608C32.4377 16.7401 33.5551 16.9102 34.6742 16.9102C34.8489 16.9102 34.9996 16.931 35.1236 16.9527C35.1907 16.9644 35.2366 16.9734 35.2752 16.981C35.3227 16.9903 35.3593 16.9975 35.4106 17.0049C35.5214 17.0208 35.5782 17.0178 35.6768 16.9644C35.7523 16.9235 35.8036 16.8872 35.8757 16.8361C35.9206 16.8043 35.9736 16.7667 36.0456 16.7187C36.2085 16.6102 36.4219 16.4867 36.7076 16.4249C36.809 16.4029 36.9209 16.3534 37.0913 16.2667C37.1093 16.2575 37.1284 16.2477 37.1483 16.2374C37.2934 16.1628 37.4874 16.063 37.6908 15.997C37.8265 15.9529 37.9602 15.8989 38.1171 15.8356L38.1265 15.8318C38.2811 15.7694 38.4584 15.698 38.647 15.639C38.8312 15.5813 39.027 15.5342 39.1994 15.4927C39.2484 15.4809 39.2955 15.4696 39.3399 15.4586C39.5554 15.4052 39.7341 15.3543 39.8912 15.2854C39.9644 15.2533 40.0391 15.2199 40.1152 15.1859C40.7639 14.896 41.5158 14.5599 42.3871 14.5599C42.6575 14.5599 42.9139 14.5303 43.2057 14.4966C43.3065 14.485 43.4115 14.4728 43.5229 14.4613C43.9332 14.4187 44.3994 14.3891 44.8925 14.4831C45.0677 14.5165 45.2376 14.5497 45.4051 14.5824C45.7318 14.6461 46.0495 14.7081 46.3797 14.7666C46.618 14.8089 46.8435 14.8678 47.0475 14.9229C47.0774 14.931 47.1067 14.939 47.1356 14.9468C47.3102 14.9942 47.4674 15.0369 47.6279 15.0716C47.9143 15.1336 48.1704 15.2827 48.3537 15.3974C48.4336 15.4474 48.5001 15.4908 48.5589 15.5292C48.6622 15.5965 48.7418 15.6484 48.8288 15.6936C49.129 15.8496 49.3061 16.031 49.4382 16.2408C49.4832 16.3123 49.5242 16.3898 49.5546 16.4474C49.5606 16.4587 49.5661 16.4692 49.5712 16.4787C49.6065 16.5449 49.6388 16.6022 49.6803 16.6627C49.8219 16.8696 49.9313 17.0906 50.0225 17.2825C50.043 17.3257 50.0625 17.3671 50.0812 17.407C50.1512 17.5558 50.2112 17.6835 50.2799 17.8062C50.3325 17.9001 50.417 18.002 50.5404 18.1236C50.6206 18.2026 50.6893 18.2644 50.7653 18.3328C50.8222 18.384 50.8832 18.4389 50.9562 18.5075C51.3703 18.8965 51.7826 19.2839 52.108 19.8877C52.4126 20.453 52.532 20.9449 52.6562 21.4566C52.6718 21.521 52.6875 21.5857 52.7037 21.651C52.8476 22.2318 52.8413 22.8305 52.836 23.3437C52.835 23.4373 52.834 23.5281 52.834 23.6154C52.834 23.8882 52.851 24.1633 52.8695 24.4601L52.8698 24.4656C52.8878 24.7549 52.9071 25.065 52.9071 25.3802C52.9071 25.9845 52.8737 26.71 52.7012 27.3581C52.6603 27.512 52.6097 27.6639 52.5656 27.7963C52.5579 27.8193 52.5504 27.8417 52.5432 27.8635C52.492 28.0186 52.451 28.1503 52.4237 28.2791C52.4056 28.3648 52.3982 28.4467 52.3878 28.5601C52.3828 28.615 52.3771 28.6773 52.3692 28.7511C52.3488 28.9411 52.3124 29.203 52.192 29.4508C52.1367 29.5644 52.0622 29.6846 52.0116 29.7662C51.9968 29.7902 51.984 29.8108 51.9743 29.827C51.9194 29.9192 51.8961 29.9725 51.885 30.0198C51.858 30.1358 51.8043 30.2278 51.7716 30.279C51.7339 30.3382 51.691 30.3935 51.6513 30.4411C51.5739 30.5338 51.4818 30.6288 51.3963 30.7128C51.5974 31.0072 51.7252 31.3463 51.8118 31.6321C51.9602 32.1217 52.0384 32.6387 52.0884 32.9692C52.0912 32.9876 52.0939 33.0054 52.0965 33.0227C52.1866 33.6151 52.3352 34.1844 52.4912 34.7818C52.5711 35.0876 52.6528 35.4009 52.7297 35.7284C52.9526 36.6786 53.109 37.6863 53.261 38.6656C53.3547 39.2689 53.4466 39.8614 53.5514 40.423C53.6899 41.165 53.7113 41.975 53.7113 42.6795C53.7113 43.6394 53.6391 44.6518 53.3606 45.6286C53.3101 45.8056 53.2642 45.997 53.2152 46.2056L53.1999 46.2707C53.1562 46.4568 53.1097 46.6552 53.0576 46.8518C52.9422 47.2872 52.7877 47.7637 52.5286 48.1794C52.4001 48.3856 52.3271 48.6295 52.2274 48.9622C52.2094 49.0222 52.1906 49.085 52.1704 49.151C52.0522 49.5382 51.8846 50.0356 51.5027 50.4283C51.2695 50.6681 51.1063 50.981 50.9209 51.3837C50.9003 51.4285 50.8792 51.4749 50.8576 51.5224C50.6984 51.8728 50.5092 52.2891 50.2392 52.6507C50.1859 52.7222 50.1381 52.8072 50.0741 52.9282C50.0678 52.9402 50.0612 52.9527 50.0543 52.9657C49.9989 53.0711 49.9276 53.2066 49.8424 53.3343C49.7633 53.4528 49.6725 53.558 49.6098 53.6306C49.5986 53.6436 49.5883 53.6555 49.5791 53.6663C49.5102 53.7471 49.4726 53.7978 49.4449 53.8519C49.3516 54.0337 49.2206 54.2534 49.071 54.4607C48.9265 54.6611 48.74 54.8847 48.5296 55.0441C48.4341 55.1165 48.3402 55.2205 48.2308 55.3668C48.1789 55.4362 48.1285 55.5081 48.0724 55.5881L48.0642 55.5999C48.0069 55.6816 47.9432 55.7723 47.876 55.8604C47.5892 56.2366 47.2512 56.5653 46.9476 56.8606C46.9268 56.8808 46.9063 56.9008 46.8859 56.9206C46.6436 57.1568 46.416 57.4039 46.1765 57.6641C46.1043 57.7426 46.0309 57.8223 45.9558 57.9032C45.639 58.2442 45.2978 58.5979 44.913 58.9151C44.8387 58.9763 44.7606 59.043 44.6787 59.113C44.2081 59.5148 43.6096 60.0257 42.8629 60.2495C42.5912 60.3309 42.3569 60.4134 42.1838 60.5218C42.0141 60.6282 41.8246 60.6955 41.7084 60.7368C41.6905 60.7431 41.6744 60.7489 41.6603 60.7541C41.527 60.803 41.4867 60.8282 41.4647 60.8486C41.3113 60.9902 41.1068 61.1427 40.8984 61.2732C40.6944 61.401 40.4504 61.5306 40.2181 61.6017C40.1091 61.6351 39.9843 61.7042 39.8062 61.8191C39.7787 61.8368 39.7491 61.8563 39.7177 61.8769C39.5723 61.9723 39.3888 62.0927 39.2057 62.1819C38.8558 62.3523 38.4526 62.4447 38.1387 62.5165C38.0605 62.5344 37.9878 62.5511 37.9228 62.5674C37.6942 62.6246 37.4651 62.6977 37.2149 62.7779L37.2032 62.7817C36.9622 62.8589 36.7011 62.9426 36.4333 63.0102C35.898 63.1454 35.3165 63.244 34.7648 63.3374C34.4478 63.3911 34.1407 63.4431 33.8579 63.4995C32.9862 63.6732 32.16 63.7798 31.2422 63.7798C31.0893 63.7798 30.9269 63.7859 30.7501 63.7933L30.6886 63.7959C30.5328 63.8026 30.3665 63.8096 30.2007 63.8126C29.8281 63.8192 29.4112 63.8067 29.013 63.7069L28.9405 63.6887C28.3808 63.5483 27.884 63.4237 27.4 63.4237C27.0474 63.4237 26.698 63.4563 26.3179 63.4923L26.3045 63.4936C25.9367 63.5284 25.5388 63.5661 25.1295 63.5661C24.3918 63.5661 23.655 63.5005 22.9508 63.4242C22.5082 63.3763 22.0768 63.2062 21.7148 63.0482C21.5961 62.9964 21.486 62.9466 21.3819 62.8995C21.1403 62.7901 20.9315 62.6956 20.7236 62.6255C20.4506 62.5335 20.1555 62.4404 19.8534 62.3451C19.3965 62.2011 18.9234 62.0519 18.4855 61.8931C18.2065 61.792 17.909 61.7195 17.5744 61.6379C17.4882 61.6168 17.3995 61.5952 17.3081 61.5723C16.8842 61.4664 16.4109 61.3353 15.9808 61.1097C15.7014 60.9631 15.424 60.8358 15.1325 60.702C15.0333 60.6565 14.9325 60.6102 14.8295 60.5622C14.4335 60.3777 14.0192 60.1736 13.6153 59.9113C13.2068 59.646 12.8508 59.3458 12.522 59.0514C12.4021 58.944 12.2889 58.8403 12.1782 58.739C11.9745 58.5524 11.7794 58.3737 11.5672 58.1945C11.2544 57.9305 10.923 57.6814 10.5755 57.4202C10.4869 57.3536 10.3972 57.2862 10.3066 57.2176C9.86907 56.8865 9.41598 56.5321 9.00654 56.1332C8.53313 55.672 8.03168 55.2291 7.51734 54.7781C7.47743 54.7431 7.43744 54.7081 7.39737 54.673C6.92454 54.2587 6.44195 53.8358 5.97839 53.3967C5.36332 52.8142 5.0146 52.1856 4.68026 51.583C4.60038 51.439 4.52133 51.2965 4.43966 51.1565C3.95088 50.3184 3.67436 49.3654 3.42394 48.5024C3.34827 48.2416 3.27498 47.989 3.19893 47.7503C3.14604 47.5843 3.10754 47.4191 3.07468 47.2781C3.04012 47.1297 3.01119 47.0058 2.97459 46.8887C2.95809 46.8358 2.92579 46.7811 2.83815 46.6411L2.83378 46.6341C2.76097 46.5178 2.64112 46.3264 2.58334 46.091C2.53651 45.9002 2.47699 45.7236 2.40955 45.5235C2.38447 45.4491 2.3583 45.3714 2.33129 45.2886C2.23731 45.0005 2.1412 44.6702 2.11009 44.3066C2.03187 43.3922 1.91514 42.4896 1.79674 41.574C1.75336 41.2385 1.70975 40.9014 1.66773 40.5612C1.51229 39.3029 1.38101 38.0204 1.38101 36.7126C1.38101 36.5397 1.37782 36.3564 1.37452 36.1673C1.36709 35.7405 1.35913 35.2839 1.38617 34.8494C1.40625 34.5265 1.45257 34.2117 1.49481 33.9248C1.49994 33.8899 1.50501 33.8554 1.50997 33.8214C1.55712 33.4978 1.59548 33.2055 1.60042 32.9124C1.61114 32.275 1.85325 31.5375 2.0318 31.0405C2.04494 31.0039 2.05808 30.9679 2.07108 30.9323C2.11602 30.8091 2.15937 30.6902 2.19593 30.5673C2.24436 30.4044 2.26088 30.296 2.25869 30.2362C2.251 30.0265 2.16471 29.807 2.00724 29.5082C1.97973 29.456 1.94865 29.3992 1.91553 29.3387C1.78217 29.0951 1.61586 28.7912 1.5178 28.4855C1.48924 28.3965 1.45309 28.3138 1.4045 28.2027C1.3899 28.1693 1.37417 28.1333 1.35719 28.0938C1.29143 27.9409 1.21054 27.7418 1.17051 27.5176C1.1481 27.3921 1.12676 27.2448 1.1072 27.1099C1.09536 27.0282 1.08417 26.951 1.07381 26.886C1.04229 26.6882 1.00751 26.5196 0.956688 26.3711C0.787318 25.8761 0.623747 25.3349 0.528426 24.7893C0.479836 24.5112 0.470676 24.2319 0.462968 23.9969C0.462533 23.9836 0.462102 23.9705 0.461669 23.9575C0.453074 23.6998 0.443598 23.4905 0.404792 23.2939C0.318019 22.8544 0.294856 22.2882 0.353209 21.7441C0.410139 21.2131 0.553335 20.6184 0.86488 20.1799C0.981598 20.0157 1.13762 19.6404 1.22682 19.37C1.53711 18.4296 2.16467 17.4495 2.8657 16.7537C3.1104 16.5108 3.36226 16.2757 3.60826 16.047C3.62841 16.0282 3.64851 16.0096 3.66857 15.9909C3.89547 15.7801 4.11659 15.5746 4.33169 15.365C4.62026 15.0839 4.92839 14.942 5.18999 14.8389C5.26493 14.8094 5.33218 14.7842 5.39432 14.7609C5.5643 14.6971 5.69606 14.6476 5.84234 14.5645C6.94794 13.9362 8.30038 13.4789 9.56939 13.2994C9.83666 13.2616 10.1218 13.1976 10.4334 13.1215C10.5131 13.1021 10.5953 13.0816 10.6791 13.0608C10.9136 13.0025 11.1613 12.9409 11.406 12.8881Z" fill="white"/>
<path d="M47.8645 27.25C47.3576 28.422 46.1043 29.715 45.541 30.2149L36.1357 20.9284C40.655 16.4506 44.5439 18.0163 45.9505 19.1757C49.3019 21.9383 48.4865 25.6571 47.8645 27.25Z" fill="#FF4DAD"/>
<path fill-rule="evenodd" clip-rule="evenodd" d="M42.225 18.9826C43.6501 18.9631 44.7361 19.5335 45.2761 19.9786C48.0777 22.288 47.457 25.3856 46.8882 26.8546C46.6917 27.3013 46.3296 27.8205 45.9135 28.3159C45.7879 28.4654 45.6618 28.6075 45.5403 28.739L37.6568 20.955C39.4366 19.4492 41.0056 18.9992 42.225 18.9826ZM42.1959 16.8931C40.1635 16.9209 37.8098 17.7919 35.3901 20.1894C35.1922 20.3856 35.081 20.6517 35.0813 20.9291C35.0815 21.2065 35.1931 21.4725 35.3914 21.6683L44.7968 30.9548C45.1929 31.3459 45.8282 31.3626 46.2447 30.9929C46.5636 30.7099 47.0536 30.2251 47.5345 29.6527C48.0074 29.0896 48.5217 28.383 48.8338 27.6613C48.8388 27.6499 48.8435 27.6384 48.8481 27.6267C49.5214 25.9023 50.5147 21.5786 46.6249 18.3722L46.6249 18.3722C45.7584 17.658 44.1967 16.8658 42.1959 16.8931Z" fill="#1B1F28"/>
<path d="M43.3429 21.0915C41.8466 20.4528 40.5026 21.3765 39.8233 22.453L43.7252 28.7825C44.1658 28.4747 44.541 28.075 44.7792 27.5932C46.7004 23.7064 44.968 22.0409 43.3429 21.0915Z" fill="#B21A6C"/>
<path d="M42.4518 26.1239C38.9196 21.6798 30.0077 20.7906 25.3053 20.9836C17.6686 21.2969 11.8142 24.4644 8.6409 27.4441C7.47187 28.5417 6.89968 30.0976 6.74932 31.6946C5.75634 42.2411 7.16805 47.5195 8.5095 49.8073C10.5422 53.2738 17.2856 56.4003 20.6472 57.2725C30.1616 59.7412 36.1924 57.6623 39.0637 56.1324C46.2825 52.2863 48.3673 44.0835 48.1545 40.701C47.383 32.5071 44.2477 28.3833 42.4518 26.1239Z" fill="#FF4DAD"/>
<path d="M25.5605 58.7393C13.1726 54.6765 6.3075 42.7015 6.3075 33.9656L5.48416 40.3137L8.39238 49.4764L14.8371 56.7783L25.5605 58.7393Z" fill="#B21A6C"/>
<path d="M41.3947 28.743C40.8515 28.2633 39.7452 27.6557 38.2635 28.5153" stroke="#1B1F28" stroke-width="1.40648" stroke-linecap="round" stroke-linejoin="round"/>
<path d="M25.1401 27.7631C24.5903 27.015 22.5623 25.9106 20.2439 27.3271" stroke="#1B1F28" stroke-width="1.40648" stroke-linecap="round" stroke-linejoin="round"/>
<ellipse cx="2.50431" cy="3.01624" rx="2.50431" ry="3.01624" transform="matrix(-0.997226 0.0744378 0.0758148 0.997122 25.0477 29.8049)" fill="#1B1F28" stroke="#1B1F28" stroke-width="1.60741" stroke-linecap="round" stroke-linejoin="round"/>
<ellipse cx="1.3738" cy="2.59914" rx="1.3738" ry="2.59914" transform="matrix(-0.996533 0.0832033 0.0847402 0.996403 40.9987 31.066)" fill="#1B1F28" stroke="#1B1F28" stroke-width="1.60741" stroke-linecap="round" stroke-linejoin="round"/>
<path d="M32.8817 35.1919C35.7839 34.7707 38.136 35.6903 39.6136 36.6841C40.1473 37.0431 40.642 37.6349 40.448 38.2488C40.0427 39.5314 37.3705 39.2452 35.6308 38.9318C32.5726 38.1832 31.701 37.0405 31.7206 36.161C31.7332 35.5938 32.32 35.2734 32.8817 35.1919Z" fill="#1B1F28" stroke="#1B1F28" stroke-width="1.60741" stroke-linecap="round" stroke-linejoin="round"/>
<path d="M29.5948 49.581L24.1013 40.3159C23.9928 40.133 24.0012 39.8886 24.1725 39.7628C24.6105 39.4413 24.8521 39.9031 25.186 40.2921C28.1712 43.7711 30.782 44.2779 33.1597 44.8848C35.233 45.4139 38.4576 45.2963 39.7865 45.2787C39.0747 47.8825 37.3021 50.3745 36.5048 51.295C34.459 53.6569 30.6682 51.5345 29.5948 49.581Z" fill="#1B1F28" stroke="#1B1F28" stroke-width="1.60741" stroke-linecap="round" stroke-linejoin="round"/>
<path d="M32.3219 48.1179C36.3865 48.0464 36.96 50.0442 36.7151 50.899C36.4346 51.8781 34.303 53.3176 30.7287 50.6205C30.3885 50.3638 30.1023 50.0401 29.8635 49.6872L27.064 45.5495C29.8836 48.1128 31.0853 48.1396 32.3219 48.1179Z" fill="#FF4DAD" stroke="#1B1F28" stroke-width="0.335889" stroke-linecap="round" stroke-linejoin="round"/>
<path d="M40.5958 36.7532C41.7458 37.4137 43.3741 38.1249 43.502 41.1836C43.5759 42.9518 42.1612 44.912 39.6658 45.2809" stroke="#1B1F28" stroke-width="1.60741" stroke-linecap="round" stroke-linejoin="round"/>
<path d="M23.195 35.9774C26.7958 34.9163 30.5662 34.4481 34.4407 34.6036C36.2247 34.6752 38.7167 35.3702 39.9777 36.3679" stroke="#1B1F28" stroke-width="1.60741" stroke-linecap="round" stroke-linejoin="round"/>
<path d="M22.8936 32.4302C24.1996 31.6929 23.6533 30.5787 22.9817 29.9872C22.7484 29.7817 22.4423 29.6672 22.133 29.6946C21.7459 29.7289 21.3948 29.886 21.1257 30.097C20.8318 30.3273 20.7188 30.7116 20.7494 31.0842C20.8887 32.7818 22.1453 32.7545 22.8936 32.4302Z" fill="white" stroke="#1B1F28" stroke-width="0.401851" stroke-linecap="round" stroke-linejoin="round"/>
<path d="M40.1485 33.15C41.3032 32.6675 40.9964 31.7383 40.5036 31.1833C40.3008 30.9549 40.0097 30.8137 39.7046 30.8199C39.4276 30.8254 39.1656 30.9018 38.9453 31.0181C38.6089 31.1957 38.4402 31.5753 38.4435 31.9559C38.4548 33.2707 39.4943 33.3481 40.1485 33.15Z" fill="white" stroke="#1B1F28" stroke-width="0.401851" stroke-linecap="round" stroke-linejoin="round"/>
<path d="M39.5105 37.59C37.2245 36.1227 34.9304 36.0348 33.3397 36.3342C32.9282 36.4116 32.6834 36.01 33.0697 35.8486C34.5987 35.2099 36.7005 35.5337 37.7935 35.8657C38.9818 36.2772 39.6051 36.8376 39.9034 37.3106C40.0766 37.5851 39.7837 37.7653 39.5105 37.59Z" fill="white" stroke="white" stroke-width="0.200926" stroke-linecap="round" stroke-linejoin="round"/>
<path fill-rule="evenodd" clip-rule="evenodd" d="M34.7967 19.78C31.3208 18.9758 27.7225 18.793 25.2177 18.8958C17.4913 19.2128 11.4126 22.2582 7.79805 25.38C5.67768 27.2114 4.77514 29.8266 4.60584 32.2641C3.88247 42.6785 6.30799 47.6658 7.81534 50.2365C9.0507 52.3434 11.2559 54.3437 13.4556 55.8879C15.6638 57.4381 18.1573 58.7315 20.1731 59.2546C30.2347 61.8653 36.7508 59.7372 40.0622 57.9729C44.1631 55.788 46.7697 52.3849 48.2964 49.094C49.8039 45.8448 50.3387 42.5324 50.1297 40.3128L48.0298 40.5069C48.3672 44.0906 46.2823 52.2864 39.0634 56.1325C36.1921 57.6623 30.2217 59.7019 20.7074 57.2331C17.3458 56.3609 11.6716 52.6534 9.6389 49.1868C8.32865 46.9523 6.01734 42.3776 6.70984 32.4076C6.85348 30.3395 7.60672 28.3173 9.18383 26.9552C12.4581 24.1273 18.085 21.2799 25.305 20.9836C30.0074 20.7907 38.9193 21.6799 42.4516 26.1239C44.2474 28.3834 47.2584 32.313 48.0298 40.5069L50.1297 40.3128C49.3069 31.5738 46.0468 27.2697 44.1084 24.8311C41.8913 22.0416 38.1971 20.5668 34.7967 19.78Z" fill="#1B1F28"/>
<path d="M32.8216 48.3423C29.7316 48.1671 28.8467 47.2053 28.211 46.7907L30.1879 49.7082L31.8772 49.6389L32.8216 48.3423Z" fill="#FF4DAD"/>
<path d="M6.87162 30.2694L18.5994 22.0401L17.8682 20.4674L15.6291 18.1292L13.5908 17.3764L10.2753 17.647L6.84394 19.3249L5.00603 21.6918L4.51985 24.6949L5.32773 27.8869L6.87162 30.2694Z" fill="#FF4DAD"/>
<path d="M18.673 22.4599C18.255 20.4512 15.7879 16.9101 11.9873 17.0573C10.5702 17.117 7.22564 17.9143 5.18468 20.6259C3.67031 22.6379 2.77073 27.0371 8.07185 31.468" stroke="#1B1F28" stroke-width="1.60741" stroke-linecap="round" stroke-linejoin="round"/>
<path d="M10.5245 20.7739C13.428 19.5206 15.3104 21.3839 16.0729 22.7772C16.2056 23.0196 16.1222 23.3162 15.9006 23.4819L10.6614 27.3988C10.2523 27.7174 9.83159 27.9181 9.50046 27.338C7.21404 23.3327 9.2305 21.2931 10.5245 20.7739Z" fill="#B21A6C"/>
</svg>
