<svg width="127" height="41" viewBox="0 0 127 41" fill="none" xmlns="http://www.w3.org/2000/svg">
<g clip-path="url(#clip0_132_975)">
<path d="M0 0.963379H127V40.9634H38.8583C32.3985 40.9634 26.3364 37.8433 22.5823 32.5863L0 0.963379Z" fill="#FF4DAD"/>
<path d="M47.9075 16.9634V15.2994H51.2355V26.9634H49.3955V16.9634H47.9075ZM61.3375 27.1074C60.6442 27.1074 60.0202 26.9847 59.4655 26.7394C58.9215 26.4834 58.4895 26.142 58.1695 25.7154C57.8495 25.278 57.6788 24.7927 57.6575 24.2594H59.5455C59.5775 24.6327 59.7535 24.9474 60.0735 25.2034C60.4042 25.4487 60.8148 25.5714 61.3055 25.5714C61.8175 25.5714 62.2122 25.4754 62.4895 25.2834C62.7775 25.0807 62.9215 24.8247 62.9215 24.5154C62.9215 24.1847 62.7615 23.9394 62.4415 23.7794C62.1322 23.6194 61.6362 23.4434 60.9535 23.2514C60.2922 23.07 59.7535 22.894 59.3375 22.7234C58.9215 22.5527 58.5588 22.2914 58.2495 21.9394C57.9508 21.5874 57.8015 21.1234 57.8015 20.5474C57.8015 20.078 57.9402 19.6514 58.2175 19.2674C58.4948 18.8727 58.8895 18.5634 59.4015 18.3394C59.9242 18.1154 60.5215 18.0034 61.1935 18.0034C62.1962 18.0034 63.0015 18.2594 63.6095 18.7714C64.2282 19.2727 64.5588 19.9607 64.6015 20.8354H62.7775C62.7455 20.4407 62.5855 20.126 62.2975 19.8914C62.0095 19.6567 61.6202 19.5394 61.1295 19.5394C60.6495 19.5394 60.2815 19.63 60.0255 19.8114C59.7695 19.9927 59.6415 20.2327 59.6415 20.5314C59.6415 20.766 59.7268 20.9634 59.8975 21.1234C60.0682 21.2834 60.2762 21.4114 60.5215 21.5074C60.7668 21.5927 61.1295 21.7047 61.6095 21.8434C62.2495 22.014 62.7722 22.19 63.1775 22.3714C63.5935 22.542 63.9508 22.798 64.2495 23.1394C64.5482 23.4807 64.7028 23.934 64.7135 24.4994C64.7135 25.0007 64.5748 25.4487 64.2975 25.8434C64.0202 26.238 63.6255 26.5474 63.1135 26.7714C62.6122 26.9954 62.0202 27.1074 61.3375 27.1074ZM68.8124 19.6354V24.5154C68.8124 24.846 68.887 25.086 69.0364 25.2354C69.1964 25.374 69.463 25.4434 69.8364 25.4434H70.9564V26.9634H69.5164C68.695 26.9634 68.0657 26.7714 67.6284 26.3874C67.191 26.0034 66.9724 25.3794 66.9724 24.5154V19.6354H65.9324V18.1474H66.9724V15.9554H68.8124V18.1474H70.9564V19.6354H68.8124ZM72.0295 22.5154C72.0295 21.63 72.2108 20.846 72.5735 20.1634C72.9468 19.4807 73.4482 18.9527 74.0775 18.5794C74.7175 18.1954 75.4215 18.0034 76.1895 18.0034C76.8828 18.0034 77.4855 18.142 77.9975 18.4194C78.5202 18.686 78.9362 19.022 79.2455 19.4274V18.1474H81.0855V26.9634H79.2455V25.6514C78.9362 26.0674 78.5148 26.414 77.9815 26.6914C77.4482 26.9687 76.8402 27.1074 76.1575 27.1074C75.4002 27.1074 74.7068 26.9154 74.0775 26.5314C73.4482 26.1367 72.9468 25.5927 72.5735 24.8994C72.2108 24.1954 72.0295 23.4007 72.0295 22.5154ZM79.2455 22.5474C79.2455 21.9394 79.1175 21.4114 78.8615 20.9634C78.6162 20.5154 78.2908 20.174 77.8855 19.9394C77.4802 19.7047 77.0428 19.5874 76.5735 19.5874C76.1042 19.5874 75.6668 19.7047 75.2615 19.9394C74.8562 20.1634 74.5255 20.4994 74.2695 20.9474C74.0242 21.3847 73.9015 21.9074 73.9015 22.5154C73.9015 23.1234 74.0242 23.6567 74.2695 24.1154C74.5255 24.574 74.8562 24.926 75.2615 25.1714C75.6775 25.406 76.1148 25.5234 76.5735 25.5234C77.0428 25.5234 77.4802 25.406 77.8855 25.1714C78.2908 24.9367 78.6162 24.5954 78.8615 24.1474C79.1175 23.6887 79.2455 23.1554 79.2455 22.5474ZM87.0333 18.0034C87.7159 18.0034 88.3186 18.142 88.8413 18.4194C89.3746 18.686 89.7906 19.022 90.0893 19.4274V18.1474H91.9293V27.1074C91.9293 27.918 91.7586 28.638 91.4173 29.2674C91.0759 29.9074 90.5799 30.4087 89.9293 30.7714C89.2893 31.134 88.5213 31.3154 87.6253 31.3154C86.4306 31.3154 85.4386 31.0327 84.6493 30.4674C83.8599 29.9127 83.4119 29.1554 83.3053 28.1954H85.1133C85.2519 28.654 85.5453 29.022 85.9933 29.2994C86.4519 29.5874 86.9959 29.7314 87.6253 29.7314C88.3613 29.7314 88.9533 29.5074 89.4013 29.0594C89.8599 28.6114 90.0893 27.9607 90.0893 27.1074V25.6354C89.7799 26.0514 89.3586 26.4034 88.8253 26.6914C88.3026 26.9687 87.7053 27.1074 87.0333 27.1074C86.2653 27.1074 85.5613 26.9154 84.9213 26.5314C84.2919 26.1367 83.7906 25.5927 83.4173 24.8994C83.0546 24.1954 82.8733 23.4007 82.8733 22.5154C82.8733 21.63 83.0546 20.846 83.4173 20.1634C83.7906 19.4807 84.2919 18.9527 84.9213 18.5794C85.5613 18.1954 86.2653 18.0034 87.0333 18.0034ZM90.0893 22.5474C90.0893 21.9394 89.9613 21.4114 89.7053 20.9634C89.4599 20.5154 89.1346 20.174 88.7293 19.9394C88.3239 19.7047 87.8866 19.5874 87.4173 19.5874C86.9479 19.5874 86.5106 19.7047 86.1053 19.9394C85.6999 20.1634 85.3693 20.4994 85.1133 20.9474C84.8679 21.3847 84.7453 21.9074 84.7453 22.5154C84.7453 23.1234 84.8679 23.6567 85.1133 24.1154C85.3693 24.574 85.6999 24.926 86.1053 25.1714C86.5213 25.406 86.9586 25.5234 87.4173 25.5234C87.8866 25.5234 88.3239 25.406 88.7293 25.1714C89.1346 24.9367 89.4599 24.5954 89.7053 24.1474C89.9613 23.6887 90.0893 23.1554 90.0893 22.5474ZM102.405 22.3394C102.405 22.67 102.384 22.9687 102.341 23.2354H95.605C95.6583 23.9394 95.9197 24.5047 96.389 24.9314C96.8583 25.358 97.4343 25.5714 98.117 25.5714C99.0983 25.5714 99.7917 25.1607 100.197 24.3394H102.165C101.898 25.15 101.413 25.8167 100.709 26.3394C100.016 26.8514 99.1517 27.1074 98.117 27.1074C97.2743 27.1074 96.517 26.9207 95.845 26.5474C95.1837 26.1634 94.661 25.63 94.277 24.9474C93.9037 24.254 93.717 23.454 93.717 22.5474C93.717 21.6407 93.8983 20.846 94.261 20.1634C94.6343 19.47 95.1517 18.9367 95.813 18.5634C96.485 18.19 97.253 18.0034 98.117 18.0034C98.949 18.0034 99.6903 18.1847 100.341 18.5474C100.992 18.91 101.498 19.422 101.861 20.0834C102.224 20.734 102.405 21.486 102.405 22.3394ZM100.501 21.7634C100.49 21.0914 100.25 20.5527 99.781 20.1474C99.3117 19.742 98.7303 19.5394 98.037 19.5394C97.4077 19.5394 96.869 19.742 96.421 20.1474C95.973 20.542 95.7063 21.0807 95.621 21.7634H100.501Z" fill="white"/>
</g>
<defs>
<clipPath id="clip0_132_975">
<path d="M0 0.963379H115C121.627 0.963379 127 6.33596 127 12.9634V40.9634H0V0.963379Z" fill="white"/>
</clipPath>
</defs>
</svg>
